<mxfile host="app.diagrams.net" modified="2023-10-28T13:27:59.574Z" agent="Mozilla/5.0 (Windows NT 10.0; Win64; x64) AppleWebKit/537.36 (KHTML, like Gecko) Chrome/118.0.0.0 Safari/537.36" etag="0MABlVV5Xc-KFzkzhQnb" version="22.0.8" type="device" pages="8">
  <diagram name="Page-1" id="qBt4v6oLu9hTF32qharX">
    <mxGraphModel dx="1176" dy="1596" grid="1" gridSize="10" guides="1" tooltips="1" connect="1" arrows="1" fold="1" page="1" pageScale="1" pageWidth="850" pageHeight="1100" math="0" shadow="0">
      <root>
        <mxCell id="0" />
        <mxCell id="1" parent="0" />
        <mxCell id="yB9Z1E2pABQyuk_l1R_r-1" style="edgeStyle=orthogonalEdgeStyle;rounded=0;orthogonalLoop=1;jettySize=auto;html=1;exitX=1;exitY=0.25;exitDx=0;exitDy=0;entryX=0.093;entryY=0.22;entryDx=0;entryDy=0;entryPerimeter=0;" parent="1" source="yB9Z1E2pABQyuk_l1R_r-2" target="yB9Z1E2pABQyuk_l1R_r-4" edge="1">
          <mxGeometry relative="1" as="geometry" />
        </mxCell>
        <mxCell id="yB9Z1E2pABQyuk_l1R_r-2" value="" style="rounded=0;whiteSpace=wrap;html=1;" parent="1" vertex="1">
          <mxGeometry x="60" y="-520" width="140" height="90" as="geometry" />
        </mxCell>
        <mxCell id="yB9Z1E2pABQyuk_l1R_r-3" style="edgeStyle=orthogonalEdgeStyle;rounded=0;orthogonalLoop=1;jettySize=auto;html=1;exitX=0.947;exitY=0.153;exitDx=0;exitDy=0;exitPerimeter=0;" parent="1" source="yB9Z1E2pABQyuk_l1R_r-4" edge="1">
          <mxGeometry relative="1" as="geometry">
            <mxPoint x="630" y="-504.6" as="targetPoint" />
            <mxPoint x="490" y="-505" as="sourcePoint" />
          </mxGeometry>
        </mxCell>
        <mxCell id="yB9Z1E2pABQyuk_l1R_r-4" value="" style="ellipse;whiteSpace=wrap;html=1;aspect=fixed;" parent="1" vertex="1">
          <mxGeometry x="400" y="-520" width="100" height="100" as="geometry" />
        </mxCell>
        <mxCell id="yB9Z1E2pABQyuk_l1R_r-5" style="edgeStyle=orthogonalEdgeStyle;rounded=0;orthogonalLoop=1;jettySize=auto;html=1;exitX=0;exitY=0.75;exitDx=0;exitDy=0;entryX=1.04;entryY=0.667;entryDx=0;entryDy=0;entryPerimeter=0;" parent="1" source="yB9Z1E2pABQyuk_l1R_r-6" target="yB9Z1E2pABQyuk_l1R_r-4" edge="1">
          <mxGeometry relative="1" as="geometry" />
        </mxCell>
        <mxCell id="yB9Z1E2pABQyuk_l1R_r-6" value="" style="rounded=0;whiteSpace=wrap;html=1;" parent="1" vertex="1">
          <mxGeometry x="630" y="-520" width="130" height="90" as="geometry" />
        </mxCell>
        <mxCell id="yB9Z1E2pABQyuk_l1R_r-7" value="User" style="text;strokeColor=none;align=center;fillColor=none;html=1;verticalAlign=middle;whiteSpace=wrap;rounded=0;" parent="1" vertex="1">
          <mxGeometry x="95" y="-485" width="60" height="30" as="geometry" />
        </mxCell>
        <mxCell id="yB9Z1E2pABQyuk_l1R_r-8" value="Online Portal" style="text;strokeColor=none;align=center;fillColor=none;html=1;verticalAlign=middle;whiteSpace=wrap;rounded=0;" parent="1" vertex="1">
          <mxGeometry x="420" y="-485" width="60" height="30" as="geometry" />
        </mxCell>
        <mxCell id="yB9Z1E2pABQyuk_l1R_r-9" value="Web Admin" style="text;strokeColor=none;align=center;fillColor=none;html=1;verticalAlign=middle;whiteSpace=wrap;rounded=0;" parent="1" vertex="1">
          <mxGeometry x="635" y="-485" width="120" height="30" as="geometry" />
        </mxCell>
        <mxCell id="yB9Z1E2pABQyuk_l1R_r-10" value="Response" style="text;strokeColor=none;align=center;fillColor=none;html=1;verticalAlign=middle;whiteSpace=wrap;rounded=0;" parent="1" vertex="1">
          <mxGeometry x="530" y="-540" width="60" height="30" as="geometry" />
        </mxCell>
        <mxCell id="yB9Z1E2pABQyuk_l1R_r-11" value="Login Request" style="text;html=1;align=center;verticalAlign=middle;resizable=0;points=[];autosize=1;strokeColor=none;fillColor=none;" parent="1" vertex="1">
          <mxGeometry x="250" y="-540" width="100" height="30" as="geometry" />
        </mxCell>
        <mxCell id="yB9Z1E2pABQyuk_l1R_r-12" value="" style="endArrow=classic;html=1;rounded=0;entryX=1;entryY=0.75;entryDx=0;entryDy=0;exitX=-0.033;exitY=0.66;exitDx=0;exitDy=0;exitPerimeter=0;" parent="1" source="yB9Z1E2pABQyuk_l1R_r-4" target="yB9Z1E2pABQyuk_l1R_r-2" edge="1">
          <mxGeometry width="50" height="50" relative="1" as="geometry">
            <mxPoint x="380" y="-390" as="sourcePoint" />
            <mxPoint x="430" y="-440" as="targetPoint" />
          </mxGeometry>
        </mxCell>
        <mxCell id="yB9Z1E2pABQyuk_l1R_r-13" value="&lt;span style=&quot;color: rgb(0, 0, 0); font-family: Helvetica; font-size: 12px; font-style: normal; font-variant-ligatures: normal; font-variant-caps: normal; font-weight: 400; letter-spacing: normal; orphans: 2; text-align: center; text-indent: 0px; text-transform: none; widows: 2; word-spacing: 0px; -webkit-text-stroke-width: 0px; background-color: rgb(251, 251, 251); text-decoration-thickness: initial; text-decoration-style: initial; text-decoration-color: initial; float: none; display: inline !important;&quot;&gt;Response&lt;/span&gt;" style="text;whiteSpace=wrap;html=1;" parent="1" vertex="1">
          <mxGeometry x="260" y="-440" width="90" height="40" as="geometry" />
        </mxCell>
        <mxCell id="yB9Z1E2pABQyuk_l1R_r-14" value="Request Registration" style="text;strokeColor=none;align=center;fillColor=none;html=1;verticalAlign=middle;whiteSpace=wrap;rounded=0;" parent="1" vertex="1">
          <mxGeometry x="550" y="-440" width="60" height="30" as="geometry" />
        </mxCell>
      </root>
    </mxGraphModel>
  </diagram>
  <diagram id="VTS2f89hjnPNlUeqUzSr" name="Page-2">
    <mxGraphModel dx="892" dy="515" grid="1" gridSize="10" guides="1" tooltips="1" connect="1" arrows="1" fold="1" page="1" pageScale="1" pageWidth="850" pageHeight="1100" math="0" shadow="0">
      <root>
        <mxCell id="0" />
        <mxCell id="1" parent="0" />
        <mxCell id="dPXZG3Cje_Mo66_6KbII-1" value="Actor" style="shape=umlActor;verticalLabelPosition=bottom;verticalAlign=top;html=1;" parent="1" vertex="1">
          <mxGeometry x="110" y="160" width="30" height="70" as="geometry" />
        </mxCell>
        <mxCell id="dPXZG3Cje_Mo66_6KbII-2" value="Actor" style="shape=umlActor;verticalLabelPosition=bottom;verticalAlign=top;html=1;" parent="1" vertex="1">
          <mxGeometry x="660" y="340" width="30" height="60" as="geometry" />
        </mxCell>
        <mxCell id="dPXZG3Cje_Mo66_6KbII-3" value="Actor" style="shape=umlActor;verticalLabelPosition=bottom;verticalAlign=top;html=1;" parent="1" vertex="1">
          <mxGeometry x="120" y="470" width="30" height="60" as="geometry" />
        </mxCell>
        <mxCell id="dPXZG3Cje_Mo66_6KbII-4" value="Login" style="ellipse;whiteSpace=wrap;html=1;" parent="1" vertex="1">
          <mxGeometry x="330" y="70" width="110" height="50" as="geometry" />
        </mxCell>
        <mxCell id="dPXZG3Cje_Mo66_6KbII-5" value="Search Product" style="ellipse;whiteSpace=wrap;html=1;" parent="1" vertex="1">
          <mxGeometry x="340" y="130" width="110" height="50" as="geometry" />
        </mxCell>
        <mxCell id="dPXZG3Cje_Mo66_6KbII-6" value="Payment" style="ellipse;whiteSpace=wrap;html=1;" parent="1" vertex="1">
          <mxGeometry x="340" y="250" width="110" height="50" as="geometry" />
        </mxCell>
        <mxCell id="dPXZG3Cje_Mo66_6KbII-7" value="Cancel Order" style="ellipse;whiteSpace=wrap;html=1;" parent="1" vertex="1">
          <mxGeometry x="340" y="310" width="110" height="50" as="geometry" />
        </mxCell>
        <mxCell id="dPXZG3Cje_Mo66_6KbII-8" value="Place Order" style="ellipse;whiteSpace=wrap;html=1;" parent="1" vertex="1">
          <mxGeometry x="340" y="190" width="110" height="50" as="geometry" />
        </mxCell>
        <mxCell id="dPXZG3Cje_Mo66_6KbII-9" value="Add Product" style="ellipse;whiteSpace=wrap;html=1;" parent="1" vertex="1">
          <mxGeometry x="330" y="490" width="110" height="50" as="geometry" />
        </mxCell>
        <mxCell id="dPXZG3Cje_Mo66_6KbII-10" value="Manage System" style="ellipse;whiteSpace=wrap;html=1;" parent="1" vertex="1">
          <mxGeometry x="330" y="620" width="110" height="50" as="geometry" />
        </mxCell>
        <mxCell id="dPXZG3Cje_Mo66_6KbII-11" value="Registration" style="ellipse;whiteSpace=wrap;html=1;" parent="1" vertex="1">
          <mxGeometry x="330" y="10" width="110" height="50" as="geometry" />
        </mxCell>
        <mxCell id="dPXZG3Cje_Mo66_6KbII-12" value="Manage Order" style="ellipse;whiteSpace=wrap;html=1;" parent="1" vertex="1">
          <mxGeometry x="340" y="370" width="110" height="50" as="geometry" />
        </mxCell>
        <mxCell id="dPXZG3Cje_Mo66_6KbII-13" value="Add Category" style="ellipse;whiteSpace=wrap;html=1;" parent="1" vertex="1">
          <mxGeometry x="340" y="430" width="110" height="50" as="geometry" />
        </mxCell>
        <mxCell id="dPXZG3Cje_Mo66_6KbII-14" value="S_Playment" style="ellipse;whiteSpace=wrap;html=1;" parent="1" vertex="1">
          <mxGeometry x="330" y="560" width="110" height="50" as="geometry" />
        </mxCell>
        <mxCell id="dPXZG3Cje_Mo66_6KbII-15" value="" style="endArrow=none;html=1;rounded=0;entryX=0;entryY=0.5;entryDx=0;entryDy=0;" parent="1" target="dPXZG3Cje_Mo66_6KbII-11" edge="1">
          <mxGeometry width="50" height="50" relative="1" as="geometry">
            <mxPoint x="140" y="200" as="sourcePoint" />
            <mxPoint x="190" y="150" as="targetPoint" />
          </mxGeometry>
        </mxCell>
        <mxCell id="dPXZG3Cje_Mo66_6KbII-16" value="" style="endArrow=none;html=1;rounded=0;entryX=-0.009;entryY=0.64;entryDx=0;entryDy=0;entryPerimeter=0;" parent="1" target="dPXZG3Cje_Mo66_6KbII-4" edge="1">
          <mxGeometry width="50" height="50" relative="1" as="geometry">
            <mxPoint x="140" y="200" as="sourcePoint" />
            <mxPoint x="190" y="170" as="targetPoint" />
          </mxGeometry>
        </mxCell>
        <mxCell id="dPXZG3Cje_Mo66_6KbII-17" value="" style="endArrow=none;html=1;rounded=0;" parent="1" edge="1">
          <mxGeometry width="50" height="50" relative="1" as="geometry">
            <mxPoint x="140" y="200" as="sourcePoint" />
            <mxPoint x="340" y="160" as="targetPoint" />
          </mxGeometry>
        </mxCell>
        <mxCell id="dPXZG3Cje_Mo66_6KbII-18" value="" style="endArrow=none;html=1;rounded=0;" parent="1" edge="1">
          <mxGeometry width="50" height="50" relative="1" as="geometry">
            <mxPoint x="140" y="200" as="sourcePoint" />
            <mxPoint x="340" y="220" as="targetPoint" />
          </mxGeometry>
        </mxCell>
        <mxCell id="dPXZG3Cje_Mo66_6KbII-19" value="" style="endArrow=none;html=1;rounded=0;" parent="1" edge="1">
          <mxGeometry width="50" height="50" relative="1" as="geometry">
            <mxPoint x="140" y="200" as="sourcePoint" />
            <mxPoint x="340" y="270" as="targetPoint" />
          </mxGeometry>
        </mxCell>
        <mxCell id="dPXZG3Cje_Mo66_6KbII-20" value="" style="endArrow=none;html=1;rounded=0;" parent="1" edge="1">
          <mxGeometry width="50" height="50" relative="1" as="geometry">
            <mxPoint x="140" y="200" as="sourcePoint" />
            <mxPoint x="340" y="330" as="targetPoint" />
          </mxGeometry>
        </mxCell>
        <mxCell id="dPXZG3Cje_Mo66_6KbII-21" value="" style="endArrow=none;html=1;rounded=0;" parent="1" edge="1">
          <mxGeometry width="50" height="50" relative="1" as="geometry">
            <mxPoint x="160" y="500" as="sourcePoint" />
            <mxPoint x="340" y="460" as="targetPoint" />
          </mxGeometry>
        </mxCell>
        <mxCell id="dPXZG3Cje_Mo66_6KbII-22" value="" style="endArrow=none;html=1;rounded=0;" parent="1" edge="1">
          <mxGeometry width="50" height="50" relative="1" as="geometry">
            <mxPoint x="170" y="500" as="sourcePoint" />
            <mxPoint x="330" y="520" as="targetPoint" />
          </mxGeometry>
        </mxCell>
        <mxCell id="dPXZG3Cje_Mo66_6KbII-23" value="" style="endArrow=none;html=1;rounded=0;" parent="1" edge="1">
          <mxGeometry width="50" height="50" relative="1" as="geometry">
            <mxPoint x="160" y="500" as="sourcePoint" />
            <mxPoint x="330" y="580" as="targetPoint" />
          </mxGeometry>
        </mxCell>
        <mxCell id="dPXZG3Cje_Mo66_6KbII-24" value="" style="endArrow=none;html=1;rounded=0;" parent="1" edge="1">
          <mxGeometry width="50" height="50" relative="1" as="geometry">
            <mxPoint x="450" y="460" as="sourcePoint" />
            <mxPoint x="640" y="370" as="targetPoint" />
          </mxGeometry>
        </mxCell>
        <mxCell id="dPXZG3Cje_Mo66_6KbII-25" value="" style="endArrow=none;html=1;rounded=0;" parent="1" edge="1">
          <mxGeometry width="50" height="50" relative="1" as="geometry">
            <mxPoint x="440" y="520" as="sourcePoint" />
            <mxPoint x="640" y="370" as="targetPoint" />
          </mxGeometry>
        </mxCell>
        <mxCell id="dPXZG3Cje_Mo66_6KbII-26" value="" style="endArrow=none;html=1;rounded=0;" parent="1" edge="1">
          <mxGeometry width="50" height="50" relative="1" as="geometry">
            <mxPoint x="440" y="590" as="sourcePoint" />
            <mxPoint x="640" y="370" as="targetPoint" />
          </mxGeometry>
        </mxCell>
        <mxCell id="dPXZG3Cje_Mo66_6KbII-27" value="" style="endArrow=none;html=1;rounded=0;" parent="1" edge="1">
          <mxGeometry width="50" height="50" relative="1" as="geometry">
            <mxPoint x="450" y="390" as="sourcePoint" />
            <mxPoint x="640" y="370" as="targetPoint" />
          </mxGeometry>
        </mxCell>
        <mxCell id="dPXZG3Cje_Mo66_6KbII-28" value="" style="endArrow=none;html=1;rounded=0;" parent="1" edge="1">
          <mxGeometry width="50" height="50" relative="1" as="geometry">
            <mxPoint x="440" y="90" as="sourcePoint" />
            <mxPoint x="640" y="370" as="targetPoint" />
          </mxGeometry>
        </mxCell>
        <mxCell id="dPXZG3Cje_Mo66_6KbII-29" value="" style="endArrow=none;html=1;rounded=0;" parent="1" edge="1">
          <mxGeometry width="50" height="50" relative="1" as="geometry">
            <mxPoint x="450" y="220" as="sourcePoint" />
            <mxPoint x="640" y="370" as="targetPoint" />
          </mxGeometry>
        </mxCell>
        <mxCell id="dPXZG3Cje_Mo66_6KbII-30" value="" style="endArrow=none;html=1;rounded=0;" parent="1" edge="1">
          <mxGeometry width="50" height="50" relative="1" as="geometry">
            <mxPoint x="450" y="340" as="sourcePoint" />
            <mxPoint x="640" y="370" as="targetPoint" />
          </mxGeometry>
        </mxCell>
        <mxCell id="dPXZG3Cje_Mo66_6KbII-31" value="" style="endArrow=none;html=1;rounded=0;" parent="1" edge="1">
          <mxGeometry width="50" height="50" relative="1" as="geometry">
            <mxPoint x="450" y="280" as="sourcePoint" />
            <mxPoint x="640" y="370" as="targetPoint" />
          </mxGeometry>
        </mxCell>
        <mxCell id="dPXZG3Cje_Mo66_6KbII-32" value="" style="endArrow=none;html=1;rounded=0;" parent="1" edge="1">
          <mxGeometry width="50" height="50" relative="1" as="geometry">
            <mxPoint x="440" y="640" as="sourcePoint" />
            <mxPoint x="640" y="370" as="targetPoint" />
          </mxGeometry>
        </mxCell>
        <mxCell id="dPXZG3Cje_Mo66_6KbII-33" value="Update Details" style="ellipse;whiteSpace=wrap;html=1;" parent="1" vertex="1">
          <mxGeometry x="330" y="680" width="110" height="50" as="geometry" />
        </mxCell>
        <mxCell id="dPXZG3Cje_Mo66_6KbII-34" value="" style="endArrow=none;html=1;rounded=0;" parent="1" edge="1">
          <mxGeometry width="50" height="50" relative="1" as="geometry">
            <mxPoint x="440" y="700" as="sourcePoint" />
            <mxPoint x="630" y="380" as="targetPoint" />
          </mxGeometry>
        </mxCell>
      </root>
    </mxGraphModel>
  </diagram>
  <diagram id="vzh9qp2UAoQd6_V4naiD" name="Page-3">
    <mxGraphModel dx="892" dy="1615" grid="1" gridSize="10" guides="1" tooltips="1" connect="1" arrows="1" fold="1" page="1" pageScale="1" pageWidth="850" pageHeight="1100" math="0" shadow="0">
      <root>
        <mxCell id="0" />
        <mxCell id="1" parent="0" />
        <mxCell id="rv1UKYciT5G9LmRX_lN2-1" value="" style="rounded=0;whiteSpace=wrap;html=1;" parent="1" vertex="1">
          <mxGeometry x="350" y="-670" width="110" height="60" as="geometry" />
        </mxCell>
        <mxCell id="rv1UKYciT5G9LmRX_lN2-2" value="" style="endArrow=classic;html=1;rounded=0;" parent="1" edge="1">
          <mxGeometry width="50" height="50" relative="1" as="geometry">
            <mxPoint x="400" y="-610" as="sourcePoint" />
            <mxPoint x="400" y="-540" as="targetPoint" />
          </mxGeometry>
        </mxCell>
        <mxCell id="rv1UKYciT5G9LmRX_lN2-3" value="" style="endArrow=none;html=1;rounded=0;" parent="1" edge="1">
          <mxGeometry width="50" height="50" relative="1" as="geometry">
            <mxPoint x="320" y="-540" as="sourcePoint" />
            <mxPoint x="480" y="-540" as="targetPoint" />
          </mxGeometry>
        </mxCell>
        <mxCell id="rv1UKYciT5G9LmRX_lN2-4" value="" style="rounded=0;whiteSpace=wrap;html=1;" parent="1" vertex="1">
          <mxGeometry x="220" y="-560" width="100" height="50" as="geometry" />
        </mxCell>
        <mxCell id="rv1UKYciT5G9LmRX_lN2-5" value="" style="rounded=0;whiteSpace=wrap;html=1;" parent="1" vertex="1">
          <mxGeometry x="460" y="-560" width="100" height="50" as="geometry" />
        </mxCell>
        <mxCell id="rv1UKYciT5G9LmRX_lN2-6" value="User" style="text;html=1;strokeColor=none;fillColor=none;align=center;verticalAlign=middle;whiteSpace=wrap;rounded=0;" parent="1" vertex="1">
          <mxGeometry x="380" y="-660" width="60" height="30" as="geometry" />
        </mxCell>
        <mxCell id="rv1UKYciT5G9LmRX_lN2-7" value="Sign" style="text;html=1;strokeColor=none;fillColor=none;align=center;verticalAlign=middle;whiteSpace=wrap;rounded=0;" parent="1" vertex="1">
          <mxGeometry x="240" y="-550" width="60" height="30" as="geometry" />
        </mxCell>
        <mxCell id="rv1UKYciT5G9LmRX_lN2-8" value="Login" style="text;html=1;strokeColor=none;fillColor=none;align=center;verticalAlign=middle;whiteSpace=wrap;rounded=0;" parent="1" vertex="1">
          <mxGeometry x="480" y="-550" width="60" height="30" as="geometry" />
        </mxCell>
        <mxCell id="rv1UKYciT5G9LmRX_lN2-9" value="" style="endArrow=classic;html=1;rounded=0;" parent="1" edge="1">
          <mxGeometry width="50" height="50" relative="1" as="geometry">
            <mxPoint x="320" y="-510" as="sourcePoint" />
            <mxPoint x="400" y="-480" as="targetPoint" />
          </mxGeometry>
        </mxCell>
        <mxCell id="rv1UKYciT5G9LmRX_lN2-10" value="" style="endArrow=classic;html=1;rounded=0;" parent="1" edge="1">
          <mxGeometry width="50" height="50" relative="1" as="geometry">
            <mxPoint x="460" y="-510" as="sourcePoint" />
            <mxPoint x="400" y="-480" as="targetPoint" />
          </mxGeometry>
        </mxCell>
        <mxCell id="rv1UKYciT5G9LmRX_lN2-11" value="" style="rounded=0;whiteSpace=wrap;html=1;" parent="1" vertex="1">
          <mxGeometry x="350" y="-480" width="110" height="60" as="geometry" />
        </mxCell>
        <mxCell id="rv1UKYciT5G9LmRX_lN2-12" value="Logged in" style="text;html=1;strokeColor=none;fillColor=none;align=center;verticalAlign=middle;whiteSpace=wrap;rounded=0;" parent="1" vertex="1">
          <mxGeometry x="370" y="-465" width="60" height="30" as="geometry" />
        </mxCell>
        <mxCell id="rv1UKYciT5G9LmRX_lN2-13" value="" style="endArrow=classic;html=1;rounded=0;" parent="1" edge="1">
          <mxGeometry width="50" height="50" relative="1" as="geometry">
            <mxPoint x="220" y="-560" as="sourcePoint" />
            <mxPoint x="170" y="-600" as="targetPoint" />
          </mxGeometry>
        </mxCell>
        <mxCell id="rv1UKYciT5G9LmRX_lN2-14" value="" style="endArrow=classic;html=1;rounded=0;" parent="1" edge="1">
          <mxGeometry width="50" height="50" relative="1" as="geometry">
            <mxPoint x="220" y="-530" as="sourcePoint" />
            <mxPoint x="150" y="-530" as="targetPoint" />
          </mxGeometry>
        </mxCell>
        <mxCell id="rv1UKYciT5G9LmRX_lN2-15" value="" style="endArrow=classic;html=1;rounded=0;" parent="1" edge="1">
          <mxGeometry width="50" height="50" relative="1" as="geometry">
            <mxPoint x="220" y="-510" as="sourcePoint" />
            <mxPoint x="180" y="-470" as="targetPoint" />
          </mxGeometry>
        </mxCell>
        <mxCell id="rv1UKYciT5G9LmRX_lN2-16" value="" style="ellipse;whiteSpace=wrap;html=1;" parent="1" vertex="1">
          <mxGeometry x="90" y="-630" width="80" height="60" as="geometry" />
        </mxCell>
        <mxCell id="rv1UKYciT5G9LmRX_lN2-17" value="Enter Name" style="text;html=1;strokeColor=none;fillColor=none;align=center;verticalAlign=middle;whiteSpace=wrap;rounded=0;rotation=0;" parent="1" vertex="1">
          <mxGeometry x="100" y="-620" width="60" height="30" as="geometry" />
        </mxCell>
        <mxCell id="rv1UKYciT5G9LmRX_lN2-18" value="" style="ellipse;whiteSpace=wrap;html=1;" parent="1" vertex="1">
          <mxGeometry x="70" y="-560" width="80" height="60" as="geometry" />
        </mxCell>
        <mxCell id="rv1UKYciT5G9LmRX_lN2-19" value="" style="ellipse;whiteSpace=wrap;html=1;" parent="1" vertex="1">
          <mxGeometry x="100" y="-495" width="80" height="60" as="geometry" />
        </mxCell>
        <mxCell id="rv1UKYciT5G9LmRX_lN2-20" value="Contact Details" style="text;html=1;strokeColor=none;fillColor=none;align=center;verticalAlign=middle;whiteSpace=wrap;rounded=0;" parent="1" vertex="1">
          <mxGeometry x="80" y="-540" width="60" height="30" as="geometry" />
        </mxCell>
        <mxCell id="rv1UKYciT5G9LmRX_lN2-21" value="Address&amp;nbsp;" style="text;html=1;strokeColor=none;fillColor=none;align=center;verticalAlign=middle;whiteSpace=wrap;rounded=0;" parent="1" vertex="1">
          <mxGeometry x="110" y="-480" width="60" height="30" as="geometry" />
        </mxCell>
        <mxCell id="rv1UKYciT5G9LmRX_lN2-22" value="" style="endArrow=classic;html=1;rounded=0;" parent="1" edge="1">
          <mxGeometry width="50" height="50" relative="1" as="geometry">
            <mxPoint x="560" y="-560" as="sourcePoint" />
            <mxPoint x="620" y="-590" as="targetPoint" />
          </mxGeometry>
        </mxCell>
        <mxCell id="rv1UKYciT5G9LmRX_lN2-23" value="" style="endArrow=classic;html=1;rounded=0;" parent="1" edge="1">
          <mxGeometry width="50" height="50" relative="1" as="geometry">
            <mxPoint x="560" y="-530" as="sourcePoint" />
            <mxPoint x="630" y="-540" as="targetPoint" />
          </mxGeometry>
        </mxCell>
        <mxCell id="rv1UKYciT5G9LmRX_lN2-24" value="" style="endArrow=classic;html=1;rounded=0;" parent="1" edge="1">
          <mxGeometry width="50" height="50" relative="1" as="geometry">
            <mxPoint x="560" y="-510" as="sourcePoint" />
            <mxPoint x="630" y="-500" as="targetPoint" />
          </mxGeometry>
        </mxCell>
        <mxCell id="rv1UKYciT5G9LmRX_lN2-25" value="ID" style="ellipse;whiteSpace=wrap;html=1;" parent="1" vertex="1">
          <mxGeometry x="620" y="-635" width="90" height="60" as="geometry" />
        </mxCell>
        <mxCell id="rv1UKYciT5G9LmRX_lN2-26" value="Password" style="ellipse;whiteSpace=wrap;html=1;" parent="1" vertex="1">
          <mxGeometry x="630" y="-565" width="90" height="60" as="geometry" />
        </mxCell>
        <mxCell id="rv1UKYciT5G9LmRX_lN2-27" value="Update Details" style="ellipse;whiteSpace=wrap;html=1;" parent="1" vertex="1">
          <mxGeometry x="630" y="-500" width="90" height="60" as="geometry" />
        </mxCell>
        <mxCell id="rv1UKYciT5G9LmRX_lN2-28" value="" style="endArrow=classic;html=1;rounded=0;exitX=0.424;exitY=1.022;exitDx=0;exitDy=0;exitPerimeter=0;" parent="1" edge="1">
          <mxGeometry width="50" height="50" relative="1" as="geometry">
            <mxPoint x="399.5000000000001" y="-418.67999999999995" as="sourcePoint" />
            <mxPoint x="399.86" y="-360" as="targetPoint" />
          </mxGeometry>
        </mxCell>
        <mxCell id="rv1UKYciT5G9LmRX_lN2-29" value="Search/View" style="rounded=0;whiteSpace=wrap;html=1;" parent="1" vertex="1">
          <mxGeometry x="350" y="-360" width="100" height="50" as="geometry" />
        </mxCell>
        <mxCell id="rv1UKYciT5G9LmRX_lN2-30" value="" style="endArrow=classic;html=1;rounded=0;" parent="1" edge="1">
          <mxGeometry width="50" height="50" relative="1" as="geometry">
            <mxPoint x="399.5" y="-310" as="sourcePoint" />
            <mxPoint x="400" y="-260" as="targetPoint" />
          </mxGeometry>
        </mxCell>
        <mxCell id="rv1UKYciT5G9LmRX_lN2-31" value="Add to card" style="rounded=0;whiteSpace=wrap;html=1;" parent="1" vertex="1">
          <mxGeometry x="350" y="-260" width="100" height="50" as="geometry" />
        </mxCell>
        <mxCell id="rv1UKYciT5G9LmRX_lN2-32" value="" style="endArrow=classic;html=1;rounded=0;" parent="1" edge="1">
          <mxGeometry width="50" height="50" relative="1" as="geometry">
            <mxPoint x="399.5" y="-210" as="sourcePoint" />
            <mxPoint x="400" y="-160" as="targetPoint" />
            <Array as="points">
              <mxPoint x="399.5" y="-180" />
            </Array>
          </mxGeometry>
        </mxCell>
        <mxCell id="rv1UKYciT5G9LmRX_lN2-33" value="Product Added" style="rounded=0;whiteSpace=wrap;html=1;" parent="1" vertex="1">
          <mxGeometry x="342.5" y="-160" width="115" height="50" as="geometry" />
        </mxCell>
        <mxCell id="rv1UKYciT5G9LmRX_lN2-34" value="" style="endArrow=classic;html=1;rounded=0;" parent="1" edge="1">
          <mxGeometry width="50" height="50" relative="1" as="geometry">
            <mxPoint x="399.5" y="-110" as="sourcePoint" />
            <mxPoint x="400" y="-70" as="targetPoint" />
          </mxGeometry>
        </mxCell>
        <mxCell id="rv1UKYciT5G9LmRX_lN2-35" value="Buy Item" style="rounded=0;whiteSpace=wrap;html=1;" parent="1" vertex="1">
          <mxGeometry x="350" y="-70" width="110" height="50" as="geometry" />
        </mxCell>
        <mxCell id="rv1UKYciT5G9LmRX_lN2-36" value="" style="endArrow=classic;html=1;rounded=0;exitX=0;exitY=0.5;exitDx=0;exitDy=0;entryX=0;entryY=0.5;entryDx=0;entryDy=0;" parent="1" source="rv1UKYciT5G9LmRX_lN2-35" target="rv1UKYciT5G9LmRX_lN2-29" edge="1">
          <mxGeometry width="50" height="50" relative="1" as="geometry">
            <mxPoint x="510" y="-120" as="sourcePoint" />
            <mxPoint x="240" y="-330" as="targetPoint" />
            <Array as="points">
              <mxPoint x="240" y="-40" />
              <mxPoint x="240" y="-335" />
            </Array>
          </mxGeometry>
        </mxCell>
        <mxCell id="rv1UKYciT5G9LmRX_lN2-37" value="Back&lt;br&gt;" style="edgeLabel;html=1;align=center;verticalAlign=middle;resizable=0;points=[];" parent="rv1UKYciT5G9LmRX_lN2-36" vertex="1" connectable="0">
          <mxGeometry x="-0.0638" y="3" relative="1" as="geometry">
            <mxPoint as="offset" />
          </mxGeometry>
        </mxCell>
        <mxCell id="rv1UKYciT5G9LmRX_lN2-38" value="" style="endArrow=classic;html=1;rounded=0;" parent="1" edge="1">
          <mxGeometry width="50" height="50" relative="1" as="geometry">
            <mxPoint x="460" y="-40" as="sourcePoint" />
            <mxPoint x="530" y="-40" as="targetPoint" />
          </mxGeometry>
        </mxCell>
        <mxCell id="rv1UKYciT5G9LmRX_lN2-39" value="Enter address Or Customer Details" style="rounded=0;whiteSpace=wrap;html=1;" parent="1" vertex="1">
          <mxGeometry x="530" y="-70" width="90" height="50" as="geometry" />
        </mxCell>
        <mxCell id="rv1UKYciT5G9LmRX_lN2-40" value="" style="endArrow=classic;html=1;rounded=0;" parent="1" edge="1">
          <mxGeometry width="50" height="50" relative="1" as="geometry">
            <mxPoint x="570" y="-70" as="sourcePoint" />
            <mxPoint x="570" y="-110" as="targetPoint" />
          </mxGeometry>
        </mxCell>
        <mxCell id="rv1UKYciT5G9LmRX_lN2-41" value="Billing" style="rounded=0;whiteSpace=wrap;html=1;" parent="1" vertex="1">
          <mxGeometry x="525" y="-160" width="100" height="55" as="geometry" />
        </mxCell>
        <mxCell id="rv1UKYciT5G9LmRX_lN2-42" value="" style="endArrow=classic;html=1;rounded=0;" parent="1" edge="1">
          <mxGeometry width="50" height="50" relative="1" as="geometry">
            <mxPoint x="570" y="-160" as="sourcePoint" />
            <mxPoint x="570" y="-210" as="targetPoint" />
          </mxGeometry>
        </mxCell>
        <mxCell id="rv1UKYciT5G9LmRX_lN2-43" value="Order Place" style="rounded=0;whiteSpace=wrap;html=1;" parent="1" vertex="1">
          <mxGeometry x="520" y="-260" width="100" height="50" as="geometry" />
        </mxCell>
        <mxCell id="rv1UKYciT5G9LmRX_lN2-44" value="" style="endArrow=classic;html=1;rounded=0;entryX=0;entryY=0.6;entryDx=0;entryDy=0;entryPerimeter=0;" parent="1" target="rv1UKYciT5G9LmRX_lN2-45" edge="1">
          <mxGeometry width="50" height="50" relative="1" as="geometry">
            <mxPoint x="580" y="-330" as="sourcePoint" />
            <mxPoint x="570" y="-340" as="targetPoint" />
            <Array as="points" />
          </mxGeometry>
        </mxCell>
        <mxCell id="rv1UKYciT5G9LmRX_lN2-45" value="Order Place Conform" style="rounded=0;whiteSpace=wrap;html=1;" parent="1" vertex="1">
          <mxGeometry x="630" y="-360" width="100" height="50" as="geometry" />
        </mxCell>
        <mxCell id="rv1UKYciT5G9LmRX_lN2-46" value="" style="edgeStyle=orthogonalEdgeStyle;rounded=0;orthogonalLoop=1;jettySize=auto;html=1;entryX=1;entryY=0;entryDx=0;entryDy=0;" parent="1" source="rv1UKYciT5G9LmRX_lN2-47" target="rv1UKYciT5G9LmRX_lN2-29" edge="1">
          <mxGeometry relative="1" as="geometry">
            <Array as="points">
              <mxPoint x="490" y="-424" />
              <mxPoint x="490" y="-360" />
            </Array>
          </mxGeometry>
        </mxCell>
        <mxCell id="rv1UKYciT5G9LmRX_lN2-47" value="Cancel Order" style="rounded=0;whiteSpace=wrap;html=1;" parent="1" vertex="1">
          <mxGeometry x="515" y="-452" width="115" height="55" as="geometry" />
        </mxCell>
        <mxCell id="rv1UKYciT5G9LmRX_lN2-48" value="" style="endArrow=none;html=1;rounded=0;entryX=0.5;entryY=0;entryDx=0;entryDy=0;" parent="1" target="rv1UKYciT5G9LmRX_lN2-43" edge="1">
          <mxGeometry width="50" height="50" relative="1" as="geometry">
            <mxPoint x="570" y="-360" as="sourcePoint" />
            <mxPoint x="570" y="-270" as="targetPoint" />
            <Array as="points">
              <mxPoint x="570" y="-400" />
              <mxPoint x="570" y="-360" />
              <mxPoint x="570" y="-310" />
            </Array>
          </mxGeometry>
        </mxCell>
        <mxCell id="rv1UKYciT5G9LmRX_lN2-49" value="" style="rhombus;whiteSpace=wrap;html=1;" parent="1" vertex="1">
          <mxGeometry x="542.5" y="-350" width="55" height="50" as="geometry" />
        </mxCell>
        <mxCell id="rv1UKYciT5G9LmRX_lN2-50" value="Credit Card" style="ellipse;whiteSpace=wrap;html=1;" parent="1" vertex="1">
          <mxGeometry x="640" y="-230" width="100" height="50" as="geometry" />
        </mxCell>
        <mxCell id="rv1UKYciT5G9LmRX_lN2-51" value="UPI" style="ellipse;whiteSpace=wrap;html=1;" parent="1" vertex="1">
          <mxGeometry x="710" y="-190" width="100" height="50" as="geometry" />
        </mxCell>
        <mxCell id="rv1UKYciT5G9LmRX_lN2-52" value="Netbanking" style="ellipse;whiteSpace=wrap;html=1;" parent="1" vertex="1">
          <mxGeometry x="720" y="-140" width="100" height="50" as="geometry" />
        </mxCell>
        <mxCell id="rv1UKYciT5G9LmRX_lN2-53" value="Emi" style="ellipse;whiteSpace=wrap;html=1;" parent="1" vertex="1">
          <mxGeometry x="660" y="-90" width="100" height="50" as="geometry" />
        </mxCell>
        <mxCell id="rv1UKYciT5G9LmRX_lN2-54" value="" style="endArrow=classic;html=1;rounded=0;exitX=0.95;exitY=0;exitDx=0;exitDy=0;exitPerimeter=0;" parent="1" source="rv1UKYciT5G9LmRX_lN2-41" target="rv1UKYciT5G9LmRX_lN2-50" edge="1">
          <mxGeometry width="50" height="50" relative="1" as="geometry">
            <mxPoint x="620" y="-150" as="sourcePoint" />
            <mxPoint x="670" y="-200" as="targetPoint" />
          </mxGeometry>
        </mxCell>
        <mxCell id="rv1UKYciT5G9LmRX_lN2-55" value="" style="endArrow=classic;html=1;rounded=0;exitX=0.95;exitY=0;exitDx=0;exitDy=0;exitPerimeter=0;entryX=0;entryY=0.5;entryDx=0;entryDy=0;" parent="1" target="rv1UKYciT5G9LmRX_lN2-51" edge="1">
          <mxGeometry width="50" height="50" relative="1" as="geometry">
            <mxPoint x="630" y="-150" as="sourcePoint" />
            <mxPoint x="669" y="-175" as="targetPoint" />
          </mxGeometry>
        </mxCell>
        <mxCell id="rv1UKYciT5G9LmRX_lN2-56" value="" style="endArrow=classic;html=1;rounded=0;entryX=0;entryY=0.5;entryDx=0;entryDy=0;" parent="1" target="rv1UKYciT5G9LmRX_lN2-52" edge="1">
          <mxGeometry width="50" height="50" relative="1" as="geometry">
            <mxPoint x="630" y="-120" as="sourcePoint" />
            <mxPoint x="679" y="-165" as="targetPoint" />
          </mxGeometry>
        </mxCell>
        <mxCell id="rv1UKYciT5G9LmRX_lN2-57" value="" style="endArrow=classic;html=1;rounded=0;entryX=0;entryY=0;entryDx=0;entryDy=0;" parent="1" target="rv1UKYciT5G9LmRX_lN2-53" edge="1">
          <mxGeometry width="50" height="50" relative="1" as="geometry">
            <mxPoint x="630" y="-110" as="sourcePoint" />
            <mxPoint x="689" y="-155" as="targetPoint" />
          </mxGeometry>
        </mxCell>
      </root>
    </mxGraphModel>
  </diagram>
  <diagram id="GXmy_4Y_WQSgpLQFYYZA" name="Page-4">
    <mxGraphModel dx="1176" dy="496" grid="1" gridSize="10" guides="1" tooltips="1" connect="1" arrows="1" fold="1" page="1" pageScale="1" pageWidth="850" pageHeight="1100" math="0" shadow="0">
      <root>
        <mxCell id="0" />
        <mxCell id="1" parent="0" />
        <mxCell id="u0et4MlqCL1tA1Q98yab-1" value="AdminLogin" style="rounded=0;whiteSpace=wrap;html=1;labelBackgroundColor=none;fillColor=#F2CC8F;strokeColor=#E07A5F;fontColor=#393C56;" parent="1" vertex="1">
          <mxGeometry x="47.5" y="120" width="105" height="40" as="geometry" />
        </mxCell>
        <mxCell id="u0et4MlqCL1tA1Q98yab-2" value="Admin" style="rounded=0;whiteSpace=wrap;html=1;labelBackgroundColor=none;fillColor=#F2CC8F;strokeColor=#E07A5F;fontColor=#393C56;" parent="1" vertex="1">
          <mxGeometry x="62.5" y="250" width="105" height="40" as="geometry" />
        </mxCell>
        <mxCell id="u0et4MlqCL1tA1Q98yab-3" value="Category" style="rounded=0;whiteSpace=wrap;html=1;labelBackgroundColor=none;fillColor=#F2CC8F;strokeColor=#E07A5F;fontColor=#393C56;" parent="1" vertex="1">
          <mxGeometry x="562.5" y="40" width="105" height="40" as="geometry" />
        </mxCell>
        <mxCell id="u0et4MlqCL1tA1Q98yab-5" value="Cart" style="rounded=0;whiteSpace=wrap;html=1;labelBackgroundColor=none;fillColor=#F2CC8F;strokeColor=#E07A5F;fontColor=#393C56;" parent="1" vertex="1">
          <mxGeometry x="237.5" y="935" width="105" height="40" as="geometry" />
        </mxCell>
        <mxCell id="u0et4MlqCL1tA1Q98yab-6" value="Product" style="rounded=0;whiteSpace=wrap;html=1;labelBackgroundColor=none;fillColor=#F2CC8F;strokeColor=#E07A5F;fontColor=#393C56;" parent="1" vertex="1">
          <mxGeometry x="575" y="225" width="105" height="40" as="geometry" />
        </mxCell>
        <mxCell id="u0et4MlqCL1tA1Q98yab-7" value="Customer" style="rounded=0;whiteSpace=wrap;html=1;labelBackgroundColor=none;fillColor=#F2CC8F;strokeColor=#E07A5F;fontColor=#393C56;" parent="1" vertex="1">
          <mxGeometry x="580" y="530" width="105" height="40" as="geometry" />
        </mxCell>
        <mxCell id="u0et4MlqCL1tA1Q98yab-8" value="Seller" style="rounded=0;whiteSpace=wrap;html=1;labelBackgroundColor=none;fillColor=#F2CC8F;strokeColor=#E07A5F;fontColor=#393C56;" parent="1" vertex="1">
          <mxGeometry x="337.5" y="530" width="105" height="40" as="geometry" />
        </mxCell>
        <mxCell id="u0et4MlqCL1tA1Q98yab-9" value="Has" style="shape=rhombus;perimeter=rhombusPerimeter;whiteSpace=wrap;html=1;align=center;labelBackgroundColor=none;fillColor=#F2CC8F;strokeColor=#E07A5F;fontColor=#393C56;" parent="1" vertex="1">
          <mxGeometry x="75" y="180" width="30" height="30" as="geometry" />
        </mxCell>
        <mxCell id="u0et4MlqCL1tA1Q98yab-15" value="Order" style="rounded=0;whiteSpace=wrap;html=1;labelBackgroundColor=none;fillColor=#F2CC8F;strokeColor=#E07A5F;fontColor=#393C56;" parent="1" vertex="1">
          <mxGeometry x="320" y="740" width="105" height="40" as="geometry" />
        </mxCell>
        <mxCell id="u0et4MlqCL1tA1Q98yab-16" value="Order Details" style="rounded=0;whiteSpace=wrap;html=1;labelBackgroundColor=none;fillColor=#F2CC8F;strokeColor=#E07A5F;fontColor=#393C56;" parent="1" vertex="1">
          <mxGeometry x="512.5" y="930" width="105" height="40" as="geometry" />
        </mxCell>
        <mxCell id="u0et4MlqCL1tA1Q98yab-18" value="Billing" style="rounded=0;whiteSpace=wrap;html=1;labelBackgroundColor=none;fillColor=#F2CC8F;strokeColor=#E07A5F;fontColor=#393C56;" parent="1" vertex="1">
          <mxGeometry x="607.5" y="790" width="105" height="40" as="geometry" />
        </mxCell>
        <mxCell id="u0et4MlqCL1tA1Q98yab-27" value="" style="endArrow=none;html=1;rounded=0;entryX=0.5;entryY=1;entryDx=0;entryDy=0;labelBackgroundColor=none;strokeColor=#E07A5F;fontColor=default;exitX=0.25;exitY=0;exitDx=0;exitDy=0;" parent="1" source="u0et4MlqCL1tA1Q98yab-2" target="u0et4MlqCL1tA1Q98yab-9" edge="1">
          <mxGeometry width="50" height="50" relative="1" as="geometry">
            <mxPoint x="100" y="220" as="sourcePoint" />
            <mxPoint x="258" y="120" as="targetPoint" />
          </mxGeometry>
        </mxCell>
        <mxCell id="u0et4MlqCL1tA1Q98yab-29" value="Has" style="shape=rhombus;perimeter=rhombusPerimeter;whiteSpace=wrap;html=1;align=center;labelBackgroundColor=none;fillColor=#F2CC8F;strokeColor=#E07A5F;fontColor=#393C56;" parent="1" vertex="1">
          <mxGeometry x="271.25" y="370" width="30" height="30" as="geometry" />
        </mxCell>
        <mxCell id="u0et4MlqCL1tA1Q98yab-31" value="" style="endArrow=none;html=1;rounded=0;exitX=1;exitY=0.5;exitDx=0;exitDy=0;entryX=0;entryY=0;entryDx=0;entryDy=0;labelBackgroundColor=none;strokeColor=#E07A5F;fontColor=default;" parent="1" source="u0et4MlqCL1tA1Q98yab-29" target="u0et4MlqCL1tA1Q98yab-8" edge="1">
          <mxGeometry width="50" height="50" relative="1" as="geometry">
            <mxPoint x="230" y="310" as="sourcePoint" />
            <mxPoint x="290" y="310" as="targetPoint" />
          </mxGeometry>
        </mxCell>
        <mxCell id="QN2qdTGXNcDAp5eCpWUN-2" value="Add" style="shape=rhombus;perimeter=rhombusPerimeter;whiteSpace=wrap;html=1;align=center;labelBackgroundColor=none;fillColor=#F2CC8F;strokeColor=#E07A5F;fontColor=#393C56;" parent="1" vertex="1">
          <mxGeometry x="370" y="230" width="30" height="30" as="geometry" />
        </mxCell>
        <mxCell id="QN2qdTGXNcDAp5eCpWUN-4" value="" style="endArrow=none;html=1;rounded=0;entryX=0;entryY=0.5;entryDx=0;entryDy=0;exitX=1;exitY=0;exitDx=0;exitDy=0;labelBackgroundColor=none;strokeColor=#E07A5F;fontColor=default;" parent="1" source="u0et4MlqCL1tA1Q98yab-2" target="QN2qdTGXNcDAp5eCpWUN-2" edge="1">
          <mxGeometry width="50" height="50" relative="1" as="geometry">
            <mxPoint x="310" y="170" as="sourcePoint" />
            <mxPoint x="360" y="120" as="targetPoint" />
          </mxGeometry>
        </mxCell>
        <mxCell id="QN2qdTGXNcDAp5eCpWUN-5" value="" style="endArrow=none;html=1;rounded=0;entryX=0.5;entryY=1;entryDx=0;entryDy=0;exitX=0.5;exitY=0;exitDx=0;exitDy=0;labelBackgroundColor=none;strokeColor=#E07A5F;fontColor=default;" parent="1" source="QN2qdTGXNcDAp5eCpWUN-6" target="u0et4MlqCL1tA1Q98yab-3" edge="1">
          <mxGeometry width="50" height="50" relative="1" as="geometry">
            <mxPoint x="545" y="115" as="sourcePoint" />
            <mxPoint x="615" y="115" as="targetPoint" />
          </mxGeometry>
        </mxCell>
        <mxCell id="QN2qdTGXNcDAp5eCpWUN-6" value="Add" style="shape=rhombus;perimeter=rhombusPerimeter;whiteSpace=wrap;html=1;align=center;labelBackgroundColor=none;fillColor=#F2CC8F;strokeColor=#E07A5F;fontColor=#393C56;" parent="1" vertex="1">
          <mxGeometry x="612.5" y="130" width="30" height="30" as="geometry" />
        </mxCell>
        <mxCell id="QN2qdTGXNcDAp5eCpWUN-7" value="" style="endArrow=none;html=1;rounded=0;exitX=0.5;exitY=1;exitDx=0;exitDy=0;labelBackgroundColor=none;strokeColor=#E07A5F;fontColor=default;" parent="1" source="QN2qdTGXNcDAp5eCpWUN-6" target="u0et4MlqCL1tA1Q98yab-6" edge="1">
          <mxGeometry width="50" height="50" relative="1" as="geometry">
            <mxPoint x="550" y="140" as="sourcePoint" />
            <mxPoint x="543" y="160" as="targetPoint" />
          </mxGeometry>
        </mxCell>
        <mxCell id="QN2qdTGXNcDAp5eCpWUN-11" value="" style="endArrow=none;html=1;rounded=0;entryX=0;entryY=0.5;entryDx=0;entryDy=0;exitX=1;exitY=0.5;exitDx=0;exitDy=0;labelBackgroundColor=none;strokeColor=#E07A5F;fontColor=default;" parent="1" source="QN2qdTGXNcDAp5eCpWUN-2" target="u0et4MlqCL1tA1Q98yab-6" edge="1">
          <mxGeometry width="50" height="50" relative="1" as="geometry">
            <mxPoint x="430" y="180" as="sourcePoint" />
            <mxPoint x="405" y="190" as="targetPoint" />
          </mxGeometry>
        </mxCell>
        <mxCell id="QN2qdTGXNcDAp5eCpWUN-12" value="Supply" style="shape=rhombus;perimeter=rhombusPerimeter;whiteSpace=wrap;html=1;align=center;labelBackgroundColor=none;fillColor=#F2CC8F;strokeColor=#E07A5F;fontColor=#393C56;" parent="1" vertex="1">
          <mxGeometry x="470" y="450" width="50" height="40" as="geometry" />
        </mxCell>
        <mxCell id="QN2qdTGXNcDAp5eCpWUN-13" value="" style="endArrow=none;html=1;rounded=0;entryX=0;entryY=1;entryDx=0;entryDy=0;exitX=1;exitY=0.5;exitDx=0;exitDy=0;labelBackgroundColor=none;strokeColor=#E07A5F;fontColor=default;" parent="1" source="QN2qdTGXNcDAp5eCpWUN-12" target="u0et4MlqCL1tA1Q98yab-6" edge="1">
          <mxGeometry width="50" height="50" relative="1" as="geometry">
            <mxPoint x="470" y="264.5" as="sourcePoint" />
            <mxPoint x="535" y="264.5" as="targetPoint" />
          </mxGeometry>
        </mxCell>
        <mxCell id="QN2qdTGXNcDAp5eCpWUN-14" value="" style="endArrow=none;html=1;rounded=0;entryX=0;entryY=0.5;entryDx=0;entryDy=0;exitX=1;exitY=0;exitDx=0;exitDy=0;labelBackgroundColor=none;strokeColor=#E07A5F;fontColor=default;" parent="1" source="u0et4MlqCL1tA1Q98yab-8" target="QN2qdTGXNcDAp5eCpWUN-12" edge="1">
          <mxGeometry width="50" height="50" relative="1" as="geometry">
            <mxPoint x="405" y="290" as="sourcePoint" />
            <mxPoint x="425" y="225.5" as="targetPoint" />
          </mxGeometry>
        </mxCell>
        <mxCell id="QN2qdTGXNcDAp5eCpWUN-15" value="Has" style="shape=rhombus;perimeter=rhombusPerimeter;whiteSpace=wrap;html=1;align=center;labelBackgroundColor=none;fillColor=#F2CC8F;strokeColor=#E07A5F;fontColor=#393C56;" parent="1" vertex="1">
          <mxGeometry x="482.5" y="360" width="30" height="30" as="geometry" />
        </mxCell>
        <mxCell id="QN2qdTGXNcDAp5eCpWUN-18" value="" style="endArrow=none;html=1;rounded=0;entryX=0.25;entryY=0;entryDx=0;entryDy=0;exitX=1;exitY=0.5;exitDx=0;exitDy=0;labelBackgroundColor=none;strokeColor=#E07A5F;fontColor=default;" parent="1" source="QN2qdTGXNcDAp5eCpWUN-15" target="u0et4MlqCL1tA1Q98yab-7" edge="1">
          <mxGeometry width="50" height="50" relative="1" as="geometry">
            <mxPoint x="525" y="340" as="sourcePoint" />
            <mxPoint x="580" y="360" as="targetPoint" />
          </mxGeometry>
        </mxCell>
        <mxCell id="QN2qdTGXNcDAp5eCpWUN-19" value="Has" style="shape=rhombus;perimeter=rhombusPerimeter;whiteSpace=wrap;html=1;align=center;labelBackgroundColor=none;fillColor=#F2CC8F;strokeColor=#E07A5F;fontColor=#393C56;" parent="1" vertex="1">
          <mxGeometry x="450" y="620" width="30" height="30" as="geometry" />
        </mxCell>
        <mxCell id="QN2qdTGXNcDAp5eCpWUN-22" value="" style="endArrow=none;html=1;rounded=0;entryX=0;entryY=1;entryDx=0;entryDy=0;exitX=1;exitY=0.5;exitDx=0;exitDy=0;labelBackgroundColor=none;strokeColor=#E07A5F;fontColor=default;" parent="1" source="QN2qdTGXNcDAp5eCpWUN-19" target="u0et4MlqCL1tA1Q98yab-7" edge="1">
          <mxGeometry width="50" height="50" relative="1" as="geometry">
            <mxPoint x="500" y="355" as="sourcePoint" />
            <mxPoint x="590" y="370" as="targetPoint" />
          </mxGeometry>
        </mxCell>
        <mxCell id="QN2qdTGXNcDAp5eCpWUN-23" value="" style="endArrow=none;html=1;rounded=0;entryX=0;entryY=0.5;entryDx=0;entryDy=0;exitX=1;exitY=0.25;exitDx=0;exitDy=0;labelBackgroundColor=none;strokeColor=#E07A5F;fontColor=default;" parent="1" source="u0et4MlqCL1tA1Q98yab-15" target="QN2qdTGXNcDAp5eCpWUN-19" edge="1">
          <mxGeometry width="50" height="50" relative="1" as="geometry">
            <mxPoint x="460" y="450" as="sourcePoint" />
            <mxPoint x="600" y="380" as="targetPoint" />
          </mxGeometry>
        </mxCell>
        <mxCell id="QN2qdTGXNcDAp5eCpWUN-25" value="Has" style="shape=rhombus;perimeter=rhombusPerimeter;whiteSpace=wrap;html=1;align=center;labelBackgroundColor=none;fillColor=#F2CC8F;strokeColor=#E07A5F;fontColor=#393C56;" parent="1" vertex="1">
          <mxGeometry x="537.5" y="720" width="30" height="30" as="geometry" />
        </mxCell>
        <mxCell id="QN2qdTGXNcDAp5eCpWUN-26" value="Has" style="shape=rhombus;perimeter=rhombusPerimeter;whiteSpace=wrap;html=1;align=center;labelBackgroundColor=none;fillColor=#F2CC8F;strokeColor=#E07A5F;fontColor=#393C56;" parent="1" vertex="1">
          <mxGeometry x="617.5" y="620" width="30" height="30" as="geometry" />
        </mxCell>
        <mxCell id="QN2qdTGXNcDAp5eCpWUN-29" value="" style="endArrow=none;html=1;rounded=0;entryX=0;entryY=0.5;entryDx=0;entryDy=0;exitX=1;exitY=1;exitDx=0;exitDy=0;labelBackgroundColor=none;strokeColor=#E07A5F;fontColor=default;" parent="1" source="u0et4MlqCL1tA1Q98yab-15" target="QN2qdTGXNcDAp5eCpWUN-25" edge="1">
          <mxGeometry width="50" height="50" relative="1" as="geometry">
            <mxPoint x="465" y="460" as="sourcePoint" />
            <mxPoint x="530" y="445" as="targetPoint" />
          </mxGeometry>
        </mxCell>
        <mxCell id="QN2qdTGXNcDAp5eCpWUN-30" value="" style="endArrow=none;html=1;rounded=0;entryX=0;entryY=0;entryDx=0;entryDy=0;exitX=1;exitY=0.5;exitDx=0;exitDy=0;labelBackgroundColor=none;strokeColor=#E07A5F;fontColor=default;" parent="1" source="QN2qdTGXNcDAp5eCpWUN-25" target="u0et4MlqCL1tA1Q98yab-18" edge="1">
          <mxGeometry width="50" height="50" relative="1" as="geometry">
            <mxPoint x="475" y="470" as="sourcePoint" />
            <mxPoint x="540" y="455" as="targetPoint" />
          </mxGeometry>
        </mxCell>
        <mxCell id="QN2qdTGXNcDAp5eCpWUN-31" value="" style="endArrow=none;html=1;rounded=0;entryX=0.5;entryY=1;entryDx=0;entryDy=0;exitX=0.5;exitY=0;exitDx=0;exitDy=0;labelBackgroundColor=none;strokeColor=#E07A5F;fontColor=default;" parent="1" source="QN2qdTGXNcDAp5eCpWUN-26" target="u0et4MlqCL1tA1Q98yab-7" edge="1">
          <mxGeometry width="50" height="50" relative="1" as="geometry">
            <mxPoint x="485" y="480" as="sourcePoint" />
            <mxPoint x="550" y="465" as="targetPoint" />
          </mxGeometry>
        </mxCell>
        <mxCell id="QN2qdTGXNcDAp5eCpWUN-33" value="" style="endArrow=none;html=1;rounded=0;entryX=0.5;entryY=0;entryDx=0;entryDy=0;exitX=0.5;exitY=1;exitDx=0;exitDy=0;labelBackgroundColor=none;strokeColor=#E07A5F;fontColor=default;" parent="1" source="QN2qdTGXNcDAp5eCpWUN-26" target="u0et4MlqCL1tA1Q98yab-18" edge="1">
          <mxGeometry width="50" height="50" relative="1" as="geometry">
            <mxPoint x="643" y="470" as="sourcePoint" />
            <mxPoint x="643" y="410" as="targetPoint" />
          </mxGeometry>
        </mxCell>
        <mxCell id="QN2qdTGXNcDAp5eCpWUN-35" value="Has" style="shape=rhombus;perimeter=rhombusPerimeter;whiteSpace=wrap;html=1;align=center;labelBackgroundColor=none;fillColor=#F2CC8F;strokeColor=#E07A5F;fontColor=#393C56;" parent="1" vertex="1">
          <mxGeometry x="362.5" y="620" width="30" height="30" as="geometry" />
        </mxCell>
        <mxCell id="QN2qdTGXNcDAp5eCpWUN-37" value="" style="endArrow=none;html=1;rounded=0;entryX=0.5;entryY=1;entryDx=0;entryDy=0;exitX=0.5;exitY=0;exitDx=0;exitDy=0;labelBackgroundColor=none;strokeColor=#E07A5F;fontColor=default;" parent="1" source="QN2qdTGXNcDAp5eCpWUN-35" target="u0et4MlqCL1tA1Q98yab-8" edge="1">
          <mxGeometry width="50" height="50" relative="1" as="geometry">
            <mxPoint x="310" y="390" as="sourcePoint" />
            <mxPoint x="360" y="340" as="targetPoint" />
          </mxGeometry>
        </mxCell>
        <mxCell id="QN2qdTGXNcDAp5eCpWUN-38" value="" style="endArrow=none;html=1;rounded=0;exitX=0.214;exitY=0;exitDx=0;exitDy=0;entryX=0.5;entryY=1;entryDx=0;entryDy=0;exitPerimeter=0;labelBackgroundColor=none;strokeColor=#E07A5F;fontColor=default;" parent="1" source="u0et4MlqCL1tA1Q98yab-15" target="QN2qdTGXNcDAp5eCpWUN-35" edge="1">
          <mxGeometry width="50" height="50" relative="1" as="geometry">
            <mxPoint x="310" y="440" as="sourcePoint" />
            <mxPoint x="360" y="390" as="targetPoint" />
          </mxGeometry>
        </mxCell>
        <mxCell id="QN2qdTGXNcDAp5eCpWUN-40" value="Has" style="shape=rhombus;perimeter=rhombusPerimeter;whiteSpace=wrap;html=1;align=center;labelBackgroundColor=none;fillColor=#F2CC8F;strokeColor=#E07A5F;fontColor=#393C56;" parent="1" vertex="1">
          <mxGeometry x="307.5" y="840" width="30" height="30" as="geometry" />
        </mxCell>
        <mxCell id="QN2qdTGXNcDAp5eCpWUN-41" value="" style="endArrow=none;html=1;rounded=0;exitX=1;exitY=0.5;exitDx=0;exitDy=0;entryX=0;entryY=1;entryDx=0;entryDy=0;labelBackgroundColor=none;strokeColor=#E07A5F;fontColor=default;" parent="1" source="QN2qdTGXNcDAp5eCpWUN-40" target="u0et4MlqCL1tA1Q98yab-15" edge="1">
          <mxGeometry width="50" height="50" relative="1" as="geometry">
            <mxPoint x="280" y="530" as="sourcePoint" />
            <mxPoint x="330" y="480" as="targetPoint" />
          </mxGeometry>
        </mxCell>
        <mxCell id="QN2qdTGXNcDAp5eCpWUN-42" value="" style="endArrow=none;html=1;rounded=0;entryX=0;entryY=0.5;entryDx=0;entryDy=0;exitX=0.5;exitY=0;exitDx=0;exitDy=0;labelBackgroundColor=none;strokeColor=#E07A5F;fontColor=default;" parent="1" source="u0et4MlqCL1tA1Q98yab-5" target="QN2qdTGXNcDAp5eCpWUN-40" edge="1">
          <mxGeometry width="50" height="50" relative="1" as="geometry">
            <mxPoint x="220" y="590" as="sourcePoint" />
            <mxPoint x="270" y="540" as="targetPoint" />
          </mxGeometry>
        </mxCell>
        <mxCell id="QN2qdTGXNcDAp5eCpWUN-43" value="" style="endArrow=none;html=1;rounded=0;entryX=0.75;entryY=1;entryDx=0;entryDy=0;exitX=0.5;exitY=0;exitDx=0;exitDy=0;labelBackgroundColor=none;strokeColor=#E07A5F;fontColor=default;" parent="1" source="QN2qdTGXNcDAp5eCpWUN-39" target="u0et4MlqCL1tA1Q98yab-15" edge="1">
          <mxGeometry width="50" height="50" relative="1" as="geometry">
            <mxPoint x="350" y="520" as="sourcePoint" />
            <mxPoint x="400" y="480" as="targetPoint" />
          </mxGeometry>
        </mxCell>
        <mxCell id="bJhiyATxaRy-9W0PiRau-4" value="A_email" style="ellipse;whiteSpace=wrap;html=1;labelBackgroundColor=none;fillColor=#F2CC8F;strokeColor=#E07A5F;fontColor=#393C56;" parent="1" vertex="1">
          <mxGeometry x="5" y="380" width="80" height="30" as="geometry" />
        </mxCell>
        <mxCell id="bJhiyATxaRy-9W0PiRau-8" value="" style="endArrow=none;html=1;rounded=0;exitX=0.25;exitY=1;exitDx=0;exitDy=0;labelBackgroundColor=none;strokeColor=#E07A5F;fontColor=default;entryX=1;entryY=0;entryDx=0;entryDy=0;" parent="1" source="u0et4MlqCL1tA1Q98yab-2" target="bJhiyATxaRy-9W0PiRau-4" edge="1">
          <mxGeometry width="50" height="50" relative="1" as="geometry">
            <mxPoint x="340" y="160" as="sourcePoint" />
            <mxPoint x="390" y="110" as="targetPoint" />
          </mxGeometry>
        </mxCell>
        <mxCell id="bJhiyATxaRy-9W0PiRau-10" value="" style="endArrow=none;html=1;rounded=0;entryX=0.75;entryY=1;entryDx=0;entryDy=0;exitX=0.75;exitY=0;exitDx=0;exitDy=0;labelBackgroundColor=none;strokeColor=#E07A5F;fontColor=default;" parent="1" source="u0et4MlqCL1tA1Q98yab-7" target="u0et4MlqCL1tA1Q98yab-6" edge="1">
          <mxGeometry width="50" height="50" relative="1" as="geometry">
            <mxPoint x="630" y="360" as="sourcePoint" />
            <mxPoint x="680" y="310" as="targetPoint" />
          </mxGeometry>
        </mxCell>
        <mxCell id="bJhiyATxaRy-9W0PiRau-12" value="S_id" style="ellipse;whiteSpace=wrap;html=1;labelBackgroundColor=none;fillColor=#F2CC8F;strokeColor=#E07A5F;fontColor=#393C56;" parent="1" vertex="1">
          <mxGeometry x="167.5" y="90" width="70" height="30" as="geometry" />
        </mxCell>
        <mxCell id="bJhiyATxaRy-9W0PiRau-13" value="A_password" style="ellipse;whiteSpace=wrap;html=1;labelBackgroundColor=none;fillColor=#F2CC8F;strokeColor=#E07A5F;fontColor=#393C56;" parent="1" vertex="1">
          <mxGeometry x="30" y="430" width="80" height="30" as="geometry" />
        </mxCell>
        <mxCell id="bJhiyATxaRy-9W0PiRau-14" value="A_Contact" style="ellipse;whiteSpace=wrap;html=1;labelBackgroundColor=none;fillColor=#F2CC8F;strokeColor=#E07A5F;fontColor=#393C56;" parent="1" vertex="1">
          <mxGeometry x="161.25" y="430" width="52.5" height="30" as="geometry" />
        </mxCell>
        <mxCell id="bJhiyATxaRy-9W0PiRau-15" value="A_name" style="ellipse;whiteSpace=wrap;html=1;labelBackgroundColor=none;fillColor=#F2CC8F;strokeColor=#E07A5F;fontColor=#393C56;" parent="1" vertex="1">
          <mxGeometry x="90" y="460" width="57.5" height="30" as="geometry" />
        </mxCell>
        <mxCell id="bJhiyATxaRy-9W0PiRau-16" value="A_ID" style="ellipse;whiteSpace=wrap;html=1;labelBackgroundColor=none;fillColor=#F2CC8F;strokeColor=#E07A5F;fontColor=#393C56;" parent="1" vertex="1">
          <mxGeometry x="10" y="340" width="52.5" height="30" as="geometry" />
        </mxCell>
        <mxCell id="bJhiyATxaRy-9W0PiRau-20" value="" style="endArrow=none;html=1;rounded=0;exitX=0.5;exitY=0;exitDx=0;exitDy=0;labelBackgroundColor=none;strokeColor=#E07A5F;fontColor=default;" parent="1" source="u0et4MlqCL1tA1Q98yab-16" target="QN2qdTGXNcDAp5eCpWUN-39" edge="1">
          <mxGeometry width="50" height="50" relative="1" as="geometry">
            <mxPoint x="410" y="680" as="sourcePoint" />
            <mxPoint x="410" y="560" as="targetPoint" />
          </mxGeometry>
        </mxCell>
        <mxCell id="QN2qdTGXNcDAp5eCpWUN-39" value="Has" style="shape=rhombus;perimeter=rhombusPerimeter;whiteSpace=wrap;html=1;align=center;labelBackgroundColor=none;fillColor=#F2CC8F;strokeColor=#E07A5F;fontColor=#393C56;" parent="1" vertex="1">
          <mxGeometry x="487.5" y="840" width="30" height="30" as="geometry" />
        </mxCell>
        <mxCell id="bJhiyATxaRy-9W0PiRau-21" value="C_address" style="ellipse;whiteSpace=wrap;html=1;labelBackgroundColor=none;fillColor=#F2CC8F;strokeColor=#E07A5F;fontColor=#393C56;" parent="1" vertex="1">
          <mxGeometry x="770" y="600" width="70" height="30" as="geometry" />
        </mxCell>
        <mxCell id="bJhiyATxaRy-9W0PiRau-22" value="Ca_Description" style="ellipse;whiteSpace=wrap;html=1;labelBackgroundColor=none;fillColor=#F2CC8F;strokeColor=#E07A5F;fontColor=#393C56;" parent="1" vertex="1">
          <mxGeometry x="740" y="90" width="90" height="30" as="geometry" />
        </mxCell>
        <mxCell id="bJhiyATxaRy-9W0PiRau-23" value="Ca_name" style="ellipse;whiteSpace=wrap;html=1;labelBackgroundColor=none;fillColor=#F2CC8F;strokeColor=#E07A5F;fontColor=#393C56;" parent="1" vertex="1">
          <mxGeometry x="750" y="50" width="70" height="30" as="geometry" />
        </mxCell>
        <mxCell id="bJhiyATxaRy-9W0PiRau-24" value="Ca_id" style="ellipse;whiteSpace=wrap;html=1;labelBackgroundColor=none;fillColor=#F2CC8F;strokeColor=#E07A5F;fontColor=#393C56;" parent="1" vertex="1">
          <mxGeometry x="755" y="10" width="70" height="30" as="geometry" />
        </mxCell>
        <mxCell id="bJhiyATxaRy-9W0PiRau-25" value="" style="endArrow=none;html=1;rounded=0;entryX=0;entryY=0.5;entryDx=0;entryDy=0;exitX=1;exitY=0;exitDx=0;exitDy=0;labelBackgroundColor=none;strokeColor=#E07A5F;fontColor=default;" parent="1" source="u0et4MlqCL1tA1Q98yab-3" target="bJhiyATxaRy-9W0PiRau-24" edge="1">
          <mxGeometry width="50" height="50" relative="1" as="geometry">
            <mxPoint x="670" y="20" as="sourcePoint" />
            <mxPoint x="710" y="-20" as="targetPoint" />
          </mxGeometry>
        </mxCell>
        <mxCell id="bJhiyATxaRy-9W0PiRau-26" value="" style="endArrow=none;html=1;rounded=0;entryX=0;entryY=0.5;entryDx=0;entryDy=0;exitX=1;exitY=1;exitDx=0;exitDy=0;labelBackgroundColor=none;strokeColor=#E07A5F;fontColor=default;" parent="1" source="u0et4MlqCL1tA1Q98yab-3" target="bJhiyATxaRy-9W0PiRau-22" edge="1">
          <mxGeometry width="50" height="50" relative="1" as="geometry">
            <mxPoint x="660" y="140" as="sourcePoint" />
            <mxPoint x="710" y="90" as="targetPoint" />
          </mxGeometry>
        </mxCell>
        <mxCell id="bJhiyATxaRy-9W0PiRau-27" value="" style="endArrow=none;html=1;rounded=0;entryX=0;entryY=0.5;entryDx=0;entryDy=0;exitX=1;exitY=0.5;exitDx=0;exitDy=0;labelBackgroundColor=none;strokeColor=#E07A5F;fontColor=default;" parent="1" source="u0et4MlqCL1tA1Q98yab-3" target="bJhiyATxaRy-9W0PiRau-23" edge="1">
          <mxGeometry width="50" height="50" relative="1" as="geometry">
            <mxPoint x="680" y="80" as="sourcePoint" />
            <mxPoint x="730" y="30" as="targetPoint" />
          </mxGeometry>
        </mxCell>
        <mxCell id="bJhiyATxaRy-9W0PiRau-28" value="S_id" style="ellipse;whiteSpace=wrap;html=1;labelBackgroundColor=none;fillColor=#F2CC8F;strokeColor=#E07A5F;fontColor=#393C56;" parent="1" vertex="1">
          <mxGeometry x="207.5" y="460" width="70" height="30" as="geometry" />
        </mxCell>
        <mxCell id="bJhiyATxaRy-9W0PiRau-29" value="Img1,2,3" style="ellipse;whiteSpace=wrap;html=1;labelBackgroundColor=none;fillColor=#F2CC8F;strokeColor=#E07A5F;fontColor=#393C56;" parent="1" vertex="1">
          <mxGeometry x="670" y="370" width="70" height="30" as="geometry" />
        </mxCell>
        <mxCell id="bJhiyATxaRy-9W0PiRau-30" value="P_price" style="ellipse;whiteSpace=wrap;html=1;labelBackgroundColor=none;fillColor=#F2CC8F;strokeColor=#E07A5F;fontColor=#393C56;" parent="1" vertex="1">
          <mxGeometry x="780" y="240" width="70" height="30" as="geometry" />
        </mxCell>
        <mxCell id="bJhiyATxaRy-9W0PiRau-32" value="P_name" style="ellipse;whiteSpace=wrap;html=1;labelBackgroundColor=none;fillColor=#F2CC8F;strokeColor=#E07A5F;fontColor=#393C56;" parent="1" vertex="1">
          <mxGeometry x="780" y="205" width="70" height="30" as="geometry" />
        </mxCell>
        <mxCell id="bJhiyATxaRy-9W0PiRau-33" value="P-id" style="ellipse;whiteSpace=wrap;html=1;labelBackgroundColor=none;fillColor=#F2CC8F;strokeColor=#E07A5F;fontColor=#393C56;" parent="1" vertex="1">
          <mxGeometry x="780" y="165" width="70" height="30" as="geometry" />
        </mxCell>
        <mxCell id="bJhiyATxaRy-9W0PiRau-35" value="" style="endArrow=none;html=1;rounded=0;entryX=1;entryY=1;entryDx=0;entryDy=0;exitX=0.5;exitY=0;exitDx=0;exitDy=0;labelBackgroundColor=none;strokeColor=#E07A5F;fontColor=default;" parent="1" source="bJhiyATxaRy-9W0PiRau-29" target="u0et4MlqCL1tA1Q98yab-6" edge="1">
          <mxGeometry width="50" height="50" relative="1" as="geometry">
            <mxPoint x="430" y="80" as="sourcePoint" />
            <mxPoint x="480" y="30" as="targetPoint" />
          </mxGeometry>
        </mxCell>
        <mxCell id="bJhiyATxaRy-9W0PiRau-36" value="" style="endArrow=none;html=1;rounded=0;entryX=0;entryY=0.5;entryDx=0;entryDy=0;exitX=1;exitY=0;exitDx=0;exitDy=0;labelBackgroundColor=none;strokeColor=#E07A5F;fontColor=default;" parent="1" source="u0et4MlqCL1tA1Q98yab-6" target="bJhiyATxaRy-9W0PiRau-33" edge="1">
          <mxGeometry width="50" height="50" relative="1" as="geometry">
            <mxPoint x="660" y="320" as="sourcePoint" />
            <mxPoint x="710" y="270" as="targetPoint" />
          </mxGeometry>
        </mxCell>
        <mxCell id="bJhiyATxaRy-9W0PiRau-37" value="" style="endArrow=none;html=1;rounded=0;entryX=0;entryY=0.5;entryDx=0;entryDy=0;exitX=1;exitY=0.5;exitDx=0;exitDy=0;labelBackgroundColor=none;strokeColor=#E07A5F;fontColor=default;" parent="1" source="u0et4MlqCL1tA1Q98yab-6" target="bJhiyATxaRy-9W0PiRau-32" edge="1">
          <mxGeometry width="50" height="50" relative="1" as="geometry">
            <mxPoint x="670" y="340" as="sourcePoint" />
            <mxPoint x="720" y="290" as="targetPoint" />
          </mxGeometry>
        </mxCell>
        <mxCell id="bJhiyATxaRy-9W0PiRau-38" value="" style="endArrow=none;html=1;rounded=0;entryX=0;entryY=0.5;entryDx=0;entryDy=0;exitX=1;exitY=1;exitDx=0;exitDy=0;labelBackgroundColor=none;strokeColor=#E07A5F;fontColor=default;" parent="1" source="u0et4MlqCL1tA1Q98yab-6" target="bJhiyATxaRy-9W0PiRau-30" edge="1">
          <mxGeometry width="50" height="50" relative="1" as="geometry">
            <mxPoint x="670" y="330" as="sourcePoint" />
            <mxPoint x="720" y="280" as="targetPoint" />
          </mxGeometry>
        </mxCell>
        <mxCell id="bJhiyATxaRy-9W0PiRau-39" value="S_password" style="ellipse;whiteSpace=wrap;html=1;labelBackgroundColor=none;fillColor=#F2CC8F;strokeColor=#E07A5F;fontColor=#393C56;" parent="1" vertex="1">
          <mxGeometry x="180" y="570" width="70" height="30" as="geometry" />
        </mxCell>
        <mxCell id="bJhiyATxaRy-9W0PiRau-40" value="S_Title" style="ellipse;whiteSpace=wrap;html=1;labelBackgroundColor=none;fillColor=#F2CC8F;strokeColor=#E07A5F;fontColor=#393C56;" parent="1" vertex="1">
          <mxGeometry x="167.5" y="535" width="70" height="30" as="geometry" />
        </mxCell>
        <mxCell id="bJhiyATxaRy-9W0PiRau-41" value="S_name" style="ellipse;whiteSpace=wrap;html=1;labelBackgroundColor=none;fillColor=#F2CC8F;strokeColor=#E07A5F;fontColor=#393C56;" parent="1" vertex="1">
          <mxGeometry x="167.5" y="500" width="70" height="30" as="geometry" />
        </mxCell>
        <mxCell id="bJhiyATxaRy-9W0PiRau-43" value="P_quantity" style="ellipse;whiteSpace=wrap;html=1;labelBackgroundColor=none;fillColor=#F2CC8F;strokeColor=#E07A5F;fontColor=#393C56;" parent="1" vertex="1">
          <mxGeometry x="780" y="280" width="70" height="30" as="geometry" />
        </mxCell>
        <mxCell id="bJhiyATxaRy-9W0PiRau-44" value="" style="endArrow=none;html=1;rounded=0;entryX=1;entryY=1;entryDx=0;entryDy=0;exitX=0;exitY=0.5;exitDx=0;exitDy=0;labelBackgroundColor=none;strokeColor=#E07A5F;fontColor=default;" parent="1" source="bJhiyATxaRy-9W0PiRau-43" target="u0et4MlqCL1tA1Q98yab-6" edge="1">
          <mxGeometry width="50" height="50" relative="1" as="geometry">
            <mxPoint x="670" y="360" as="sourcePoint" />
            <mxPoint x="720" y="310" as="targetPoint" />
          </mxGeometry>
        </mxCell>
        <mxCell id="bJhiyATxaRy-9W0PiRau-45" value="C_id" style="ellipse;whiteSpace=wrap;html=1;labelBackgroundColor=none;fillColor=#F2CC8F;strokeColor=#E07A5F;fontColor=#393C56;" parent="1" vertex="1">
          <mxGeometry x="1.25" y="770" width="70" height="30" as="geometry" />
        </mxCell>
        <mxCell id="bJhiyATxaRy-9W0PiRau-46" value="C_contact" style="ellipse;whiteSpace=wrap;html=1;labelBackgroundColor=none;fillColor=#F2CC8F;strokeColor=#E07A5F;fontColor=#393C56;" parent="1" vertex="1">
          <mxGeometry x="770" y="560" width="70" height="30" as="geometry" />
        </mxCell>
        <mxCell id="bJhiyATxaRy-9W0PiRau-47" value="C_email" style="ellipse;whiteSpace=wrap;html=1;labelBackgroundColor=none;fillColor=#F2CC8F;strokeColor=#E07A5F;fontColor=#393C56;" parent="1" vertex="1">
          <mxGeometry x="770" y="520" width="70" height="30" as="geometry" />
        </mxCell>
        <mxCell id="bJhiyATxaRy-9W0PiRau-48" value="C_name" style="ellipse;whiteSpace=wrap;html=1;labelBackgroundColor=none;fillColor=#F2CC8F;strokeColor=#E07A5F;fontColor=#393C56;" parent="1" vertex="1">
          <mxGeometry x="770" y="480" width="70" height="30" as="geometry" />
        </mxCell>
        <mxCell id="bJhiyATxaRy-9W0PiRau-49" value="C_password" style="ellipse;whiteSpace=wrap;html=1;labelBackgroundColor=none;fillColor=#F2CC8F;strokeColor=#E07A5F;fontColor=#393C56;" parent="1" vertex="1">
          <mxGeometry x="770" y="440" width="70" height="30" as="geometry" />
        </mxCell>
        <mxCell id="bJhiyATxaRy-9W0PiRau-50" value="C_id" style="ellipse;whiteSpace=wrap;html=1;labelBackgroundColor=none;fillColor=#F2CC8F;strokeColor=#E07A5F;fontColor=#393C56;" parent="1" vertex="1">
          <mxGeometry x="770" y="400" width="70" height="30" as="geometry" />
        </mxCell>
        <mxCell id="bJhiyATxaRy-9W0PiRau-52" value="" style="endArrow=none;html=1;rounded=0;entryX=0;entryY=1;entryDx=0;entryDy=0;labelBackgroundColor=none;strokeColor=#E07A5F;fontColor=default;" parent="1" source="bJhiyATxaRy-9W0PiRau-28" target="u0et4MlqCL1tA1Q98yab-8" edge="1">
          <mxGeometry width="50" height="50" relative="1" as="geometry">
            <mxPoint x="226.25" y="395" as="sourcePoint" />
            <mxPoint x="296.96067811865476" y="345" as="targetPoint" />
          </mxGeometry>
        </mxCell>
        <mxCell id="bJhiyATxaRy-9W0PiRau-53" value="" style="endArrow=none;html=1;rounded=0;entryX=0;entryY=1;entryDx=0;entryDy=0;exitX=1;exitY=0.5;exitDx=0;exitDy=0;labelBackgroundColor=none;strokeColor=#E07A5F;fontColor=default;" parent="1" source="bJhiyATxaRy-9W0PiRau-41" target="u0et4MlqCL1tA1Q98yab-8" edge="1">
          <mxGeometry width="50" height="50" relative="1" as="geometry">
            <mxPoint x="250" y="400" as="sourcePoint" />
            <mxPoint x="300" y="350" as="targetPoint" />
          </mxGeometry>
        </mxCell>
        <mxCell id="bJhiyATxaRy-9W0PiRau-54" value="" style="endArrow=none;html=1;rounded=0;exitX=1;exitY=0.5;exitDx=0;exitDy=0;entryX=0.25;entryY=1;entryDx=0;entryDy=0;labelBackgroundColor=none;strokeColor=#E07A5F;fontColor=default;" parent="1" source="bJhiyATxaRy-9W0PiRau-40" target="u0et4MlqCL1tA1Q98yab-8" edge="1">
          <mxGeometry width="50" height="50" relative="1" as="geometry">
            <mxPoint x="260" y="410" as="sourcePoint" />
            <mxPoint x="310" y="360" as="targetPoint" />
          </mxGeometry>
        </mxCell>
        <mxCell id="bJhiyATxaRy-9W0PiRau-55" value="" style="endArrow=none;html=1;rounded=0;entryX=0.25;entryY=1;entryDx=0;entryDy=0;exitX=1;exitY=0;exitDx=0;exitDy=0;labelBackgroundColor=none;strokeColor=#E07A5F;fontColor=default;" parent="1" source="bJhiyATxaRy-9W0PiRau-39" target="u0et4MlqCL1tA1Q98yab-8" edge="1">
          <mxGeometry width="50" height="50" relative="1" as="geometry">
            <mxPoint x="470" y="460" as="sourcePoint" />
            <mxPoint x="520" y="410" as="targetPoint" />
          </mxGeometry>
        </mxCell>
        <mxCell id="bJhiyATxaRy-9W0PiRau-56" value="" style="endArrow=none;html=1;rounded=0;entryX=0;entryY=0.5;entryDx=0;entryDy=0;exitX=1;exitY=0;exitDx=0;exitDy=0;labelBackgroundColor=none;strokeColor=#E07A5F;fontColor=default;" parent="1" source="u0et4MlqCL1tA1Q98yab-7" target="bJhiyATxaRy-9W0PiRau-50" edge="1">
          <mxGeometry width="50" height="50" relative="1" as="geometry">
            <mxPoint x="650" y="340" as="sourcePoint" />
            <mxPoint x="700" y="290" as="targetPoint" />
          </mxGeometry>
        </mxCell>
        <mxCell id="bJhiyATxaRy-9W0PiRau-57" value="" style="endArrow=none;html=1;rounded=0;entryX=0;entryY=0.5;entryDx=0;entryDy=0;exitX=1;exitY=0.25;exitDx=0;exitDy=0;labelBackgroundColor=none;strokeColor=#E07A5F;fontColor=default;" parent="1" source="u0et4MlqCL1tA1Q98yab-7" target="bJhiyATxaRy-9W0PiRau-49" edge="1">
          <mxGeometry width="50" height="50" relative="1" as="geometry">
            <mxPoint x="650" y="470" as="sourcePoint" />
            <mxPoint x="700" y="420" as="targetPoint" />
          </mxGeometry>
        </mxCell>
        <mxCell id="bJhiyATxaRy-9W0PiRau-58" value="" style="endArrow=none;html=1;rounded=0;entryX=0;entryY=0.5;entryDx=0;entryDy=0;exitX=1;exitY=0.5;exitDx=0;exitDy=0;labelBackgroundColor=none;strokeColor=#E07A5F;fontColor=default;" parent="1" source="u0et4MlqCL1tA1Q98yab-7" target="bJhiyATxaRy-9W0PiRau-48" edge="1">
          <mxGeometry width="50" height="50" relative="1" as="geometry">
            <mxPoint x="660" y="470" as="sourcePoint" />
            <mxPoint x="710" y="420" as="targetPoint" />
          </mxGeometry>
        </mxCell>
        <mxCell id="bJhiyATxaRy-9W0PiRau-59" value="" style="endArrow=none;html=1;rounded=0;entryX=0;entryY=0.5;entryDx=0;entryDy=0;exitX=1;exitY=1;exitDx=0;exitDy=0;labelBackgroundColor=none;strokeColor=#E07A5F;fontColor=default;" parent="1" source="u0et4MlqCL1tA1Q98yab-7" target="bJhiyATxaRy-9W0PiRau-47" edge="1">
          <mxGeometry width="50" height="50" relative="1" as="geometry">
            <mxPoint x="650" y="500" as="sourcePoint" />
            <mxPoint x="700" y="450" as="targetPoint" />
          </mxGeometry>
        </mxCell>
        <mxCell id="bJhiyATxaRy-9W0PiRau-60" value="" style="endArrow=none;html=1;rounded=0;entryX=0;entryY=0.5;entryDx=0;entryDy=0;exitX=1;exitY=1;exitDx=0;exitDy=0;labelBackgroundColor=none;strokeColor=#E07A5F;fontColor=default;" parent="1" source="u0et4MlqCL1tA1Q98yab-7" target="bJhiyATxaRy-9W0PiRau-46" edge="1">
          <mxGeometry width="50" height="50" relative="1" as="geometry">
            <mxPoint x="650" y="520" as="sourcePoint" />
            <mxPoint x="700" y="470" as="targetPoint" />
          </mxGeometry>
        </mxCell>
        <mxCell id="bJhiyATxaRy-9W0PiRau-62" value="O_name" style="ellipse;whiteSpace=wrap;html=1;labelBackgroundColor=none;fillColor=#F2CC8F;strokeColor=#E07A5F;fontColor=#393C56;" parent="1" vertex="1">
          <mxGeometry x="10" y="610" width="70" height="30" as="geometry" />
        </mxCell>
        <mxCell id="bJhiyATxaRy-9W0PiRau-63" value="P_name" style="ellipse;whiteSpace=wrap;html=1;labelBackgroundColor=none;fillColor=#F2CC8F;strokeColor=#E07A5F;fontColor=#393C56;" parent="1" vertex="1">
          <mxGeometry x="5" y="850" width="70" height="30" as="geometry" />
        </mxCell>
        <mxCell id="bJhiyATxaRy-9W0PiRau-65" value="O_id" style="ellipse;whiteSpace=wrap;html=1;labelBackgroundColor=none;fillColor=#F2CC8F;strokeColor=#E07A5F;fontColor=#393C56;" parent="1" vertex="1">
          <mxGeometry x="7.5" y="570" width="70" height="30" as="geometry" />
        </mxCell>
        <mxCell id="bJhiyATxaRy-9W0PiRau-67" value="" style="endArrow=none;html=1;rounded=0;entryX=0;entryY=0.5;entryDx=0;entryDy=0;exitX=1;exitY=1;exitDx=0;exitDy=0;labelBackgroundColor=none;strokeColor=#E07A5F;fontColor=default;" parent="1" source="u0et4MlqCL1tA1Q98yab-7" target="bJhiyATxaRy-9W0PiRau-21" edge="1">
          <mxGeometry width="50" height="50" relative="1" as="geometry">
            <mxPoint x="580" y="360" as="sourcePoint" />
            <mxPoint x="630" y="310" as="targetPoint" />
          </mxGeometry>
        </mxCell>
        <mxCell id="bJhiyATxaRy-9W0PiRau-68" value="O_date" style="ellipse;whiteSpace=wrap;html=1;labelBackgroundColor=none;fillColor=#F2CC8F;strokeColor=#E07A5F;fontColor=#393C56;" parent="1" vertex="1">
          <mxGeometry x="1.25" y="690" width="70" height="30" as="geometry" />
        </mxCell>
        <mxCell id="bJhiyATxaRy-9W0PiRau-69" value="P_id" style="ellipse;whiteSpace=wrap;html=1;labelBackgroundColor=none;fillColor=#F2CC8F;strokeColor=#E07A5F;fontColor=#393C56;" parent="1" vertex="1">
          <mxGeometry x="500" y="1070" width="70" height="30" as="geometry" />
        </mxCell>
        <mxCell id="bJhiyATxaRy-9W0PiRau-70" value="O_number" style="ellipse;whiteSpace=wrap;html=1;labelBackgroundColor=none;fillColor=#F2CC8F;strokeColor=#E07A5F;fontColor=#393C56;" parent="1" vertex="1">
          <mxGeometry x="5" y="730" width="70" height="30" as="geometry" />
        </mxCell>
        <mxCell id="bJhiyATxaRy-9W0PiRau-71" value="P_id" style="ellipse;whiteSpace=wrap;html=1;labelBackgroundColor=none;fillColor=#F2CC8F;strokeColor=#E07A5F;fontColor=#393C56;" parent="1" vertex="1">
          <mxGeometry x="5" y="810" width="70" height="30" as="geometry" />
        </mxCell>
        <mxCell id="bJhiyATxaRy-9W0PiRau-73" value="O_id" style="ellipse;whiteSpace=wrap;html=1;labelBackgroundColor=none;fillColor=#F2CC8F;strokeColor=#E07A5F;fontColor=#393C56;" parent="1" vertex="1">
          <mxGeometry x="780" y="760" width="70" height="30" as="geometry" />
        </mxCell>
        <mxCell id="bJhiyATxaRy-9W0PiRau-74" value="O_id" style="ellipse;whiteSpace=wrap;html=1;labelBackgroundColor=none;fillColor=#F2CC8F;strokeColor=#E07A5F;fontColor=#393C56;" parent="1" vertex="1">
          <mxGeometry x="21.25" y="1020" width="70" height="30" as="geometry" />
        </mxCell>
        <mxCell id="bJhiyATxaRy-9W0PiRau-76" value="O_price" style="ellipse;whiteSpace=wrap;html=1;labelBackgroundColor=none;fillColor=#F2CC8F;strokeColor=#E07A5F;fontColor=#393C56;" parent="1" vertex="1">
          <mxGeometry x="55" y="1050" width="70" height="30" as="geometry" />
        </mxCell>
        <mxCell id="bJhiyATxaRy-9W0PiRau-78" value="P_Desc" style="ellipse;whiteSpace=wrap;html=1;labelBackgroundColor=none;fillColor=#F2CC8F;strokeColor=#E07A5F;fontColor=#393C56;" parent="1" vertex="1">
          <mxGeometry x="770" y="320" width="70" height="30" as="geometry" />
        </mxCell>
        <mxCell id="bJhiyATxaRy-9W0PiRau-79" value="C_id" style="ellipse;whiteSpace=wrap;html=1;labelBackgroundColor=none;fillColor=#F2CC8F;strokeColor=#E07A5F;fontColor=#393C56;" parent="1" vertex="1">
          <mxGeometry x="330" y="1040" width="70" height="30" as="geometry" />
        </mxCell>
        <mxCell id="bJhiyATxaRy-9W0PiRau-80" value="" style="endArrow=none;html=1;rounded=0;exitX=0.5;exitY=0;exitDx=0;exitDy=0;entryX=1;entryY=1;entryDx=0;entryDy=0;labelBackgroundColor=none;strokeColor=#E07A5F;fontColor=default;" parent="1" source="bJhiyATxaRy-9W0PiRau-78" target="u0et4MlqCL1tA1Q98yab-6" edge="1">
          <mxGeometry width="50" height="50" relative="1" as="geometry">
            <mxPoint x="930" y="310" as="sourcePoint" />
            <mxPoint x="980" y="260" as="targetPoint" />
          </mxGeometry>
        </mxCell>
        <mxCell id="bJhiyATxaRy-9W0PiRau-81" value="O_name" style="ellipse;whiteSpace=wrap;html=1;labelBackgroundColor=none;fillColor=#F2CC8F;strokeColor=#E07A5F;fontColor=#393C56;" parent="1" vertex="1">
          <mxGeometry x="400" y="1030" width="70" height="30" as="geometry" />
        </mxCell>
        <mxCell id="bJhiyATxaRy-9W0PiRau-82" value="O_total" style="ellipse;whiteSpace=wrap;html=1;labelBackgroundColor=none;fillColor=#F2CC8F;strokeColor=#E07A5F;fontColor=#393C56;" parent="1" vertex="1">
          <mxGeometry x="430" y="1060" width="70" height="30" as="geometry" />
        </mxCell>
        <mxCell id="bJhiyATxaRy-9W0PiRau-83" value="P_name" style="ellipse;whiteSpace=wrap;html=1;labelBackgroundColor=none;fillColor=#F2CC8F;strokeColor=#E07A5F;fontColor=#393C56;" parent="1" vertex="1">
          <mxGeometry x="572.5" y="1070" width="70" height="30" as="geometry" />
        </mxCell>
        <mxCell id="bJhiyATxaRy-9W0PiRau-84" value="P_price" style="ellipse;whiteSpace=wrap;html=1;labelBackgroundColor=none;fillColor=#F2CC8F;strokeColor=#E07A5F;fontColor=#393C56;" parent="1" vertex="1">
          <mxGeometry x="647.5" y="1070" width="70" height="30" as="geometry" />
        </mxCell>
        <mxCell id="bJhiyATxaRy-9W0PiRau-85" value="O_id" style="ellipse;whiteSpace=wrap;html=1;labelBackgroundColor=none;fillColor=#F2CC8F;strokeColor=#E07A5F;fontColor=#393C56;" parent="1" vertex="1">
          <mxGeometry x="380" y="990" width="70" height="30" as="geometry" />
        </mxCell>
        <mxCell id="bJhiyATxaRy-9W0PiRau-86" value="" style="endArrow=none;html=1;rounded=0;entryX=0;entryY=1;entryDx=0;entryDy=0;exitX=1;exitY=0;exitDx=0;exitDy=0;labelBackgroundColor=none;strokeColor=#E07A5F;fontColor=default;" parent="1" source="bJhiyATxaRy-9W0PiRau-74" target="u0et4MlqCL1tA1Q98yab-5" edge="1">
          <mxGeometry width="50" height="50" relative="1" as="geometry">
            <mxPoint x="260" y="840" as="sourcePoint" />
            <mxPoint x="310" y="790" as="targetPoint" />
          </mxGeometry>
        </mxCell>
        <mxCell id="bJhiyATxaRy-9W0PiRau-87" value="" style="endArrow=none;html=1;rounded=0;entryX=0.75;entryY=1;entryDx=0;entryDy=0;exitX=0.5;exitY=0;exitDx=0;exitDy=0;labelBackgroundColor=none;strokeColor=#E07A5F;fontColor=default;" parent="1" source="bJhiyATxaRy-9W0PiRau-79" target="u0et4MlqCL1tA1Q98yab-5" edge="1">
          <mxGeometry width="50" height="50" relative="1" as="geometry">
            <mxPoint x="390" y="890" as="sourcePoint" />
            <mxPoint x="440" y="840" as="targetPoint" />
          </mxGeometry>
        </mxCell>
        <mxCell id="bJhiyATxaRy-9W0PiRau-90" value="" style="endArrow=none;html=1;rounded=0;entryX=0;entryY=1;entryDx=0;entryDy=0;exitX=0.5;exitY=0;exitDx=0;exitDy=0;labelBackgroundColor=none;strokeColor=#E07A5F;fontColor=default;" parent="1" source="bJhiyATxaRy-9W0PiRau-85" target="u0et4MlqCL1tA1Q98yab-16" edge="1">
          <mxGeometry width="50" height="50" relative="1" as="geometry">
            <mxPoint x="470" y="900" as="sourcePoint" />
            <mxPoint x="520" y="850" as="targetPoint" />
          </mxGeometry>
        </mxCell>
        <mxCell id="bJhiyATxaRy-9W0PiRau-91" value="" style="endArrow=none;html=1;rounded=0;entryX=0;entryY=0;entryDx=0;entryDy=0;exitX=1;exitY=1;exitDx=0;exitDy=0;labelBackgroundColor=none;strokeColor=#E07A5F;fontColor=default;" parent="1" source="u0et4MlqCL1tA1Q98yab-16" target="bJhiyATxaRy-9W0PiRau-84" edge="1">
          <mxGeometry width="50" height="50" relative="1" as="geometry">
            <mxPoint x="650" y="840" as="sourcePoint" />
            <mxPoint x="700" y="790" as="targetPoint" />
          </mxGeometry>
        </mxCell>
        <mxCell id="bJhiyATxaRy-9W0PiRau-92" value="" style="endArrow=none;html=1;rounded=0;exitX=1;exitY=0.5;exitDx=0;exitDy=0;labelBackgroundColor=none;strokeColor=#E07A5F;fontColor=default;entryX=0;entryY=0.25;entryDx=0;entryDy=0;" parent="1" source="bJhiyATxaRy-9W0PiRau-70" target="u0et4MlqCL1tA1Q98yab-15" edge="1">
          <mxGeometry width="50" height="50" relative="1" as="geometry">
            <mxPoint x="260" y="740" as="sourcePoint" />
            <mxPoint x="330" y="760" as="targetPoint" />
          </mxGeometry>
        </mxCell>
        <mxCell id="bJhiyATxaRy-9W0PiRau-94" value="" style="endArrow=none;html=1;rounded=0;entryX=0;entryY=0;entryDx=0;entryDy=0;exitX=1;exitY=0.5;exitDx=0;exitDy=0;labelBackgroundColor=none;strokeColor=#E07A5F;fontColor=default;" parent="1" source="bJhiyATxaRy-9W0PiRau-65" target="u0et4MlqCL1tA1Q98yab-15" edge="1">
          <mxGeometry width="50" height="50" relative="1" as="geometry">
            <mxPoint x="200" y="550" as="sourcePoint" />
            <mxPoint x="250" y="500" as="targetPoint" />
          </mxGeometry>
        </mxCell>
        <mxCell id="bJhiyATxaRy-9W0PiRau-95" value="C_id" style="ellipse;whiteSpace=wrap;html=1;labelBackgroundColor=none;fillColor=#F2CC8F;strokeColor=#E07A5F;fontColor=#393C56;" parent="1" vertex="1">
          <mxGeometry x="780" y="820" width="70" height="30" as="geometry" />
        </mxCell>
        <mxCell id="bJhiyATxaRy-9W0PiRau-96" value="B_payment" style="ellipse;whiteSpace=wrap;html=1;labelBackgroundColor=none;fillColor=#F2CC8F;strokeColor=#E07A5F;fontColor=#393C56;" parent="1" vertex="1">
          <mxGeometry x="780" y="700" width="70" height="30" as="geometry" />
        </mxCell>
        <mxCell id="bJhiyATxaRy-9W0PiRau-98" value="B_date" style="ellipse;whiteSpace=wrap;html=1;labelBackgroundColor=none;fillColor=#F2CC8F;strokeColor=#E07A5F;fontColor=#393C56;" parent="1" vertex="1">
          <mxGeometry x="755" y="670" width="70" height="30" as="geometry" />
        </mxCell>
        <mxCell id="bJhiyATxaRy-9W0PiRau-99" value="B_id" style="ellipse;whiteSpace=wrap;html=1;labelBackgroundColor=none;fillColor=#F2CC8F;strokeColor=#E07A5F;fontColor=#393C56;" parent="1" vertex="1">
          <mxGeometry x="680" y="670" width="70" height="30" as="geometry" />
        </mxCell>
        <mxCell id="bJhiyATxaRy-9W0PiRau-100" value="" style="endArrow=none;html=1;rounded=0;entryX=0;entryY=0.5;entryDx=0;entryDy=0;exitX=1;exitY=0;exitDx=0;exitDy=0;labelBackgroundColor=none;strokeColor=#E07A5F;fontColor=default;" parent="1" source="u0et4MlqCL1tA1Q98yab-18" target="bJhiyATxaRy-9W0PiRau-99" edge="1">
          <mxGeometry width="50" height="50" relative="1" as="geometry">
            <mxPoint x="690" y="590" as="sourcePoint" />
            <mxPoint x="740" y="540" as="targetPoint" />
          </mxGeometry>
        </mxCell>
        <mxCell id="bJhiyATxaRy-9W0PiRau-101" value="" style="endArrow=none;html=1;rounded=0;entryX=0;entryY=0.5;entryDx=0;entryDy=0;exitX=1;exitY=0.25;exitDx=0;exitDy=0;labelBackgroundColor=none;strokeColor=#E07A5F;fontColor=default;" parent="1" source="u0et4MlqCL1tA1Q98yab-18" target="bJhiyATxaRy-9W0PiRau-98" edge="1">
          <mxGeometry width="50" height="50" relative="1" as="geometry">
            <mxPoint x="730" y="630" as="sourcePoint" />
            <mxPoint x="760" y="600" as="targetPoint" />
          </mxGeometry>
        </mxCell>
        <mxCell id="bJhiyATxaRy-9W0PiRau-102" value="" style="endArrow=none;html=1;rounded=0;exitX=0;exitY=0.5;exitDx=0;exitDy=0;entryX=1;entryY=0.25;entryDx=0;entryDy=0;labelBackgroundColor=none;strokeColor=#E07A5F;fontColor=default;" parent="1" source="5AHEL27qC83Q_nuqauWv-104" target="u0et4MlqCL1tA1Q98yab-18" edge="1">
          <mxGeometry width="50" height="50" relative="1" as="geometry">
            <mxPoint x="680" y="720" as="sourcePoint" />
            <mxPoint x="730" y="680" as="targetPoint" />
          </mxGeometry>
        </mxCell>
        <mxCell id="bJhiyATxaRy-9W0PiRau-104" value="" style="endArrow=none;html=1;rounded=0;exitX=1;exitY=0.25;exitDx=0;exitDy=0;labelBackgroundColor=none;strokeColor=#E07A5F;fontColor=default;entryX=0;entryY=0.5;entryDx=0;entryDy=0;" parent="1" source="u0et4MlqCL1tA1Q98yab-18" target="bJhiyATxaRy-9W0PiRau-96" edge="1">
          <mxGeometry width="50" height="50" relative="1" as="geometry">
            <mxPoint x="750" y="650" as="sourcePoint" />
            <mxPoint x="860" y="760" as="targetPoint" />
          </mxGeometry>
        </mxCell>
        <mxCell id="bJhiyATxaRy-9W0PiRau-105" value="" style="endArrow=none;html=1;rounded=0;entryX=0;entryY=1;entryDx=0;entryDy=0;labelBackgroundColor=none;strokeColor=#E07A5F;fontColor=default;" parent="1" source="bJhiyATxaRy-9W0PiRau-16" target="u0et4MlqCL1tA1Q98yab-2" edge="1">
          <mxGeometry width="50" height="50" relative="1" as="geometry">
            <mxPoint x="181.25" y="200" as="sourcePoint" />
            <mxPoint x="201.25" y="180" as="targetPoint" />
          </mxGeometry>
        </mxCell>
        <mxCell id="bJhiyATxaRy-9W0PiRau-106" value="" style="endArrow=none;html=1;rounded=0;exitX=1;exitY=0.5;exitDx=0;exitDy=0;entryX=0.5;entryY=1;entryDx=0;entryDy=0;labelBackgroundColor=none;strokeColor=#E07A5F;fontColor=default;" parent="1" source="bJhiyATxaRy-9W0PiRau-13" target="u0et4MlqCL1tA1Q98yab-2" edge="1">
          <mxGeometry width="50" height="50" relative="1" as="geometry">
            <mxPoint x="177.5" y="165" as="sourcePoint" />
            <mxPoint x="197.5" y="145" as="targetPoint" />
          </mxGeometry>
        </mxCell>
        <mxCell id="bJhiyATxaRy-9W0PiRau-107" value="" style="endArrow=none;html=1;rounded=0;exitX=1;exitY=0;exitDx=0;exitDy=0;entryX=0.75;entryY=1;entryDx=0;entryDy=0;labelBackgroundColor=none;strokeColor=#E07A5F;fontColor=default;" parent="1" source="bJhiyATxaRy-9W0PiRau-15" target="u0et4MlqCL1tA1Q98yab-2" edge="1">
          <mxGeometry width="50" height="50" relative="1" as="geometry">
            <mxPoint x="250" y="250" as="sourcePoint" />
            <mxPoint x="300" y="200" as="targetPoint" />
          </mxGeometry>
        </mxCell>
        <mxCell id="bJhiyATxaRy-9W0PiRau-108" value="" style="endArrow=none;html=1;rounded=0;exitX=0;exitY=0;exitDx=0;exitDy=0;entryX=1;entryY=1;entryDx=0;entryDy=0;labelBackgroundColor=none;strokeColor=#E07A5F;fontColor=default;" parent="1" source="bJhiyATxaRy-9W0PiRau-14" target="u0et4MlqCL1tA1Q98yab-2" edge="1">
          <mxGeometry width="50" height="50" relative="1" as="geometry">
            <mxPoint x="290" y="250" as="sourcePoint" />
            <mxPoint x="340" y="200" as="targetPoint" />
          </mxGeometry>
        </mxCell>
        <mxCell id="OiRBczR4O4lUY1vveIPl-1" value="S_address" style="ellipse;whiteSpace=wrap;html=1;labelBackgroundColor=none;fillColor=#F2CC8F;strokeColor=#E07A5F;fontColor=#393C56;" parent="1" vertex="1">
          <mxGeometry x="190" y="610" width="70" height="30" as="geometry" />
        </mxCell>
        <mxCell id="OiRBczR4O4lUY1vveIPl-2" value="" style="endArrow=none;html=1;rounded=0;entryX=0.25;entryY=1;entryDx=0;entryDy=0;exitX=0.5;exitY=0;exitDx=0;exitDy=0;labelBackgroundColor=none;strokeColor=#E07A5F;fontColor=default;" parent="1" source="OiRBczR4O4lUY1vveIPl-1" target="u0et4MlqCL1tA1Q98yab-8" edge="1">
          <mxGeometry width="50" height="50" relative="1" as="geometry">
            <mxPoint x="300" y="450" as="sourcePoint" />
            <mxPoint x="350" y="400" as="targetPoint" />
          </mxGeometry>
        </mxCell>
        <mxCell id="o8G9ltuWO-srFIy9Uif7-1" value="" style="endArrow=none;html=1;rounded=0;entryX=0;entryY=0.5;entryDx=0;entryDy=0;exitX=1;exitY=0.25;exitDx=0;exitDy=0;labelBackgroundColor=none;strokeColor=#E07A5F;fontColor=default;" parent="1" source="u0et4MlqCL1tA1Q98yab-18" target="bJhiyATxaRy-9W0PiRau-73" edge="1">
          <mxGeometry width="50" height="50" relative="1" as="geometry">
            <mxPoint x="690" y="780" as="sourcePoint" />
            <mxPoint x="740" y="730" as="targetPoint" />
          </mxGeometry>
        </mxCell>
        <mxCell id="wBR08jJK3a8oUvMyQXg7-1" value="" style="endArrow=none;html=1;rounded=0;entryX=0;entryY=0.25;entryDx=0;entryDy=0;exitX=1;exitY=0.5;exitDx=0;exitDy=0;labelBackgroundColor=none;strokeColor=#E07A5F;fontColor=default;" parent="1" source="bJhiyATxaRy-9W0PiRau-63" target="u0et4MlqCL1tA1Q98yab-15" edge="1">
          <mxGeometry width="50" height="50" relative="1" as="geometry">
            <mxPoint x="190" y="610" as="sourcePoint" />
            <mxPoint x="240" y="560" as="targetPoint" />
          </mxGeometry>
        </mxCell>
        <mxCell id="BF9wA2yzW4ARnLRfrRw0-1" value="" style="endArrow=none;html=1;rounded=0;entryX=0;entryY=0.25;entryDx=0;entryDy=0;exitX=1;exitY=0.5;exitDx=0;exitDy=0;labelBackgroundColor=none;strokeColor=#E07A5F;fontColor=default;" parent="1" source="bJhiyATxaRy-9W0PiRau-62" target="u0et4MlqCL1tA1Q98yab-15" edge="1">
          <mxGeometry width="50" height="50" relative="1" as="geometry">
            <mxPoint x="190" y="640" as="sourcePoint" />
            <mxPoint x="240" y="590" as="targetPoint" />
          </mxGeometry>
        </mxCell>
        <mxCell id="BF9wA2yzW4ARnLRfrRw0-3" value="" style="endArrow=none;html=1;rounded=0;exitX=1;exitY=0.5;exitDx=0;exitDy=0;entryX=0;entryY=0.25;entryDx=0;entryDy=0;labelBackgroundColor=none;strokeColor=#E07A5F;fontColor=default;" parent="1" source="bJhiyATxaRy-9W0PiRau-68" target="u0et4MlqCL1tA1Q98yab-15" edge="1">
          <mxGeometry width="50" height="50" relative="1" as="geometry">
            <mxPoint x="250" y="680" as="sourcePoint" />
            <mxPoint x="300" y="630" as="targetPoint" />
          </mxGeometry>
        </mxCell>
        <mxCell id="BF9wA2yzW4ARnLRfrRw0-4" value="" style="endArrow=none;html=1;rounded=0;entryX=0;entryY=0.25;entryDx=0;entryDy=0;exitX=1;exitY=0;exitDx=0;exitDy=0;labelBackgroundColor=none;strokeColor=#E07A5F;fontColor=default;" parent="1" source="bJhiyATxaRy-9W0PiRau-71" target="u0et4MlqCL1tA1Q98yab-15" edge="1">
          <mxGeometry width="50" height="50" relative="1" as="geometry">
            <mxPoint x="210" y="680" as="sourcePoint" />
            <mxPoint x="260" y="630" as="targetPoint" />
          </mxGeometry>
        </mxCell>
        <mxCell id="BF9wA2yzW4ARnLRfrRw0-5" value="" style="endArrow=none;html=1;rounded=0;entryX=0;entryY=0.25;entryDx=0;entryDy=0;exitX=1;exitY=0.5;exitDx=0;exitDy=0;labelBackgroundColor=none;strokeColor=#E07A5F;fontColor=default;" parent="1" source="bJhiyATxaRy-9W0PiRau-45" target="u0et4MlqCL1tA1Q98yab-15" edge="1">
          <mxGeometry width="50" height="50" relative="1" as="geometry">
            <mxPoint x="200" y="710" as="sourcePoint" />
            <mxPoint x="250" y="660" as="targetPoint" />
          </mxGeometry>
        </mxCell>
        <mxCell id="BF9wA2yzW4ARnLRfrRw0-6" value="" style="endArrow=none;html=1;rounded=0;entryX=0.25;entryY=1;entryDx=0;entryDy=0;labelBackgroundColor=none;strokeColor=#E07A5F;fontColor=default;" parent="1" source="bJhiyATxaRy-9W0PiRau-76" target="u0et4MlqCL1tA1Q98yab-5" edge="1">
          <mxGeometry width="50" height="50" relative="1" as="geometry">
            <mxPoint x="300" y="850" as="sourcePoint" />
            <mxPoint x="350" y="800" as="targetPoint" />
          </mxGeometry>
        </mxCell>
        <mxCell id="BF9wA2yzW4ARnLRfrRw0-8" value="" style="endArrow=none;html=1;rounded=0;entryX=0.25;entryY=1;entryDx=0;entryDy=0;exitX=0.5;exitY=0;exitDx=0;exitDy=0;labelBackgroundColor=none;strokeColor=#E07A5F;fontColor=default;" parent="1" source="bJhiyATxaRy-9W0PiRau-81" target="u0et4MlqCL1tA1Q98yab-16" edge="1">
          <mxGeometry width="50" height="50" relative="1" as="geometry">
            <mxPoint x="570" y="900" as="sourcePoint" />
            <mxPoint x="620" y="850" as="targetPoint" />
          </mxGeometry>
        </mxCell>
        <mxCell id="BF9wA2yzW4ARnLRfrRw0-9" value="" style="endArrow=none;html=1;rounded=0;entryX=0.25;entryY=1;entryDx=0;entryDy=0;exitX=0.5;exitY=0;exitDx=0;exitDy=0;labelBackgroundColor=none;strokeColor=#E07A5F;fontColor=default;" parent="1" source="bJhiyATxaRy-9W0PiRau-82" target="u0et4MlqCL1tA1Q98yab-16" edge="1">
          <mxGeometry width="50" height="50" relative="1" as="geometry">
            <mxPoint x="560" y="910" as="sourcePoint" />
            <mxPoint x="610" y="860" as="targetPoint" />
          </mxGeometry>
        </mxCell>
        <mxCell id="BF9wA2yzW4ARnLRfrRw0-10" value="" style="endArrow=none;html=1;rounded=0;entryX=0.75;entryY=1;entryDx=0;entryDy=0;labelBackgroundColor=none;strokeColor=#E07A5F;fontColor=default;" parent="1" source="bJhiyATxaRy-9W0PiRau-83" target="u0et4MlqCL1tA1Q98yab-16" edge="1">
          <mxGeometry width="50" height="50" relative="1" as="geometry">
            <mxPoint x="600" y="880" as="sourcePoint" />
            <mxPoint x="650" y="830" as="targetPoint" />
          </mxGeometry>
        </mxCell>
        <mxCell id="BF9wA2yzW4ARnLRfrRw0-11" value="" style="endArrow=none;html=1;rounded=0;exitX=0.5;exitY=0;exitDx=0;exitDy=0;labelBackgroundColor=none;strokeColor=#E07A5F;fontColor=default;" parent="1" source="bJhiyATxaRy-9W0PiRau-69" target="u0et4MlqCL1tA1Q98yab-16" edge="1">
          <mxGeometry width="50" height="50" relative="1" as="geometry">
            <mxPoint x="630" y="910" as="sourcePoint" />
            <mxPoint x="680" y="860" as="targetPoint" />
          </mxGeometry>
        </mxCell>
        <mxCell id="5AHEL27qC83Q_nuqauWv-24" value="" style="endArrow=none;html=1;rounded=0;exitX=0.5;exitY=0;exitDx=0;exitDy=0;entryX=0.5;entryY=1;entryDx=0;entryDy=0;labelBackgroundColor=none;strokeColor=#E07A5F;fontColor=default;" parent="1" source="u0et4MlqCL1tA1Q98yab-9" target="u0et4MlqCL1tA1Q98yab-1" edge="1">
          <mxGeometry width="50" height="50" relative="1" as="geometry">
            <mxPoint x="370" y="170" as="sourcePoint" />
            <mxPoint x="340" y="110" as="targetPoint" />
          </mxGeometry>
        </mxCell>
        <mxCell id="5AHEL27qC83Q_nuqauWv-25" value="A_name" style="ellipse;whiteSpace=wrap;html=1;labelBackgroundColor=none;fillColor=#F2CC8F;strokeColor=#E07A5F;fontColor=#393C56;" parent="1" vertex="1">
          <mxGeometry x="5" y="60" width="70" height="30" as="geometry" />
        </mxCell>
        <mxCell id="5AHEL27qC83Q_nuqauWv-26" value="C_password" style="ellipse;whiteSpace=wrap;html=1;labelBackgroundColor=none;fillColor=#F2CC8F;strokeColor=#E07A5F;fontColor=#393C56;" parent="1" vertex="1">
          <mxGeometry x="442.5" y="40" width="70" height="30" as="geometry" />
        </mxCell>
        <mxCell id="5AHEL27qC83Q_nuqauWv-27" value="S_password" style="ellipse;whiteSpace=wrap;html=1;labelBackgroundColor=none;fillColor=#F2CC8F;strokeColor=#E07A5F;fontColor=#393C56;" parent="1" vertex="1">
          <mxGeometry x="222.5" y="30" width="70" height="30" as="geometry" />
        </mxCell>
        <mxCell id="5AHEL27qC83Q_nuqauWv-28" value="S_name" style="ellipse;whiteSpace=wrap;html=1;labelBackgroundColor=none;fillColor=#F2CC8F;strokeColor=#E07A5F;fontColor=#393C56;" parent="1" vertex="1">
          <mxGeometry x="292.5" y="90" width="70" height="30" as="geometry" />
        </mxCell>
        <mxCell id="5AHEL27qC83Q_nuqauWv-31" value="A_password" style="ellipse;whiteSpace=wrap;html=1;labelBackgroundColor=none;fillColor=#F2CC8F;strokeColor=#E07A5F;fontColor=#393C56;" parent="1" vertex="1">
          <mxGeometry x="132.5" y="10" width="70" height="30" as="geometry" />
        </mxCell>
        <mxCell id="5AHEL27qC83Q_nuqauWv-32" value="A_id" style="ellipse;whiteSpace=wrap;html=1;labelBackgroundColor=none;fillColor=#F2CC8F;strokeColor=#E07A5F;fontColor=#393C56;" parent="1" vertex="1">
          <mxGeometry x="55" y="10" width="70" height="30" as="geometry" />
        </mxCell>
        <mxCell id="5AHEL27qC83Q_nuqauWv-33" value="" style="endArrow=none;html=1;rounded=0;exitX=0;exitY=0.5;exitDx=0;exitDy=0;entryX=1;entryY=0;entryDx=0;entryDy=0;labelBackgroundColor=none;strokeColor=#E07A5F;fontColor=default;" parent="1" source="5AHEL27qC83Q_nuqauWv-31" target="u0et4MlqCL1tA1Q98yab-1" edge="1">
          <mxGeometry width="50" height="50" relative="1" as="geometry">
            <mxPoint x="420" y="90" as="sourcePoint" />
            <mxPoint x="392.5" y="110" as="targetPoint" />
          </mxGeometry>
        </mxCell>
        <mxCell id="5AHEL27qC83Q_nuqauWv-34" value="" style="endArrow=none;html=1;rounded=0;exitX=0.5;exitY=1;exitDx=0;exitDy=0;entryX=0.5;entryY=0;entryDx=0;entryDy=0;labelBackgroundColor=none;strokeColor=#E07A5F;fontColor=default;" parent="1" source="5AHEL27qC83Q_nuqauWv-32" target="u0et4MlqCL1tA1Q98yab-1" edge="1">
          <mxGeometry width="50" height="50" relative="1" as="geometry">
            <mxPoint x="210" y="140" as="sourcePoint" />
            <mxPoint x="313.75" y="110" as="targetPoint" />
          </mxGeometry>
        </mxCell>
        <mxCell id="5AHEL27qC83Q_nuqauWv-49" value="SellerLogin" style="rounded=0;whiteSpace=wrap;html=1;labelBackgroundColor=none;fillColor=#F2CC8F;strokeColor=#E07A5F;fontColor=#393C56;" parent="1" vertex="1">
          <mxGeometry x="215" y="150" width="105" height="40" as="geometry" />
        </mxCell>
        <mxCell id="5AHEL27qC83Q_nuqauWv-53" value="C_name" style="ellipse;whiteSpace=wrap;html=1;labelBackgroundColor=none;fillColor=#F2CC8F;strokeColor=#E07A5F;fontColor=#393C56;" parent="1" vertex="1">
          <mxGeometry x="497.5" y="90" width="70" height="30" as="geometry" />
        </mxCell>
        <mxCell id="5AHEL27qC83Q_nuqauWv-54" value="C_id" style="ellipse;whiteSpace=wrap;html=1;labelBackgroundColor=none;fillColor=#F2CC8F;strokeColor=#E07A5F;fontColor=#393C56;" parent="1" vertex="1">
          <mxGeometry x="372.5" y="90" width="70" height="30" as="geometry" />
        </mxCell>
        <mxCell id="5AHEL27qC83Q_nuqauWv-55" value="CustomerLogin" style="rounded=0;whiteSpace=wrap;html=1;labelBackgroundColor=none;fillColor=#F2CC8F;strokeColor=#E07A5F;fontColor=#393C56;" parent="1" vertex="1">
          <mxGeometry x="425" y="150" width="105" height="40" as="geometry" />
        </mxCell>
        <mxCell id="5AHEL27qC83Q_nuqauWv-59" value="" style="endArrow=none;html=1;rounded=0;strokeColor=#E07A5F;fontColor=#393C56;fillColor=#F2CC8F;exitX=0;exitY=0;exitDx=0;exitDy=0;entryX=0.5;entryY=1;entryDx=0;entryDy=0;" parent="1" source="u0et4MlqCL1tA1Q98yab-1" target="5AHEL27qC83Q_nuqauWv-25" edge="1">
          <mxGeometry width="50" height="50" relative="1" as="geometry">
            <mxPoint y="140" as="sourcePoint" />
            <mxPoint x="50" y="90" as="targetPoint" />
          </mxGeometry>
        </mxCell>
        <mxCell id="5AHEL27qC83Q_nuqauWv-60" value="" style="endArrow=none;html=1;rounded=0;strokeColor=#E07A5F;fontColor=#393C56;fillColor=#F2CC8F;exitX=0.5;exitY=0;exitDx=0;exitDy=0;entryX=0.5;entryY=1;entryDx=0;entryDy=0;" parent="1" source="5AHEL27qC83Q_nuqauWv-49" target="5AHEL27qC83Q_nuqauWv-27" edge="1">
          <mxGeometry width="50" height="50" relative="1" as="geometry">
            <mxPoint x="250" y="130" as="sourcePoint" />
            <mxPoint x="300" y="80" as="targetPoint" />
          </mxGeometry>
        </mxCell>
        <mxCell id="5AHEL27qC83Q_nuqauWv-61" value="" style="endArrow=none;html=1;rounded=0;strokeColor=#E07A5F;fontColor=#393C56;fillColor=#F2CC8F;entryX=1;entryY=1;entryDx=0;entryDy=0;exitX=0.25;exitY=0;exitDx=0;exitDy=0;" parent="1" source="5AHEL27qC83Q_nuqauWv-49" target="bJhiyATxaRy-9W0PiRau-12" edge="1">
          <mxGeometry width="50" height="50" relative="1" as="geometry">
            <mxPoint x="170" y="180" as="sourcePoint" />
            <mxPoint x="220" y="130" as="targetPoint" />
          </mxGeometry>
        </mxCell>
        <mxCell id="5AHEL27qC83Q_nuqauWv-62" value="" style="endArrow=none;html=1;rounded=0;strokeColor=#E07A5F;fontColor=#393C56;fillColor=#F2CC8F;entryX=0.5;entryY=1;entryDx=0;entryDy=0;exitX=1;exitY=0;exitDx=0;exitDy=0;" parent="1" source="5AHEL27qC83Q_nuqauWv-49" target="5AHEL27qC83Q_nuqauWv-28" edge="1">
          <mxGeometry width="50" height="50" relative="1" as="geometry">
            <mxPoint x="310" y="190" as="sourcePoint" />
            <mxPoint x="360" y="140" as="targetPoint" />
          </mxGeometry>
        </mxCell>
        <mxCell id="5AHEL27qC83Q_nuqauWv-63" value="" style="endArrow=none;html=1;rounded=0;strokeColor=#E07A5F;fontColor=#393C56;fillColor=#F2CC8F;entryX=0.5;entryY=1;entryDx=0;entryDy=0;exitX=0.5;exitY=0;exitDx=0;exitDy=0;" parent="1" source="5AHEL27qC83Q_nuqauWv-55" target="5AHEL27qC83Q_nuqauWv-26" edge="1">
          <mxGeometry width="50" height="50" relative="1" as="geometry">
            <mxPoint x="430" y="150" as="sourcePoint" />
            <mxPoint x="480" y="100" as="targetPoint" />
          </mxGeometry>
        </mxCell>
        <mxCell id="5AHEL27qC83Q_nuqauWv-64" value="" style="endArrow=none;html=1;rounded=0;strokeColor=#E07A5F;fontColor=#393C56;fillColor=#F2CC8F;entryX=0.5;entryY=1;entryDx=0;entryDy=0;exitX=0;exitY=0;exitDx=0;exitDy=0;" parent="1" source="5AHEL27qC83Q_nuqauWv-55" target="5AHEL27qC83Q_nuqauWv-54" edge="1">
          <mxGeometry width="50" height="50" relative="1" as="geometry">
            <mxPoint x="340" y="190" as="sourcePoint" />
            <mxPoint x="390" y="140" as="targetPoint" />
          </mxGeometry>
        </mxCell>
        <mxCell id="5AHEL27qC83Q_nuqauWv-65" value="" style="endArrow=none;html=1;rounded=0;strokeColor=#E07A5F;fontColor=#393C56;fillColor=#F2CC8F;entryX=0.5;entryY=1;entryDx=0;entryDy=0;exitX=1;exitY=0;exitDx=0;exitDy=0;" parent="1" source="5AHEL27qC83Q_nuqauWv-55" target="5AHEL27qC83Q_nuqauWv-53" edge="1">
          <mxGeometry width="50" height="50" relative="1" as="geometry">
            <mxPoint x="540" y="220" as="sourcePoint" />
            <mxPoint x="590" y="170" as="targetPoint" />
          </mxGeometry>
        </mxCell>
        <mxCell id="5AHEL27qC83Q_nuqauWv-67" value="" style="endArrow=none;html=1;rounded=0;strokeColor=#E07A5F;fontColor=#393C56;fillColor=#F2CC8F;entryX=0.5;entryY=1;entryDx=0;entryDy=0;exitX=0.5;exitY=0;exitDx=0;exitDy=0;" parent="1" source="u0et4MlqCL1tA1Q98yab-29" target="5AHEL27qC83Q_nuqauWv-49" edge="1">
          <mxGeometry width="50" height="50" relative="1" as="geometry">
            <mxPoint x="270" y="340" as="sourcePoint" />
            <mxPoint x="320" y="290" as="targetPoint" />
          </mxGeometry>
        </mxCell>
        <mxCell id="5AHEL27qC83Q_nuqauWv-68" value="" style="endArrow=none;html=1;rounded=0;strokeColor=#E07A5F;fontColor=#393C56;fillColor=#F2CC8F;entryX=0.5;entryY=1;entryDx=0;entryDy=0;exitX=0.5;exitY=0;exitDx=0;exitDy=0;" parent="1" source="QN2qdTGXNcDAp5eCpWUN-15" target="5AHEL27qC83Q_nuqauWv-55" edge="1">
          <mxGeometry width="50" height="50" relative="1" as="geometry">
            <mxPoint x="400" y="350" as="sourcePoint" />
            <mxPoint x="450" y="300" as="targetPoint" />
          </mxGeometry>
        </mxCell>
        <mxCell id="5AHEL27qC83Q_nuqauWv-69" value="Img1" style="ellipse;whiteSpace=wrap;html=1;labelBackgroundColor=none;fillColor=#F2CC8F;strokeColor=#E07A5F;fontColor=#393C56;" parent="1" vertex="1">
          <mxGeometry x="287.5" y="670" width="70" height="30" as="geometry" />
        </mxCell>
        <mxCell id="5AHEL27qC83Q_nuqauWv-70" value="Img2.3" style="ellipse;whiteSpace=wrap;html=1;labelBackgroundColor=none;fillColor=#F2CC8F;strokeColor=#E07A5F;fontColor=#393C56;" parent="1" vertex="1">
          <mxGeometry x="237.5" y="640" width="70" height="30" as="geometry" />
        </mxCell>
        <mxCell id="5AHEL27qC83Q_nuqauWv-71" value="" style="endArrow=none;html=1;rounded=0;strokeColor=#E07A5F;fontColor=#393C56;fillColor=#F2CC8F;exitX=1;exitY=0;exitDx=0;exitDy=0;entryX=0.25;entryY=1;entryDx=0;entryDy=0;" parent="1" source="5AHEL27qC83Q_nuqauWv-70" target="u0et4MlqCL1tA1Q98yab-8" edge="1">
          <mxGeometry width="50" height="50" relative="1" as="geometry">
            <mxPoint x="290" y="650" as="sourcePoint" />
            <mxPoint x="350" y="590" as="targetPoint" />
          </mxGeometry>
        </mxCell>
        <mxCell id="5AHEL27qC83Q_nuqauWv-72" value="" style="endArrow=none;html=1;rounded=0;strokeColor=#E07A5F;fontColor=#393C56;fillColor=#F2CC8F;exitX=0.5;exitY=0;exitDx=0;exitDy=0;entryX=0.25;entryY=1;entryDx=0;entryDy=0;" parent="1" source="5AHEL27qC83Q_nuqauWv-69" target="u0et4MlqCL1tA1Q98yab-8" edge="1">
          <mxGeometry width="50" height="50" relative="1" as="geometry">
            <mxPoint x="310" y="660" as="sourcePoint" />
            <mxPoint x="370" y="580" as="targetPoint" />
          </mxGeometry>
        </mxCell>
        <mxCell id="5AHEL27qC83Q_nuqauWv-75" value="P_type" style="ellipse;whiteSpace=wrap;html=1;labelBackgroundColor=none;fillColor=#F2CC8F;strokeColor=#E07A5F;fontColor=#393C56;" parent="1" vertex="1">
          <mxGeometry x="740" y="350" width="70" height="30" as="geometry" />
        </mxCell>
        <mxCell id="5AHEL27qC83Q_nuqauWv-76" value="" style="endArrow=none;html=1;rounded=0;strokeColor=#E07A5F;fontColor=#393C56;fillColor=#F2CC8F;entryX=0;entryY=0;entryDx=0;entryDy=0;exitX=1;exitY=1;exitDx=0;exitDy=0;" parent="1" source="u0et4MlqCL1tA1Q98yab-6" target="5AHEL27qC83Q_nuqauWv-75" edge="1">
          <mxGeometry width="50" height="50" relative="1" as="geometry">
            <mxPoint x="710" y="350" as="sourcePoint" />
            <mxPoint x="760" y="300" as="targetPoint" />
          </mxGeometry>
        </mxCell>
        <mxCell id="5AHEL27qC83Q_nuqauWv-78" value="O_Total" style="ellipse;whiteSpace=wrap;html=1;labelBackgroundColor=none;fillColor=#F2CC8F;strokeColor=#E07A5F;fontColor=#393C56;" parent="1" vertex="1">
          <mxGeometry x="1.25" y="650" width="70" height="30" as="geometry" />
        </mxCell>
        <mxCell id="5AHEL27qC83Q_nuqauWv-79" value="P_price" style="ellipse;whiteSpace=wrap;html=1;labelBackgroundColor=none;fillColor=#F2CC8F;strokeColor=#E07A5F;fontColor=#393C56;" parent="1" vertex="1">
          <mxGeometry x="1.25" y="890" width="70" height="30" as="geometry" />
        </mxCell>
        <mxCell id="5AHEL27qC83Q_nuqauWv-80" value="C_name" style="ellipse;whiteSpace=wrap;html=1;labelBackgroundColor=none;fillColor=#F2CC8F;strokeColor=#E07A5F;fontColor=#393C56;" parent="1" vertex="1">
          <mxGeometry x="15" y="930" width="70" height="30" as="geometry" />
        </mxCell>
        <mxCell id="5AHEL27qC83Q_nuqauWv-81" value="C_address" style="ellipse;whiteSpace=wrap;html=1;labelBackgroundColor=none;fillColor=#F2CC8F;strokeColor=#E07A5F;fontColor=#393C56;" parent="1" vertex="1">
          <mxGeometry x="55" y="960" width="70" height="30" as="geometry" />
        </mxCell>
        <mxCell id="5AHEL27qC83Q_nuqauWv-82" value="" style="endArrow=none;html=1;rounded=0;strokeColor=#E07A5F;fontColor=#393C56;fillColor=#F2CC8F;exitX=1;exitY=0.5;exitDx=0;exitDy=0;entryX=0;entryY=0.75;entryDx=0;entryDy=0;" parent="1" source="5AHEL27qC83Q_nuqauWv-79" target="u0et4MlqCL1tA1Q98yab-15" edge="1">
          <mxGeometry width="50" height="50" relative="1" as="geometry">
            <mxPoint x="130" y="910" as="sourcePoint" />
            <mxPoint x="180" y="860" as="targetPoint" />
          </mxGeometry>
        </mxCell>
        <mxCell id="5AHEL27qC83Q_nuqauWv-83" value="C_contact" style="ellipse;whiteSpace=wrap;html=1;labelBackgroundColor=none;fillColor=#F2CC8F;strokeColor=#E07A5F;fontColor=#393C56;" parent="1" vertex="1">
          <mxGeometry x="132.5" y="950" width="70" height="30" as="geometry" />
        </mxCell>
        <mxCell id="5AHEL27qC83Q_nuqauWv-84" value="" style="endArrow=none;html=1;rounded=0;strokeColor=#E07A5F;fontColor=#393C56;fillColor=#F2CC8F;entryX=0;entryY=0.75;entryDx=0;entryDy=0;exitX=1;exitY=0;exitDx=0;exitDy=0;" parent="1" source="5AHEL27qC83Q_nuqauWv-80" target="u0et4MlqCL1tA1Q98yab-15" edge="1">
          <mxGeometry width="50" height="50" relative="1" as="geometry">
            <mxPoint x="140" y="930" as="sourcePoint" />
            <mxPoint x="190" y="880" as="targetPoint" />
          </mxGeometry>
        </mxCell>
        <mxCell id="5AHEL27qC83Q_nuqauWv-85" value="" style="endArrow=none;html=1;rounded=0;strokeColor=#E07A5F;fontColor=#393C56;fillColor=#F2CC8F;entryX=0;entryY=0.75;entryDx=0;entryDy=0;exitX=0.5;exitY=0;exitDx=0;exitDy=0;" parent="1" source="5AHEL27qC83Q_nuqauWv-81" target="u0et4MlqCL1tA1Q98yab-15" edge="1">
          <mxGeometry width="50" height="50" relative="1" as="geometry">
            <mxPoint x="150" y="920" as="sourcePoint" />
            <mxPoint x="200" y="870" as="targetPoint" />
          </mxGeometry>
        </mxCell>
        <mxCell id="5AHEL27qC83Q_nuqauWv-86" value="" style="endArrow=none;html=1;rounded=0;strokeColor=#E07A5F;fontColor=#393C56;fillColor=#F2CC8F;exitX=0.5;exitY=0;exitDx=0;exitDy=0;entryX=0;entryY=0.75;entryDx=0;entryDy=0;" parent="1" source="5AHEL27qC83Q_nuqauWv-83" target="u0et4MlqCL1tA1Q98yab-15" edge="1">
          <mxGeometry width="50" height="50" relative="1" as="geometry">
            <mxPoint x="190" y="920" as="sourcePoint" />
            <mxPoint x="240" y="870" as="targetPoint" />
          </mxGeometry>
        </mxCell>
        <mxCell id="5AHEL27qC83Q_nuqauWv-87" value="" style="endArrow=none;html=1;rounded=0;strokeColor=#E07A5F;fontColor=#393C56;fillColor=#F2CC8F;entryX=0;entryY=0.25;entryDx=0;entryDy=0;exitX=1;exitY=0.5;exitDx=0;exitDy=0;" parent="1" source="5AHEL27qC83Q_nuqauWv-78" target="u0et4MlqCL1tA1Q98yab-15" edge="1">
          <mxGeometry width="50" height="50" relative="1" as="geometry">
            <mxPoint x="70" y="670" as="sourcePoint" />
            <mxPoint x="120" y="620" as="targetPoint" />
          </mxGeometry>
        </mxCell>
        <mxCell id="5AHEL27qC83Q_nuqauWv-88" value="P_quantity" style="ellipse;whiteSpace=wrap;html=1;labelBackgroundColor=none;fillColor=#F2CC8F;strokeColor=#E07A5F;fontColor=#393C56;" parent="1" vertex="1">
          <mxGeometry x="272.5" y="1070" width="70" height="30" as="geometry" />
        </mxCell>
        <mxCell id="5AHEL27qC83Q_nuqauWv-89" value="P_name" style="ellipse;whiteSpace=wrap;html=1;labelBackgroundColor=none;fillColor=#F2CC8F;strokeColor=#E07A5F;fontColor=#393C56;" parent="1" vertex="1">
          <mxGeometry x="197.5" y="1070" width="70" height="30" as="geometry" />
        </mxCell>
        <mxCell id="5AHEL27qC83Q_nuqauWv-90" value="P_id" style="ellipse;whiteSpace=wrap;html=1;labelBackgroundColor=none;fillColor=#F2CC8F;strokeColor=#E07A5F;fontColor=#393C56;" parent="1" vertex="1">
          <mxGeometry x="120" y="1070" width="70" height="30" as="geometry" />
        </mxCell>
        <mxCell id="5AHEL27qC83Q_nuqauWv-91" value="" style="endArrow=none;html=1;rounded=0;strokeColor=#E07A5F;fontColor=#393C56;fillColor=#F2CC8F;entryX=0.25;entryY=1;entryDx=0;entryDy=0;exitX=1;exitY=0;exitDx=0;exitDy=0;" parent="1" source="5AHEL27qC83Q_nuqauWv-90" target="u0et4MlqCL1tA1Q98yab-5" edge="1">
          <mxGeometry width="50" height="50" relative="1" as="geometry">
            <mxPoint x="190" y="1070" as="sourcePoint" />
            <mxPoint x="240" y="1020" as="targetPoint" />
          </mxGeometry>
        </mxCell>
        <mxCell id="5AHEL27qC83Q_nuqauWv-92" value="" style="endArrow=none;html=1;rounded=0;strokeColor=#E07A5F;fontColor=#393C56;fillColor=#F2CC8F;entryX=0.25;entryY=1;entryDx=0;entryDy=0;exitX=0.5;exitY=0;exitDx=0;exitDy=0;" parent="1" source="5AHEL27qC83Q_nuqauWv-89" target="u0et4MlqCL1tA1Q98yab-5" edge="1">
          <mxGeometry width="50" height="50" relative="1" as="geometry">
            <mxPoint x="230" y="1070" as="sourcePoint" />
            <mxPoint x="270" y="990" as="targetPoint" />
          </mxGeometry>
        </mxCell>
        <mxCell id="5AHEL27qC83Q_nuqauWv-93" value="" style="endArrow=none;html=1;rounded=0;strokeColor=#E07A5F;fontColor=#393C56;fillColor=#F2CC8F;entryX=0.75;entryY=1;entryDx=0;entryDy=0;exitX=0.5;exitY=0;exitDx=0;exitDy=0;" parent="1" source="5AHEL27qC83Q_nuqauWv-88" target="u0et4MlqCL1tA1Q98yab-5" edge="1">
          <mxGeometry width="50" height="50" relative="1" as="geometry">
            <mxPoint x="270" y="1060" as="sourcePoint" />
            <mxPoint x="320" y="1010" as="targetPoint" />
          </mxGeometry>
        </mxCell>
        <mxCell id="5AHEL27qC83Q_nuqauWv-94" value="C_contact" style="ellipse;whiteSpace=wrap;html=1;labelBackgroundColor=none;fillColor=#F2CC8F;strokeColor=#E07A5F;fontColor=#393C56;" parent="1" vertex="1">
          <mxGeometry x="720" y="960" width="70" height="30" as="geometry" />
        </mxCell>
        <mxCell id="5AHEL27qC83Q_nuqauWv-95" value="C_address" style="ellipse;whiteSpace=wrap;html=1;labelBackgroundColor=none;fillColor=#F2CC8F;strokeColor=#E07A5F;fontColor=#393C56;" parent="1" vertex="1">
          <mxGeometry x="760" y="990" width="70" height="30" as="geometry" />
        </mxCell>
        <mxCell id="5AHEL27qC83Q_nuqauWv-96" value="C_name" style="ellipse;whiteSpace=wrap;html=1;labelBackgroundColor=none;fillColor=#F2CC8F;strokeColor=#E07A5F;fontColor=#393C56;" parent="1" vertex="1">
          <mxGeometry x="770" y="1030" width="70" height="30" as="geometry" />
        </mxCell>
        <mxCell id="5AHEL27qC83Q_nuqauWv-97" value="C_id" style="ellipse;whiteSpace=wrap;html=1;labelBackgroundColor=none;fillColor=#F2CC8F;strokeColor=#E07A5F;fontColor=#393C56;" parent="1" vertex="1">
          <mxGeometry x="720" y="1060" width="70" height="30" as="geometry" />
        </mxCell>
        <mxCell id="5AHEL27qC83Q_nuqauWv-99" value="" style="endArrow=none;html=1;rounded=0;strokeColor=#E07A5F;fontColor=#393C56;fillColor=#F2CC8F;entryX=0;entryY=0.5;entryDx=0;entryDy=0;exitX=1;exitY=1;exitDx=0;exitDy=0;" parent="1" source="u0et4MlqCL1tA1Q98yab-16" target="5AHEL27qC83Q_nuqauWv-94" edge="1">
          <mxGeometry width="50" height="50" relative="1" as="geometry">
            <mxPoint x="640" y="970" as="sourcePoint" />
            <mxPoint x="690" y="920" as="targetPoint" />
          </mxGeometry>
        </mxCell>
        <mxCell id="5AHEL27qC83Q_nuqauWv-100" value="" style="endArrow=none;html=1;rounded=0;strokeColor=#E07A5F;fontColor=#393C56;fillColor=#F2CC8F;entryX=0;entryY=0.5;entryDx=0;entryDy=0;exitX=1;exitY=1;exitDx=0;exitDy=0;" parent="1" source="u0et4MlqCL1tA1Q98yab-16" target="5AHEL27qC83Q_nuqauWv-95" edge="1">
          <mxGeometry width="50" height="50" relative="1" as="geometry">
            <mxPoint x="650" y="1050" as="sourcePoint" />
            <mxPoint x="700" y="1000" as="targetPoint" />
          </mxGeometry>
        </mxCell>
        <mxCell id="5AHEL27qC83Q_nuqauWv-101" value="" style="endArrow=none;html=1;rounded=0;strokeColor=#E07A5F;fontColor=#393C56;fillColor=#F2CC8F;entryX=0;entryY=0.5;entryDx=0;entryDy=0;exitX=1;exitY=1;exitDx=0;exitDy=0;" parent="1" source="u0et4MlqCL1tA1Q98yab-16" target="5AHEL27qC83Q_nuqauWv-96" edge="1">
          <mxGeometry width="50" height="50" relative="1" as="geometry">
            <mxPoint x="670" y="1060" as="sourcePoint" />
            <mxPoint x="720" y="1010" as="targetPoint" />
          </mxGeometry>
        </mxCell>
        <mxCell id="5AHEL27qC83Q_nuqauWv-102" value="" style="endArrow=none;html=1;rounded=0;strokeColor=#E07A5F;fontColor=#393C56;fillColor=#F2CC8F;entryX=1;entryY=1;entryDx=0;entryDy=0;exitX=0.5;exitY=0;exitDx=0;exitDy=0;" parent="1" source="bJhiyATxaRy-9W0PiRau-84" target="u0et4MlqCL1tA1Q98yab-16" edge="1">
          <mxGeometry width="50" height="50" relative="1" as="geometry">
            <mxPoint x="670" y="1070" as="sourcePoint" />
            <mxPoint x="720" y="1020" as="targetPoint" />
          </mxGeometry>
        </mxCell>
        <mxCell id="5AHEL27qC83Q_nuqauWv-103" value="" style="endArrow=none;html=1;rounded=0;strokeColor=#E07A5F;fontColor=#393C56;fillColor=#F2CC8F;entryX=0.5;entryY=0;entryDx=0;entryDy=0;exitX=1;exitY=1;exitDx=0;exitDy=0;" parent="1" source="u0et4MlqCL1tA1Q98yab-16" target="5AHEL27qC83Q_nuqauWv-97" edge="1">
          <mxGeometry width="50" height="50" relative="1" as="geometry">
            <mxPoint x="640" y="960" as="sourcePoint" />
            <mxPoint x="690" y="910" as="targetPoint" />
          </mxGeometry>
        </mxCell>
        <mxCell id="5AHEL27qC83Q_nuqauWv-104" value="P_id" style="ellipse;whiteSpace=wrap;html=1;labelBackgroundColor=none;fillColor=#F2CC8F;strokeColor=#E07A5F;fontColor=#393C56;" parent="1" vertex="1">
          <mxGeometry x="780" y="790" width="70" height="30" as="geometry" />
        </mxCell>
        <mxCell id="5AHEL27qC83Q_nuqauWv-105" value="O_total" style="ellipse;whiteSpace=wrap;html=1;labelBackgroundColor=none;fillColor=#F2CC8F;strokeColor=#E07A5F;fontColor=#393C56;" parent="1" vertex="1">
          <mxGeometry x="780" y="880" width="70" height="30" as="geometry" />
        </mxCell>
        <mxCell id="5AHEL27qC83Q_nuqauWv-106" value="P_name" style="ellipse;whiteSpace=wrap;html=1;labelBackgroundColor=none;fillColor=#F2CC8F;strokeColor=#E07A5F;fontColor=#393C56;" parent="1" vertex="1">
          <mxGeometry x="780" y="850" width="70" height="30" as="geometry" />
        </mxCell>
        <mxCell id="5AHEL27qC83Q_nuqauWv-107" value="B_type" style="ellipse;whiteSpace=wrap;html=1;labelBackgroundColor=none;fillColor=#F2CC8F;strokeColor=#E07A5F;fontColor=#393C56;" parent="1" vertex="1">
          <mxGeometry x="780" y="730" width="70" height="30" as="geometry" />
        </mxCell>
        <mxCell id="5AHEL27qC83Q_nuqauWv-108" value="O_number" style="ellipse;whiteSpace=wrap;html=1;labelBackgroundColor=none;fillColor=#F2CC8F;strokeColor=#E07A5F;fontColor=#393C56;" parent="1" vertex="1">
          <mxGeometry x="755" y="910" width="70" height="30" as="geometry" />
        </mxCell>
        <mxCell id="5AHEL27qC83Q_nuqauWv-109" value="C_name" style="ellipse;whiteSpace=wrap;html=1;labelBackgroundColor=none;fillColor=#F2CC8F;strokeColor=#E07A5F;fontColor=#393C56;" parent="1" vertex="1">
          <mxGeometry x="680" y="900" width="70" height="30" as="geometry" />
        </mxCell>
        <mxCell id="5AHEL27qC83Q_nuqauWv-110" value="" style="endArrow=none;html=1;rounded=0;strokeColor=#E07A5F;fontColor=#393C56;fillColor=#F2CC8F;entryX=1;entryY=1;entryDx=0;entryDy=0;exitX=0.5;exitY=0;exitDx=0;exitDy=0;" parent="1" source="5AHEL27qC83Q_nuqauWv-109" target="u0et4MlqCL1tA1Q98yab-18" edge="1">
          <mxGeometry width="50" height="50" relative="1" as="geometry">
            <mxPoint x="620" y="900" as="sourcePoint" />
            <mxPoint x="670" y="850" as="targetPoint" />
          </mxGeometry>
        </mxCell>
        <mxCell id="5AHEL27qC83Q_nuqauWv-111" value="" style="endArrow=none;html=1;rounded=0;strokeColor=#E07A5F;fontColor=#393C56;fillColor=#F2CC8F;entryX=1;entryY=1;entryDx=0;entryDy=0;exitX=0;exitY=0;exitDx=0;exitDy=0;" parent="1" source="5AHEL27qC83Q_nuqauWv-108" target="u0et4MlqCL1tA1Q98yab-18" edge="1">
          <mxGeometry width="50" height="50" relative="1" as="geometry">
            <mxPoint x="640" y="910" as="sourcePoint" />
            <mxPoint x="690" y="860" as="targetPoint" />
          </mxGeometry>
        </mxCell>
        <mxCell id="5AHEL27qC83Q_nuqauWv-112" value="" style="endArrow=none;html=1;rounded=0;strokeColor=#E07A5F;fontColor=#393C56;fillColor=#F2CC8F;entryX=1;entryY=1;entryDx=0;entryDy=0;exitX=0;exitY=0.5;exitDx=0;exitDy=0;" parent="1" source="5AHEL27qC83Q_nuqauWv-105" target="u0et4MlqCL1tA1Q98yab-18" edge="1">
          <mxGeometry width="50" height="50" relative="1" as="geometry">
            <mxPoint x="610" y="900" as="sourcePoint" />
            <mxPoint x="660" y="850" as="targetPoint" />
          </mxGeometry>
        </mxCell>
        <mxCell id="5AHEL27qC83Q_nuqauWv-113" value="" style="endArrow=none;html=1;rounded=0;strokeColor=#E07A5F;fontColor=#393C56;fillColor=#F2CC8F;entryX=1;entryY=1;entryDx=0;entryDy=0;exitX=0;exitY=0.5;exitDx=0;exitDy=0;" parent="1" source="5AHEL27qC83Q_nuqauWv-106" target="u0et4MlqCL1tA1Q98yab-18" edge="1">
          <mxGeometry width="50" height="50" relative="1" as="geometry">
            <mxPoint x="600" y="910" as="sourcePoint" />
            <mxPoint x="650" y="860" as="targetPoint" />
          </mxGeometry>
        </mxCell>
        <mxCell id="5AHEL27qC83Q_nuqauWv-114" value="" style="endArrow=none;html=1;rounded=0;strokeColor=#E07A5F;fontColor=#393C56;fillColor=#F2CC8F;entryX=1;entryY=1;entryDx=0;entryDy=0;exitX=0;exitY=0.5;exitDx=0;exitDy=0;" parent="1" source="bJhiyATxaRy-9W0PiRau-95" target="u0et4MlqCL1tA1Q98yab-18" edge="1">
          <mxGeometry width="50" height="50" relative="1" as="geometry">
            <mxPoint x="610" y="930" as="sourcePoint" />
            <mxPoint x="660" y="880" as="targetPoint" />
          </mxGeometry>
        </mxCell>
        <mxCell id="5AHEL27qC83Q_nuqauWv-115" value="" style="endArrow=none;html=1;rounded=0;strokeColor=#E07A5F;fontColor=#393C56;fillColor=#F2CC8F;entryX=0;entryY=0.5;entryDx=0;entryDy=0;exitX=1;exitY=0.25;exitDx=0;exitDy=0;" parent="1" source="u0et4MlqCL1tA1Q98yab-18" target="5AHEL27qC83Q_nuqauWv-107" edge="1">
          <mxGeometry width="50" height="50" relative="1" as="geometry">
            <mxPoint x="620" y="900" as="sourcePoint" />
            <mxPoint x="670" y="850" as="targetPoint" />
          </mxGeometry>
        </mxCell>
      </root>
    </mxGraphModel>
  </diagram>
  <diagram id="CakMye4UJU8uQRHk3Aje" name="Page-5">
    <mxGraphModel dx="1176" dy="1596" grid="1" gridSize="10" guides="1" tooltips="1" connect="1" arrows="1" fold="1" page="1" pageScale="1" pageWidth="850" pageHeight="1100" math="0" shadow="0">
      <root>
        <mxCell id="0" />
        <mxCell id="1" parent="0" />
        <mxCell id="ugLrWaNR-VVOjwTNUlk8-1" value="Admin" style="rounded=0;whiteSpace=wrap;html=1;" parent="1" vertex="1">
          <mxGeometry x="450" y="-710" width="110" height="60" as="geometry" />
        </mxCell>
        <mxCell id="ugLrWaNR-VVOjwTNUlk8-2" value="" style="rounded=0;whiteSpace=wrap;html=1;" parent="1" vertex="1">
          <mxGeometry x="470" y="-810" width="100" height="50" as="geometry" />
        </mxCell>
        <mxCell id="ugLrWaNR-VVOjwTNUlk8-3" value="Login" style="text;html=1;strokeColor=none;fillColor=none;align=center;verticalAlign=middle;whiteSpace=wrap;rounded=0;" parent="1" vertex="1">
          <mxGeometry x="485" y="-800" width="60" height="30" as="geometry" />
        </mxCell>
        <mxCell id="ugLrWaNR-VVOjwTNUlk8-4" value="" style="endArrow=classic;html=1;rounded=0;exitX=1;exitY=0;exitDx=0;exitDy=0;" parent="1" source="ugLrWaNR-VVOjwTNUlk8-2" edge="1">
          <mxGeometry width="50" height="50" relative="1" as="geometry">
            <mxPoint x="560" y="-800" as="sourcePoint" />
            <mxPoint x="620" y="-830" as="targetPoint" />
          </mxGeometry>
        </mxCell>
        <mxCell id="ugLrWaNR-VVOjwTNUlk8-5" value="" style="endArrow=classic;html=1;rounded=0;entryX=0;entryY=0;entryDx=0;entryDy=0;" parent="1" target="ugLrWaNR-VVOjwTNUlk8-8" edge="1">
          <mxGeometry width="50" height="50" relative="1" as="geometry">
            <mxPoint x="570" y="-780" as="sourcePoint" />
            <mxPoint x="630" y="-790" as="targetPoint" />
          </mxGeometry>
        </mxCell>
        <mxCell id="ugLrWaNR-VVOjwTNUlk8-6" value="" style="endArrow=classic;html=1;rounded=0;" parent="1" target="ugLrWaNR-VVOjwTNUlk8-9" edge="1">
          <mxGeometry width="50" height="50" relative="1" as="geometry">
            <mxPoint x="570" y="-760" as="sourcePoint" />
            <mxPoint x="640" y="-750" as="targetPoint" />
          </mxGeometry>
        </mxCell>
        <mxCell id="ugLrWaNR-VVOjwTNUlk8-7" value="ID" style="ellipse;whiteSpace=wrap;html=1;" parent="1" vertex="1">
          <mxGeometry x="610" y="-840" width="90" height="60" as="geometry" />
        </mxCell>
        <mxCell id="ugLrWaNR-VVOjwTNUlk8-8" value="Password" style="ellipse;whiteSpace=wrap;html=1;" parent="1" vertex="1">
          <mxGeometry x="620" y="-780" width="90" height="60" as="geometry" />
        </mxCell>
        <mxCell id="ugLrWaNR-VVOjwTNUlk8-9" value="Update Details" style="ellipse;whiteSpace=wrap;html=1;" parent="1" vertex="1">
          <mxGeometry x="620" y="-720" width="90" height="60" as="geometry" />
        </mxCell>
        <mxCell id="ugLrWaNR-VVOjwTNUlk8-10" value="" style="endArrow=classic;html=1;rounded=0;exitX=0.545;exitY=0;exitDx=0;exitDy=0;exitPerimeter=0;entryX=0.4;entryY=1;entryDx=0;entryDy=0;entryPerimeter=0;" parent="1" source="ugLrWaNR-VVOjwTNUlk8-1" target="ugLrWaNR-VVOjwTNUlk8-2" edge="1">
          <mxGeometry width="50" height="50" relative="1" as="geometry">
            <mxPoint x="500" y="-600" as="sourcePoint" />
            <mxPoint x="510" y="-750" as="targetPoint" />
          </mxGeometry>
        </mxCell>
        <mxCell id="ugLrWaNR-VVOjwTNUlk8-11" value="Manage Product" style="rounded=0;whiteSpace=wrap;html=1;" parent="1" vertex="1">
          <mxGeometry x="220" y="-650" width="130" height="50" as="geometry" />
        </mxCell>
        <mxCell id="ugLrWaNR-VVOjwTNUlk8-12" value="Add/update Item" style="ellipse;whiteSpace=wrap;html=1;" parent="1" vertex="1">
          <mxGeometry x="160" y="-760" width="90" height="60" as="geometry" />
        </mxCell>
        <mxCell id="ugLrWaNR-VVOjwTNUlk8-13" value="Delete Item" style="ellipse;whiteSpace=wrap;html=1;" parent="1" vertex="1">
          <mxGeometry x="250" y="-760" width="90" height="60" as="geometry" />
        </mxCell>
        <mxCell id="ugLrWaNR-VVOjwTNUlk8-14" value="Set Price" style="ellipse;whiteSpace=wrap;html=1;" parent="1" vertex="1">
          <mxGeometry x="340" y="-760" width="90" height="60" as="geometry" />
        </mxCell>
        <mxCell id="ugLrWaNR-VVOjwTNUlk8-15" style="edgeStyle=orthogonalEdgeStyle;rounded=0;orthogonalLoop=1;jettySize=auto;html=1;exitX=0.5;exitY=1;exitDx=0;exitDy=0;" parent="1" source="ugLrWaNR-VVOjwTNUlk8-16" edge="1">
          <mxGeometry relative="1" as="geometry">
            <mxPoint x="810" y="-350" as="targetPoint" />
          </mxGeometry>
        </mxCell>
        <mxCell id="ugLrWaNR-VVOjwTNUlk8-16" value="Payment" style="rounded=0;whiteSpace=wrap;html=1;" parent="1" vertex="1">
          <mxGeometry x="755" y="-395" width="110" height="50" as="geometry" />
        </mxCell>
        <mxCell id="ugLrWaNR-VVOjwTNUlk8-17" value="Credit Card" style="ellipse;whiteSpace=wrap;html=1;" parent="1" vertex="1">
          <mxGeometry x="730" y="-250" width="90" height="60" as="geometry" />
        </mxCell>
        <mxCell id="ugLrWaNR-VVOjwTNUlk8-18" value="Netbanking" style="ellipse;whiteSpace=wrap;html=1;" parent="1" vertex="1">
          <mxGeometry x="850" y="-250" width="90" height="60" as="geometry" />
        </mxCell>
        <mxCell id="ugLrWaNR-VVOjwTNUlk8-19" value="UPI" style="ellipse;whiteSpace=wrap;html=1;" parent="1" vertex="1">
          <mxGeometry x="930" y="-320" width="90" height="60" as="geometry" />
        </mxCell>
        <mxCell id="ugLrWaNR-VVOjwTNUlk8-20" value="" style="endArrow=classic;html=1;rounded=0;exitX=0;exitY=0;exitDx=0;exitDy=0;" parent="1" source="ugLrWaNR-VVOjwTNUlk8-11" target="ugLrWaNR-VVOjwTNUlk8-12" edge="1">
          <mxGeometry width="50" height="50" relative="1" as="geometry">
            <mxPoint x="220" y="-610" as="sourcePoint" />
            <mxPoint x="220" y="-540" as="targetPoint" />
          </mxGeometry>
        </mxCell>
        <mxCell id="ugLrWaNR-VVOjwTNUlk8-21" value="" style="endArrow=classic;html=1;rounded=0;entryX=0.5;entryY=1;entryDx=0;entryDy=0;" parent="1" target="ugLrWaNR-VVOjwTNUlk8-13" edge="1">
          <mxGeometry width="50" height="50" relative="1" as="geometry">
            <mxPoint x="290" y="-650" as="sourcePoint" />
            <mxPoint x="290" y="-540" as="targetPoint" />
          </mxGeometry>
        </mxCell>
        <mxCell id="ugLrWaNR-VVOjwTNUlk8-22" value="EMI" style="ellipse;whiteSpace=wrap;html=1;" parent="1" vertex="1">
          <mxGeometry x="930" y="-400" width="90" height="60" as="geometry" />
        </mxCell>
        <mxCell id="ugLrWaNR-VVOjwTNUlk8-23" value="" style="endArrow=classic;html=1;rounded=0;entryX=0.5;entryY=0;entryDx=0;entryDy=0;exitX=0.397;exitY=1.08;exitDx=0;exitDy=0;exitPerimeter=0;" parent="1" source="ugLrWaNR-VVOjwTNUlk8-16" target="ugLrWaNR-VVOjwTNUlk8-18" edge="1">
          <mxGeometry width="50" height="50" relative="1" as="geometry">
            <mxPoint x="750" y="-580" as="sourcePoint" />
            <mxPoint x="800" y="-630" as="targetPoint" />
          </mxGeometry>
        </mxCell>
        <mxCell id="ugLrWaNR-VVOjwTNUlk8-24" value="Manage Order" style="rounded=0;whiteSpace=wrap;html=1;" parent="1" vertex="1">
          <mxGeometry x="220" y="-580" width="130" height="55" as="geometry" />
        </mxCell>
        <mxCell id="ugLrWaNR-VVOjwTNUlk8-25" value="Manage Report" style="rounded=0;whiteSpace=wrap;html=1;" parent="1" vertex="1">
          <mxGeometry x="760" y="-627.5" width="105" height="55" as="geometry" />
        </mxCell>
        <mxCell id="ugLrWaNR-VVOjwTNUlk8-26" value="Update Info/Product" style="rounded=0;whiteSpace=wrap;html=1;" parent="1" vertex="1">
          <mxGeometry x="230" y="-430" width="130" height="55" as="geometry" />
        </mxCell>
        <mxCell id="ugLrWaNR-VVOjwTNUlk8-27" value="Manage User/Seller Details" style="rounded=0;whiteSpace=wrap;html=1;" parent="1" vertex="1">
          <mxGeometry x="560" y="-275" width="105" height="55" as="geometry" />
        </mxCell>
        <mxCell id="ugLrWaNR-VVOjwTNUlk8-28" value="Manage Client" style="rounded=0;whiteSpace=wrap;html=1;" parent="1" vertex="1">
          <mxGeometry x="320" y="-270" width="105" height="55" as="geometry" />
        </mxCell>
        <mxCell id="ugLrWaNR-VVOjwTNUlk8-29" value="Order Address" style="ellipse;whiteSpace=wrap;html=1;" parent="1" vertex="1">
          <mxGeometry x="70" y="-620" width="90" height="40" as="geometry" />
        </mxCell>
        <mxCell id="ugLrWaNR-VVOjwTNUlk8-30" value="O_ID/C_ID" style="ellipse;whiteSpace=wrap;html=1;" parent="1" vertex="1">
          <mxGeometry x="70" y="-560" width="90" height="45" as="geometry" />
        </mxCell>
        <mxCell id="ugLrWaNR-VVOjwTNUlk8-31" value="Order Status" style="ellipse;whiteSpace=wrap;html=1;" parent="1" vertex="1">
          <mxGeometry x="70" y="-490" width="90" height="40" as="geometry" />
        </mxCell>
        <mxCell id="ugLrWaNR-VVOjwTNUlk8-32" value="Manage Category" style="ellipse;whiteSpace=wrap;html=1;" parent="1" vertex="1">
          <mxGeometry x="60" y="-700" width="105" height="40" as="geometry" />
        </mxCell>
        <mxCell id="ugLrWaNR-VVOjwTNUlk8-33" value="Order Status" style="ellipse;whiteSpace=wrap;html=1;" parent="1" vertex="1">
          <mxGeometry x="930" y="-560" width="90" height="40" as="geometry" />
        </mxCell>
        <mxCell id="ugLrWaNR-VVOjwTNUlk8-34" value="Payment Status" style="ellipse;whiteSpace=wrap;html=1;" parent="1" vertex="1">
          <mxGeometry x="930" y="-620" width="90" height="40" as="geometry" />
        </mxCell>
        <mxCell id="ugLrWaNR-VVOjwTNUlk8-35" value="Product QTY" style="ellipse;whiteSpace=wrap;html=1;" parent="1" vertex="1">
          <mxGeometry x="930" y="-690" width="90" height="40" as="geometry" />
        </mxCell>
        <mxCell id="ugLrWaNR-VVOjwTNUlk8-36" value="Verify User/Seller Details" style="ellipse;whiteSpace=wrap;html=1;" parent="1" vertex="1">
          <mxGeometry x="500" y="-130" width="90" height="50" as="geometry" />
        </mxCell>
        <mxCell id="ugLrWaNR-VVOjwTNUlk8-37" value="Payment" style="ellipse;whiteSpace=wrap;html=1;" parent="1" vertex="1">
          <mxGeometry x="600" y="-130" width="90" height="50" as="geometry" />
        </mxCell>
        <mxCell id="ugLrWaNR-VVOjwTNUlk8-38" value="Order Status" style="ellipse;whiteSpace=wrap;html=1;" parent="1" vertex="1">
          <mxGeometry x="680" y="-160" width="90" height="50" as="geometry" />
        </mxCell>
        <mxCell id="ugLrWaNR-VVOjwTNUlk8-39" value="C_Address" style="ellipse;whiteSpace=wrap;html=1;" parent="1" vertex="1">
          <mxGeometry x="240" y="-170" width="90" height="50" as="geometry" />
        </mxCell>
        <mxCell id="ugLrWaNR-VVOjwTNUlk8-40" value="C_ID" style="ellipse;whiteSpace=wrap;html=1;" parent="1" vertex="1">
          <mxGeometry x="165" y="-220" width="90" height="50" as="geometry" />
        </mxCell>
        <mxCell id="ugLrWaNR-VVOjwTNUlk8-41" value="C_Payment" style="ellipse;whiteSpace=wrap;html=1;" parent="1" vertex="1">
          <mxGeometry x="340" y="-150" width="90" height="50" as="geometry" />
        </mxCell>
        <mxCell id="ugLrWaNR-VVOjwTNUlk8-42" value="C_Order" style="ellipse;whiteSpace=wrap;html=1;" parent="1" vertex="1">
          <mxGeometry x="430" y="-200" width="90" height="50" as="geometry" />
        </mxCell>
        <mxCell id="ugLrWaNR-VVOjwTNUlk8-43" value="" style="endArrow=classic;html=1;rounded=0;entryX=1;entryY=0.75;entryDx=0;entryDy=0;exitX=0.25;exitY=1;exitDx=0;exitDy=0;" parent="1" source="ugLrWaNR-VVOjwTNUlk8-1" target="ugLrWaNR-VVOjwTNUlk8-24" edge="1">
          <mxGeometry width="50" height="50" relative="1" as="geometry">
            <mxPoint x="570" y="-400" as="sourcePoint" />
            <mxPoint x="750" y="-440" as="targetPoint" />
          </mxGeometry>
        </mxCell>
        <mxCell id="ugLrWaNR-VVOjwTNUlk8-44" value="" style="endArrow=classic;html=1;rounded=0;entryX=1;entryY=0;entryDx=0;entryDy=0;" parent="1" target="ugLrWaNR-VVOjwTNUlk8-11" edge="1">
          <mxGeometry width="50" height="50" relative="1" as="geometry">
            <mxPoint x="450" y="-660" as="sourcePoint" />
            <mxPoint x="750" y="-740" as="targetPoint" />
          </mxGeometry>
        </mxCell>
        <mxCell id="ugLrWaNR-VVOjwTNUlk8-45" value="Old Product" style="ellipse;whiteSpace=wrap;html=1;" parent="1" vertex="1">
          <mxGeometry x="70" y="-410" width="90" height="50" as="geometry" />
        </mxCell>
        <mxCell id="ugLrWaNR-VVOjwTNUlk8-46" value="New Product" style="ellipse;whiteSpace=wrap;html=1;" parent="1" vertex="1">
          <mxGeometry x="77.5" y="-350" width="90" height="50" as="geometry" />
        </mxCell>
        <mxCell id="ugLrWaNR-VVOjwTNUlk8-47" value="Old / New Seller" style="ellipse;whiteSpace=wrap;html=1;" parent="1" vertex="1">
          <mxGeometry x="180" y="-320" width="90" height="60" as="geometry" />
        </mxCell>
        <mxCell id="ugLrWaNR-VVOjwTNUlk8-48" value="Payment Refund" style="ellipse;whiteSpace=wrap;html=1;" parent="1" vertex="1">
          <mxGeometry x="910" y="-470" width="110" height="60" as="geometry" />
        </mxCell>
        <mxCell id="ugLrWaNR-VVOjwTNUlk8-49" value="" style="endArrow=classic;html=1;rounded=0;exitX=0.858;exitY=-0.038;exitDx=0;exitDy=0;exitPerimeter=0;" parent="1" source="ugLrWaNR-VVOjwTNUlk8-11" edge="1">
          <mxGeometry width="50" height="50" relative="1" as="geometry">
            <mxPoint x="320" y="-650" as="sourcePoint" />
            <mxPoint x="370" y="-700" as="targetPoint" />
          </mxGeometry>
        </mxCell>
        <mxCell id="ugLrWaNR-VVOjwTNUlk8-50" value="" style="endArrow=classic;html=1;rounded=0;exitX=0.5;exitY=1;exitDx=0;exitDy=0;entryX=1;entryY=0;entryDx=0;entryDy=0;" parent="1" source="ugLrWaNR-VVOjwTNUlk8-1" target="ugLrWaNR-VVOjwTNUlk8-26" edge="1">
          <mxGeometry width="50" height="50" relative="1" as="geometry">
            <mxPoint x="520" y="-520" as="sourcePoint" />
            <mxPoint x="520" y="-430" as="targetPoint" />
          </mxGeometry>
        </mxCell>
        <mxCell id="ugLrWaNR-VVOjwTNUlk8-51" value="" style="endArrow=classic;html=1;rounded=0;entryX=1;entryY=0;entryDx=0;entryDy=0;" parent="1" target="ugLrWaNR-VVOjwTNUlk8-28" edge="1">
          <mxGeometry width="50" height="50" relative="1" as="geometry">
            <mxPoint x="510" y="-650" as="sourcePoint" />
            <mxPoint x="530" y="-420" as="targetPoint" />
          </mxGeometry>
        </mxCell>
        <mxCell id="ugLrWaNR-VVOjwTNUlk8-52" value="" style="endArrow=classic;html=1;rounded=0;entryX=0;entryY=0;entryDx=0;entryDy=0;exitX=0.668;exitY=1.056;exitDx=0;exitDy=0;exitPerimeter=0;" parent="1" source="ugLrWaNR-VVOjwTNUlk8-1" target="ugLrWaNR-VVOjwTNUlk8-27" edge="1">
          <mxGeometry width="50" height="50" relative="1" as="geometry">
            <mxPoint x="540" y="-500" as="sourcePoint" />
            <mxPoint x="540" y="-410" as="targetPoint" />
          </mxGeometry>
        </mxCell>
        <mxCell id="ugLrWaNR-VVOjwTNUlk8-53" value="" style="endArrow=classic;html=1;rounded=0;exitX=0.854;exitY=1.011;exitDx=0;exitDy=0;exitPerimeter=0;entryX=0;entryY=0;entryDx=0;entryDy=0;" parent="1" source="ugLrWaNR-VVOjwTNUlk8-1" target="ugLrWaNR-VVOjwTNUlk8-16" edge="1">
          <mxGeometry width="50" height="50" relative="1" as="geometry">
            <mxPoint x="550" y="-490" as="sourcePoint" />
            <mxPoint x="550" y="-400" as="targetPoint" />
          </mxGeometry>
        </mxCell>
        <mxCell id="ugLrWaNR-VVOjwTNUlk8-54" value="" style="endArrow=classic;html=1;rounded=0;exitX=1;exitY=1;exitDx=0;exitDy=0;entryX=0;entryY=0;entryDx=0;entryDy=0;" parent="1" source="ugLrWaNR-VVOjwTNUlk8-1" target="ugLrWaNR-VVOjwTNUlk8-25" edge="1">
          <mxGeometry width="50" height="50" relative="1" as="geometry">
            <mxPoint x="560" y="-480" as="sourcePoint" />
            <mxPoint x="560" y="-390" as="targetPoint" />
          </mxGeometry>
        </mxCell>
        <mxCell id="ugLrWaNR-VVOjwTNUlk8-55" value="" style="endArrow=classic;html=1;rounded=0;entryX=0.616;entryY=-0.04;entryDx=0;entryDy=0;entryPerimeter=0;" parent="1" target="ugLrWaNR-VVOjwTNUlk8-36" edge="1">
          <mxGeometry width="50" height="50" relative="1" as="geometry">
            <mxPoint x="560" y="-230" as="sourcePoint" />
            <mxPoint x="560" y="-139.111083984375" as="targetPoint" />
          </mxGeometry>
        </mxCell>
        <mxCell id="ugLrWaNR-VVOjwTNUlk8-56" value="" style="endArrow=classic;html=1;rounded=0;exitX=0.5;exitY=1;exitDx=0;exitDy=0;" parent="1" source="ugLrWaNR-VVOjwTNUlk8-27" edge="1">
          <mxGeometry width="50" height="50" relative="1" as="geometry">
            <mxPoint x="630" y="-220.44" as="sourcePoint" />
            <mxPoint x="630" y="-129.551083984375" as="targetPoint" />
          </mxGeometry>
        </mxCell>
        <mxCell id="ugLrWaNR-VVOjwTNUlk8-57" value="" style="endArrow=classic;html=1;rounded=0;entryX=0.038;entryY=0.311;entryDx=0;entryDy=0;entryPerimeter=0;" parent="1" target="ugLrWaNR-VVOjwTNUlk8-38" edge="1">
          <mxGeometry width="50" height="50" relative="1" as="geometry">
            <mxPoint x="654.5" y="-220" as="sourcePoint" />
            <mxPoint x="654.5" y="-129.111083984375" as="targetPoint" />
          </mxGeometry>
        </mxCell>
        <mxCell id="ugLrWaNR-VVOjwTNUlk8-58" value="" style="endArrow=classic;html=1;rounded=0;exitX=0;exitY=1;exitDx=0;exitDy=0;" parent="1" source="ugLrWaNR-VVOjwTNUlk8-16" edge="1">
          <mxGeometry width="50" height="50" relative="1" as="geometry">
            <mxPoint x="760" y="-335.44" as="sourcePoint" />
            <mxPoint x="760" y="-244.551083984375" as="targetPoint" />
          </mxGeometry>
        </mxCell>
        <mxCell id="ugLrWaNR-VVOjwTNUlk8-59" value="" style="endArrow=classic;html=1;rounded=0;entryX=0;entryY=0.5;entryDx=0;entryDy=0;exitX=1;exitY=1;exitDx=0;exitDy=0;" parent="1" source="ugLrWaNR-VVOjwTNUlk8-16" target="ugLrWaNR-VVOjwTNUlk8-19" edge="1">
          <mxGeometry width="50" height="50" relative="1" as="geometry">
            <mxPoint x="865" y="-360" as="sourcePoint" />
            <mxPoint x="865" y="-269.111083984375" as="targetPoint" />
          </mxGeometry>
        </mxCell>
        <mxCell id="ugLrWaNR-VVOjwTNUlk8-60" value="" style="endArrow=classic;html=1;rounded=0;entryX=0.065;entryY=0.244;entryDx=0;entryDy=0;entryPerimeter=0;" parent="1" target="ugLrWaNR-VVOjwTNUlk8-22" edge="1">
          <mxGeometry width="50" height="50" relative="1" as="geometry">
            <mxPoint x="864" y="-395" as="sourcePoint" />
            <mxPoint x="864" y="-304.111083984375" as="targetPoint" />
          </mxGeometry>
        </mxCell>
        <mxCell id="ugLrWaNR-VVOjwTNUlk8-61" value="" style="endArrow=classic;html=1;rounded=0;entryX=0;entryY=0.5;entryDx=0;entryDy=0;" parent="1" target="ugLrWaNR-VVOjwTNUlk8-33" edge="1">
          <mxGeometry width="50" height="50" relative="1" as="geometry">
            <mxPoint x="865" y="-582.94" as="sourcePoint" />
            <mxPoint x="865" y="-492.051083984375" as="targetPoint" />
          </mxGeometry>
        </mxCell>
        <mxCell id="ugLrWaNR-VVOjwTNUlk8-62" value="" style="endArrow=classic;html=1;rounded=0;entryX=0;entryY=0.5;entryDx=0;entryDy=0;" parent="1" target="ugLrWaNR-VVOjwTNUlk8-48" edge="1">
          <mxGeometry width="50" height="50" relative="1" as="geometry">
            <mxPoint x="850" y="-400" as="sourcePoint" />
            <mxPoint x="840" y="-410.001083984375" as="targetPoint" />
          </mxGeometry>
        </mxCell>
        <mxCell id="ugLrWaNR-VVOjwTNUlk8-63" value="" style="endArrow=classic;html=1;rounded=0;entryX=1;entryY=0;entryDx=0;entryDy=0;" parent="1" target="ugLrWaNR-VVOjwTNUlk8-39" edge="1">
          <mxGeometry width="50" height="50" relative="1" as="geometry">
            <mxPoint x="320" y="-230" as="sourcePoint" />
            <mxPoint x="320" y="-139.111083984375" as="targetPoint" />
          </mxGeometry>
        </mxCell>
        <mxCell id="ugLrWaNR-VVOjwTNUlk8-64" value="" style="endArrow=classic;html=1;rounded=0;entryX=0.389;entryY=0.022;entryDx=0;entryDy=0;entryPerimeter=0;exitX=0.5;exitY=1;exitDx=0;exitDy=0;" parent="1" source="ugLrWaNR-VVOjwTNUlk8-28" target="ugLrWaNR-VVOjwTNUlk8-41" edge="1">
          <mxGeometry width="50" height="50" relative="1" as="geometry">
            <mxPoint x="380" y="-200" as="sourcePoint" />
            <mxPoint x="372" y="-129.111083984375" as="targetPoint" />
          </mxGeometry>
        </mxCell>
        <mxCell id="ugLrWaNR-VVOjwTNUlk8-65" value="" style="endArrow=classic;html=1;rounded=0;" parent="1" target="ugLrWaNR-VVOjwTNUlk8-42" edge="1">
          <mxGeometry width="50" height="50" relative="1" as="geometry">
            <mxPoint x="424" y="-215" as="sourcePoint" />
            <mxPoint x="424" y="-124.111083984375" as="targetPoint" />
          </mxGeometry>
        </mxCell>
        <mxCell id="ugLrWaNR-VVOjwTNUlk8-66" value="" style="endArrow=classic;html=1;rounded=0;exitX=0;exitY=0.5;exitDx=0;exitDy=0;" parent="1" source="ugLrWaNR-VVOjwTNUlk8-28" edge="1">
          <mxGeometry width="50" height="50" relative="1" as="geometry">
            <mxPoint x="255" y="-287.94" as="sourcePoint" />
            <mxPoint x="255" y="-197.051083984375" as="targetPoint" />
          </mxGeometry>
        </mxCell>
        <mxCell id="ugLrWaNR-VVOjwTNUlk8-67" value="" style="endArrow=classic;html=1;rounded=0;entryX=1;entryY=0;entryDx=0;entryDy=0;" parent="1" target="ugLrWaNR-VVOjwTNUlk8-47" edge="1">
          <mxGeometry width="50" height="50" relative="1" as="geometry">
            <mxPoint x="255" y="-375" as="sourcePoint" />
            <mxPoint x="255" y="-284.111083984375" as="targetPoint" />
          </mxGeometry>
        </mxCell>
        <mxCell id="ugLrWaNR-VVOjwTNUlk8-68" value="" style="endArrow=classic;html=1;rounded=0;exitX=0;exitY=1;exitDx=0;exitDy=0;" parent="1" source="ugLrWaNR-VVOjwTNUlk8-26" edge="1">
          <mxGeometry width="50" height="50" relative="1" as="geometry">
            <mxPoint x="164" y="-425" as="sourcePoint" />
            <mxPoint x="164" y="-334.111083984375" as="targetPoint" />
          </mxGeometry>
        </mxCell>
        <mxCell id="ugLrWaNR-VVOjwTNUlk8-69" value="" style="endArrow=classic;html=1;rounded=0;exitX=0;exitY=0.5;exitDx=0;exitDy=0;" parent="1" source="ugLrWaNR-VVOjwTNUlk8-26" edge="1">
          <mxGeometry width="50" height="50" relative="1" as="geometry">
            <mxPoint x="160" y="-480" as="sourcePoint" />
            <mxPoint x="160" y="-389.111083984375" as="targetPoint" />
          </mxGeometry>
        </mxCell>
        <mxCell id="ugLrWaNR-VVOjwTNUlk8-70" value="" style="endArrow=classic;html=1;rounded=0;exitX=0;exitY=1;exitDx=0;exitDy=0;" parent="1" source="ugLrWaNR-VVOjwTNUlk8-24" edge="1">
          <mxGeometry width="50" height="50" relative="1" as="geometry">
            <mxPoint x="160" y="-550" as="sourcePoint" />
            <mxPoint x="160" y="-459.111083984375" as="targetPoint" />
          </mxGeometry>
        </mxCell>
        <mxCell id="ugLrWaNR-VVOjwTNUlk8-71" value="" style="endArrow=classic;html=1;rounded=0;exitX=0;exitY=0.5;exitDx=0;exitDy=0;" parent="1" source="ugLrWaNR-VVOjwTNUlk8-24" edge="1">
          <mxGeometry width="50" height="50" relative="1" as="geometry">
            <mxPoint x="160" y="-630" as="sourcePoint" />
            <mxPoint x="160" y="-539.111083984375" as="targetPoint" />
          </mxGeometry>
        </mxCell>
        <mxCell id="ugLrWaNR-VVOjwTNUlk8-72" value="" style="endArrow=classic;html=1;rounded=0;exitX=0;exitY=0;exitDx=0;exitDy=0;" parent="1" source="ugLrWaNR-VVOjwTNUlk8-24" edge="1">
          <mxGeometry width="50" height="50" relative="1" as="geometry">
            <mxPoint x="159" y="-690.89" as="sourcePoint" />
            <mxPoint x="159" y="-600.001083984375" as="targetPoint" />
          </mxGeometry>
        </mxCell>
        <mxCell id="ugLrWaNR-VVOjwTNUlk8-73" value="" style="endArrow=classic;html=1;rounded=0;exitX=1;exitY=0.5;exitDx=0;exitDy=0;" parent="1" source="ugLrWaNR-VVOjwTNUlk8-25" edge="1">
          <mxGeometry width="50" height="50" relative="1" as="geometry">
            <mxPoint x="929" y="-690.89" as="sourcePoint" />
            <mxPoint x="929" y="-600.001083984375" as="targetPoint" />
          </mxGeometry>
        </mxCell>
        <mxCell id="ugLrWaNR-VVOjwTNUlk8-74" value="" style="endArrow=classic;html=1;rounded=0;exitX=1;exitY=0;exitDx=0;exitDy=0;" parent="1" source="ugLrWaNR-VVOjwTNUlk8-25" edge="1">
          <mxGeometry width="50" height="50" relative="1" as="geometry">
            <mxPoint x="930" y="-760" as="sourcePoint" />
            <mxPoint x="930" y="-669.111083984375" as="targetPoint" />
          </mxGeometry>
        </mxCell>
        <mxCell id="ugLrWaNR-VVOjwTNUlk8-75" value="" style="endArrow=classic;html=1;rounded=0;entryX=0.968;entryY=0.733;entryDx=0;entryDy=0;entryPerimeter=0;exitX=0;exitY=0.5;exitDx=0;exitDy=0;" parent="1" source="ugLrWaNR-VVOjwTNUlk8-11" target="ugLrWaNR-VVOjwTNUlk8-32" edge="1">
          <mxGeometry width="50" height="50" relative="1" as="geometry">
            <mxPoint x="210" y="-630" as="sourcePoint" />
            <mxPoint x="280" y="-480" as="targetPoint" />
          </mxGeometry>
        </mxCell>
      </root>
    </mxGraphModel>
  </diagram>
  <diagram id="rg2Y_cV5NAjiuJowhkde" name="Page-6">
    <mxGraphModel dx="1176" dy="496" grid="1" gridSize="10" guides="1" tooltips="1" connect="1" arrows="1" fold="1" page="1" pageScale="1" pageWidth="850" pageHeight="1100" math="0" shadow="0">
      <root>
        <mxCell id="0" />
        <mxCell id="1" parent="0" />
        <mxCell id="opinZByBXcBgXd5qWuDY-8" style="edgeStyle=orthogonalEdgeStyle;rounded=0;orthogonalLoop=1;jettySize=auto;html=1;entryX=0;entryY=0.75;entryDx=0;entryDy=0;exitX=1;exitY=0.75;exitDx=0;exitDy=0;" parent="1" source="opinZByBXcBgXd5qWuDY-1" target="opinZByBXcBgXd5qWuDY-4" edge="1">
          <mxGeometry relative="1" as="geometry" />
        </mxCell>
        <mxCell id="opinZByBXcBgXd5qWuDY-21" style="edgeStyle=orthogonalEdgeStyle;rounded=0;orthogonalLoop=1;jettySize=auto;html=1;exitX=0.25;exitY=0;exitDx=0;exitDy=0;entryX=0;entryY=0.25;entryDx=0;entryDy=0;" parent="1" source="opinZByBXcBgXd5qWuDY-1" target="opinZByBXcBgXd5qWuDY-5" edge="1">
          <mxGeometry relative="1" as="geometry" />
        </mxCell>
        <mxCell id="opinZByBXcBgXd5qWuDY-1" value="Customer" style="rounded=1;whiteSpace=wrap;html=1;" parent="1" vertex="1">
          <mxGeometry x="40" y="240" width="120" height="60" as="geometry" />
        </mxCell>
        <mxCell id="y7aiFF8EQfj3_wNpehj5-6" style="edgeStyle=orthogonalEdgeStyle;rounded=0;orthogonalLoop=1;jettySize=auto;html=1;exitX=0.25;exitY=1;exitDx=0;exitDy=0;entryX=0.25;entryY=1;entryDx=0;entryDy=0;" parent="1" source="opinZByBXcBgXd5qWuDY-2" target="opinZByBXcBgXd5qWuDY-1" edge="1">
          <mxGeometry relative="1" as="geometry" />
        </mxCell>
        <mxCell id="opinZByBXcBgXd5qWuDY-2" value="Manage Transition" style="rounded=1;whiteSpace=wrap;html=1;" parent="1" vertex="1">
          <mxGeometry x="250" y="520" width="120" height="60" as="geometry" />
        </mxCell>
        <mxCell id="opinZByBXcBgXd5qWuDY-15" style="edgeStyle=orthogonalEdgeStyle;rounded=0;orthogonalLoop=1;jettySize=auto;html=1;entryX=0.5;entryY=1;entryDx=0;entryDy=0;exitX=0.5;exitY=0;exitDx=0;exitDy=0;" parent="1" source="opinZByBXcBgXd5qWuDY-3" target="opinZByBXcBgXd5qWuDY-1" edge="1">
          <mxGeometry relative="1" as="geometry">
            <mxPoint x="550" y="420" as="sourcePoint" />
            <Array as="points">
              <mxPoint x="550" y="510" />
              <mxPoint x="550" y="490" />
              <mxPoint x="100" y="490" />
            </Array>
          </mxGeometry>
        </mxCell>
        <mxCell id="y7aiFF8EQfj3_wNpehj5-9" style="edgeStyle=orthogonalEdgeStyle;rounded=0;orthogonalLoop=1;jettySize=auto;html=1;exitX=1;exitY=0;exitDx=0;exitDy=0;entryX=0.75;entryY=1;entryDx=0;entryDy=0;" parent="1" source="opinZByBXcBgXd5qWuDY-3" target="y7aiFF8EQfj3_wNpehj5-1" edge="1">
          <mxGeometry relative="1" as="geometry" />
        </mxCell>
        <mxCell id="opinZByBXcBgXd5qWuDY-3" value="Manage Payment / Revenue" style="rounded=1;whiteSpace=wrap;html=1;" parent="1" vertex="1">
          <mxGeometry x="500" y="510" width="120" height="60" as="geometry" />
        </mxCell>
        <mxCell id="opinZByBXcBgXd5qWuDY-10" style="edgeStyle=orthogonalEdgeStyle;rounded=0;orthogonalLoop=1;jettySize=auto;html=1;exitX=1;exitY=0.75;exitDx=0;exitDy=0;entryX=0;entryY=0.75;entryDx=0;entryDy=0;" parent="1" source="opinZByBXcBgXd5qWuDY-4" target="opinZByBXcBgXd5qWuDY-6" edge="1">
          <mxGeometry relative="1" as="geometry">
            <mxPoint x="720" y="280" as="targetPoint" />
          </mxGeometry>
        </mxCell>
        <mxCell id="opinZByBXcBgXd5qWuDY-12" style="edgeStyle=orthogonalEdgeStyle;rounded=0;orthogonalLoop=1;jettySize=auto;html=1;entryX=1;entryY=0.25;entryDx=0;entryDy=0;exitX=0;exitY=0.25;exitDx=0;exitDy=0;" parent="1" source="opinZByBXcBgXd5qWuDY-4" target="opinZByBXcBgXd5qWuDY-1" edge="1">
          <mxGeometry relative="1" as="geometry" />
        </mxCell>
        <mxCell id="y7aiFF8EQfj3_wNpehj5-3" style="edgeStyle=orthogonalEdgeStyle;rounded=0;orthogonalLoop=1;jettySize=auto;html=1;exitX=0.75;exitY=1;exitDx=0;exitDy=0;entryX=0;entryY=0.25;entryDx=0;entryDy=0;" parent="1" source="opinZByBXcBgXd5qWuDY-4" target="y7aiFF8EQfj3_wNpehj5-1" edge="1">
          <mxGeometry relative="1" as="geometry" />
        </mxCell>
        <mxCell id="opinZByBXcBgXd5qWuDY-4" value="Manage Product Information" style="rounded=1;whiteSpace=wrap;html=1;" parent="1" vertex="1">
          <mxGeometry x="370" y="240" width="120" height="60" as="geometry" />
        </mxCell>
        <mxCell id="opinZByBXcBgXd5qWuDY-20" style="edgeStyle=orthogonalEdgeStyle;rounded=0;orthogonalLoop=1;jettySize=auto;html=1;exitX=1;exitY=0.75;exitDx=0;exitDy=0;entryX=0.25;entryY=0;entryDx=0;entryDy=0;" parent="1" source="opinZByBXcBgXd5qWuDY-5" target="opinZByBXcBgXd5qWuDY-6" edge="1">
          <mxGeometry relative="1" as="geometry" />
        </mxCell>
        <mxCell id="opinZByBXcBgXd5qWuDY-22" style="edgeStyle=orthogonalEdgeStyle;rounded=0;orthogonalLoop=1;jettySize=auto;html=1;exitX=1;exitY=0.25;exitDx=0;exitDy=0;entryX=0.75;entryY=0;entryDx=0;entryDy=0;" parent="1" source="opinZByBXcBgXd5qWuDY-5" target="opinZByBXcBgXd5qWuDY-6" edge="1">
          <mxGeometry relative="1" as="geometry" />
        </mxCell>
        <mxCell id="opinZByBXcBgXd5qWuDY-5" value="Manage Customer Info" style="rounded=1;whiteSpace=wrap;html=1;" parent="1" vertex="1">
          <mxGeometry x="370" y="110" width="120" height="60" as="geometry" />
        </mxCell>
        <mxCell id="opinZByBXcBgXd5qWuDY-13" style="edgeStyle=orthogonalEdgeStyle;rounded=0;orthogonalLoop=1;jettySize=auto;html=1;entryX=1;entryY=0.25;entryDx=0;entryDy=0;exitX=0;exitY=0.25;exitDx=0;exitDy=0;" parent="1" source="opinZByBXcBgXd5qWuDY-6" target="opinZByBXcBgXd5qWuDY-4" edge="1">
          <mxGeometry relative="1" as="geometry" />
        </mxCell>
        <mxCell id="opinZByBXcBgXd5qWuDY-14" style="edgeStyle=orthogonalEdgeStyle;rounded=0;orthogonalLoop=1;jettySize=auto;html=1;entryX=1;entryY=0.5;entryDx=0;entryDy=0;exitX=0.5;exitY=1;exitDx=0;exitDy=0;" parent="1" source="opinZByBXcBgXd5qWuDY-6" target="opinZByBXcBgXd5qWuDY-3" edge="1">
          <mxGeometry relative="1" as="geometry" />
        </mxCell>
        <mxCell id="y7aiFF8EQfj3_wNpehj5-7" style="edgeStyle=orthogonalEdgeStyle;rounded=0;orthogonalLoop=1;jettySize=auto;html=1;exitX=0.75;exitY=1;exitDx=0;exitDy=0;entryX=0.75;entryY=1;entryDx=0;entryDy=0;" parent="1" source="opinZByBXcBgXd5qWuDY-6" target="opinZByBXcBgXd5qWuDY-2" edge="1">
          <mxGeometry relative="1" as="geometry" />
        </mxCell>
        <mxCell id="opinZByBXcBgXd5qWuDY-6" value="Web Admin" style="rounded=1;whiteSpace=wrap;html=1;" parent="1" vertex="1">
          <mxGeometry x="720" y="240" width="120" height="60" as="geometry" />
        </mxCell>
        <mxCell id="opinZByBXcBgXd5qWuDY-19" style="edgeStyle=orthogonalEdgeStyle;rounded=0;orthogonalLoop=1;jettySize=auto;html=1;exitX=0.75;exitY=0;exitDx=0;exitDy=0;entryX=-0.002;entryY=0.62;entryDx=0;entryDy=0;entryPerimeter=0;" parent="1" source="opinZByBXcBgXd5qWuDY-1" target="opinZByBXcBgXd5qWuDY-5" edge="1">
          <mxGeometry relative="1" as="geometry" />
        </mxCell>
        <mxCell id="kT7j_-j5ZaCu0x4wxPMF-1" value="Customer Info" style="text;html=1;align=center;verticalAlign=middle;resizable=0;points=[];autosize=1;strokeColor=none;fillColor=none;" parent="1" vertex="1">
          <mxGeometry x="170" y="98" width="100" height="30" as="geometry" />
        </mxCell>
        <mxCell id="kT7j_-j5ZaCu0x4wxPMF-2" value="Customer Info" style="text;html=1;align=center;verticalAlign=middle;resizable=0;points=[];autosize=1;strokeColor=none;fillColor=none;" parent="1" vertex="1">
          <mxGeometry x="650" y="98" width="100" height="30" as="geometry" />
        </mxCell>
        <mxCell id="kT7j_-j5ZaCu0x4wxPMF-3" value="Order Details" style="text;html=1;align=center;verticalAlign=middle;resizable=0;points=[];autosize=1;strokeColor=none;fillColor=none;" parent="1" vertex="1">
          <mxGeometry x="185" y="148" width="90" height="30" as="geometry" />
        </mxCell>
        <mxCell id="kT7j_-j5ZaCu0x4wxPMF-4" value="Order Details" style="text;html=1;align=center;verticalAlign=middle;resizable=0;points=[];autosize=1;strokeColor=none;fillColor=none;" parent="1" vertex="1">
          <mxGeometry x="595" y="158" width="90" height="30" as="geometry" />
        </mxCell>
        <mxCell id="kT7j_-j5ZaCu0x4wxPMF-6" value="Purchase Details" style="text;html=1;align=center;verticalAlign=middle;resizable=0;points=[];autosize=1;strokeColor=none;fillColor=none;" parent="1" vertex="1">
          <mxGeometry x="205" y="230" width="110" height="30" as="geometry" />
        </mxCell>
        <mxCell id="kT7j_-j5ZaCu0x4wxPMF-7" value="Product Details" style="text;html=1;align=center;verticalAlign=middle;resizable=0;points=[];autosize=1;strokeColor=none;fillColor=none;" parent="1" vertex="1">
          <mxGeometry x="550" y="228" width="100" height="30" as="geometry" />
        </mxCell>
        <mxCell id="kT7j_-j5ZaCu0x4wxPMF-8" value="Purchase Claims" style="text;html=1;align=center;verticalAlign=middle;resizable=0;points=[];autosize=1;strokeColor=none;fillColor=none;" parent="1" vertex="1">
          <mxGeometry x="175" y="278" width="110" height="30" as="geometry" />
        </mxCell>
        <mxCell id="kT7j_-j5ZaCu0x4wxPMF-9" value="Category List" style="text;html=1;align=center;verticalAlign=middle;resizable=0;points=[];autosize=1;strokeColor=none;fillColor=none;" parent="1" vertex="1">
          <mxGeometry x="555" y="278" width="90" height="30" as="geometry" />
        </mxCell>
        <mxCell id="kT7j_-j5ZaCu0x4wxPMF-10" value="Payment Details" style="text;html=1;align=center;verticalAlign=middle;resizable=0;points=[];autosize=1;strokeColor=none;fillColor=none;" parent="1" vertex="1">
          <mxGeometry x="250" y="440" width="110" height="30" as="geometry" />
        </mxCell>
        <mxCell id="kT7j_-j5ZaCu0x4wxPMF-11" value="Transaction Update" style="text;html=1;align=center;verticalAlign=middle;resizable=0;points=[];autosize=1;strokeColor=none;fillColor=none;" parent="1" vertex="1">
          <mxGeometry x="570" y="610" width="130" height="30" as="geometry" />
        </mxCell>
        <mxCell id="kT7j_-j5ZaCu0x4wxPMF-12" value="Receipt Details" style="text;html=1;align=center;verticalAlign=middle;resizable=0;points=[];autosize=1;strokeColor=none;fillColor=none;" parent="1" vertex="1">
          <mxGeometry x="110" y="610" width="100" height="30" as="geometry" />
        </mxCell>
        <mxCell id="kT7j_-j5ZaCu0x4wxPMF-13" value="List Of Product" style="text;html=1;align=center;verticalAlign=middle;resizable=0;points=[];autosize=1;strokeColor=none;fillColor=none;" parent="1" vertex="1">
          <mxGeometry x="685" y="368" width="100" height="30" as="geometry" />
        </mxCell>
        <mxCell id="y7aiFF8EQfj3_wNpehj5-2" style="edgeStyle=orthogonalEdgeStyle;rounded=0;orthogonalLoop=1;jettySize=auto;html=1;entryX=0.25;entryY=1;entryDx=0;entryDy=0;exitX=0;exitY=0.75;exitDx=0;exitDy=0;" parent="1" source="y7aiFF8EQfj3_wNpehj5-1" target="opinZByBXcBgXd5qWuDY-4" edge="1">
          <mxGeometry relative="1" as="geometry" />
        </mxCell>
        <mxCell id="y7aiFF8EQfj3_wNpehj5-1" value="Seller" style="rounded=1;whiteSpace=wrap;html=1;" parent="1" vertex="1">
          <mxGeometry x="520" y="380" width="120" height="60" as="geometry" />
        </mxCell>
        <mxCell id="y7aiFF8EQfj3_wNpehj5-4" value="Upload Product" style="text;html=1;align=center;verticalAlign=middle;resizable=0;points=[];autosize=1;strokeColor=none;fillColor=none;" parent="1" vertex="1">
          <mxGeometry x="300" y="338" width="110" height="30" as="geometry" />
        </mxCell>
        <mxCell id="y7aiFF8EQfj3_wNpehj5-5" value="Update Product" style="text;html=1;align=center;verticalAlign=middle;resizable=0;points=[];autosize=1;strokeColor=none;fillColor=none;" parent="1" vertex="1">
          <mxGeometry x="450" y="308" width="110" height="30" as="geometry" />
        </mxCell>
        <mxCell id="y7aiFF8EQfj3_wNpehj5-11" value="Payment&amp;nbsp;&lt;br&gt;product" style="text;html=1;align=center;verticalAlign=middle;resizable=0;points=[];autosize=1;strokeColor=none;fillColor=none;" parent="1" vertex="1">
          <mxGeometry x="620" y="465" width="70" height="40" as="geometry" />
        </mxCell>
      </root>
    </mxGraphModel>
  </diagram>
  <diagram id="FSTepLVRqEbFi9tC4zER" name="Page-7">
    <mxGraphModel dx="1176" dy="496" grid="1" gridSize="10" guides="1" tooltips="1" connect="1" arrows="1" fold="1" page="1" pageScale="1" pageWidth="850" pageHeight="1100" math="0" shadow="0">
      <root>
        <mxCell id="0" />
        <mxCell id="1" parent="0" />
        <mxCell id="-jiXrCyIPwYaALoQgyUU-20" style="edgeStyle=orthogonalEdgeStyle;rounded=0;orthogonalLoop=1;jettySize=auto;html=1;curved=0;" parent="1" source="-jiXrCyIPwYaALoQgyUU-2" target="-jiXrCyIPwYaALoQgyUU-6" edge="1">
          <mxGeometry relative="1" as="geometry">
            <Array as="points">
              <mxPoint x="340" y="250" />
              <mxPoint x="340" y="250" />
            </Array>
          </mxGeometry>
        </mxCell>
        <mxCell id="-jiXrCyIPwYaALoQgyUU-32" value="Veerify()" style="edgeLabel;html=1;align=center;verticalAlign=middle;resizable=0;points=[];" parent="-jiXrCyIPwYaALoQgyUU-20" vertex="1" connectable="0">
          <mxGeometry x="-0.1412" y="1" relative="1" as="geometry">
            <mxPoint as="offset" />
          </mxGeometry>
        </mxCell>
        <mxCell id="-jiXrCyIPwYaALoQgyUU-21" style="edgeStyle=orthogonalEdgeStyle;rounded=0;orthogonalLoop=1;jettySize=auto;html=1;curved=0;" parent="1" source="-jiXrCyIPwYaALoQgyUU-2" target="-jiXrCyIPwYaALoQgyUU-6" edge="1">
          <mxGeometry relative="1" as="geometry">
            <Array as="points">
              <mxPoint x="340" y="610" />
              <mxPoint x="340" y="610" />
            </Array>
          </mxGeometry>
        </mxCell>
        <mxCell id="-jiXrCyIPwYaALoQgyUU-51" value="Email()" style="edgeLabel;html=1;align=center;verticalAlign=middle;resizable=0;points=[];" parent="-jiXrCyIPwYaALoQgyUU-21" vertex="1" connectable="0">
          <mxGeometry x="0.0788" relative="1" as="geometry">
            <mxPoint as="offset" />
          </mxGeometry>
        </mxCell>
        <mxCell id="-jiXrCyIPwYaALoQgyUU-22" style="edgeStyle=orthogonalEdgeStyle;rounded=0;orthogonalLoop=1;jettySize=auto;html=1;curved=0;" parent="1" source="-jiXrCyIPwYaALoQgyUU-2" target="-jiXrCyIPwYaALoQgyUU-6" edge="1">
          <mxGeometry relative="1" as="geometry">
            <Array as="points">
              <mxPoint x="350" y="510" />
              <mxPoint x="350" y="510" />
            </Array>
          </mxGeometry>
        </mxCell>
        <mxCell id="-jiXrCyIPwYaALoQgyUU-47" value="Display&amp;nbsp; To Customer()" style="edgeLabel;html=1;align=center;verticalAlign=middle;resizable=0;points=[];" parent="-jiXrCyIPwYaALoQgyUU-22" vertex="1" connectable="0">
          <mxGeometry x="0.0688" y="-5" relative="1" as="geometry">
            <mxPoint as="offset" />
          </mxGeometry>
        </mxCell>
        <mxCell id="-jiXrCyIPwYaALoQgyUU-23" style="edgeStyle=orthogonalEdgeStyle;rounded=0;orthogonalLoop=1;jettySize=auto;html=1;curved=0;" parent="1" source="-jiXrCyIPwYaALoQgyUU-2" target="-jiXrCyIPwYaALoQgyUU-6" edge="1">
          <mxGeometry relative="1" as="geometry">
            <mxPoint x="250" y="640" as="sourcePoint" />
            <mxPoint x="450" y="640" as="targetPoint" />
            <Array as="points">
              <mxPoint x="370" y="640" />
              <mxPoint x="370" y="641" />
            </Array>
          </mxGeometry>
        </mxCell>
        <mxCell id="-jiXrCyIPwYaALoQgyUU-52" value="Product Deliver()" style="edgeLabel;html=1;align=center;verticalAlign=middle;resizable=0;points=[];" parent="-jiXrCyIPwYaALoQgyUU-23" vertex="1" connectable="0">
          <mxGeometry x="-0.1362" relative="1" as="geometry">
            <mxPoint as="offset" />
          </mxGeometry>
        </mxCell>
        <mxCell id="-jiXrCyIPwYaALoQgyUU-2" value="E-commerce /Admin" style="shape=umlLifeline;perimeter=lifelinePerimeter;whiteSpace=wrap;html=1;container=1;dropTarget=0;collapsible=0;recursiveResize=0;outlineConnect=0;portConstraint=eastwest;newEdgeStyle={&quot;curved&quot;:0,&quot;rounded&quot;:0};" parent="1" vertex="1">
          <mxGeometry x="190" y="80" width="100" height="670" as="geometry" />
        </mxCell>
        <mxCell id="WaD_5YX3cpv_LyueJXDJ-2" value="" style="html=1;points=[[0,0,0,0,5],[0,1,0,0,-5],[1,0,0,0,5],[1,1,0,0,-5]];perimeter=orthogonalPerimeter;outlineConnect=0;targetShapes=umlLifeline;portConstraint=eastwest;newEdgeStyle={&quot;curved&quot;:0,&quot;rounded&quot;:0};strokeColor=#E07A5F;fontColor=#393C56;fillColor=#F2CC8F;" parent="-jiXrCyIPwYaALoQgyUU-2" vertex="1">
          <mxGeometry x="45" y="400" width="10" height="220" as="geometry" />
        </mxCell>
        <mxCell id="WaD_5YX3cpv_LyueJXDJ-3" value="" style="html=1;points=[[0,0,0,0,5],[0,1,0,0,-5],[1,0,0,0,5],[1,1,0,0,-5]];perimeter=orthogonalPerimeter;outlineConnect=0;targetShapes=umlLifeline;portConstraint=eastwest;newEdgeStyle={&quot;curved&quot;:0,&quot;rounded&quot;:0};strokeColor=#E07A5F;fontColor=#393C56;fillColor=#F2CC8F;" parent="-jiXrCyIPwYaALoQgyUU-2" vertex="1">
          <mxGeometry x="45" y="70" width="10" height="130" as="geometry" />
        </mxCell>
        <mxCell id="-jiXrCyIPwYaALoQgyUU-16" style="edgeStyle=orthogonalEdgeStyle;rounded=0;orthogonalLoop=1;jettySize=auto;html=1;curved=0;" parent="1" source="-jiXrCyIPwYaALoQgyUU-3" target="-jiXrCyIPwYaALoQgyUU-2" edge="1">
          <mxGeometry relative="1" as="geometry">
            <Array as="points">
              <mxPoint x="140" y="170" />
              <mxPoint x="140" y="170" />
            </Array>
          </mxGeometry>
        </mxCell>
        <mxCell id="-jiXrCyIPwYaALoQgyUU-18" value="Register" style="edgeLabel;html=1;align=center;verticalAlign=middle;resizable=0;points=[];" parent="-jiXrCyIPwYaALoQgyUU-16" vertex="1" connectable="0">
          <mxGeometry x="-0.0681" y="2" relative="1" as="geometry">
            <mxPoint as="offset" />
          </mxGeometry>
        </mxCell>
        <mxCell id="-jiXrCyIPwYaALoQgyUU-17" style="edgeStyle=orthogonalEdgeStyle;rounded=0;orthogonalLoop=1;jettySize=auto;html=1;curved=0;" parent="1" edge="1">
          <mxGeometry relative="1" as="geometry">
            <mxPoint x="74.5" y="220" as="sourcePoint" />
            <mxPoint x="239.5" y="220" as="targetPoint" />
          </mxGeometry>
        </mxCell>
        <mxCell id="-jiXrCyIPwYaALoQgyUU-19" value="Login" style="edgeLabel;html=1;align=center;verticalAlign=middle;resizable=0;points=[];" parent="-jiXrCyIPwYaALoQgyUU-17" vertex="1" connectable="0">
          <mxGeometry x="-0.153" y="-1" relative="1" as="geometry">
            <mxPoint as="offset" />
          </mxGeometry>
        </mxCell>
        <mxCell id="-jiXrCyIPwYaALoQgyUU-3" value="" style="shape=umlLifeline;perimeter=lifelinePerimeter;whiteSpace=wrap;html=1;container=1;dropTarget=0;collapsible=0;recursiveResize=0;outlineConnect=0;portConstraint=eastwest;newEdgeStyle={&quot;curved&quot;:0,&quot;rounded&quot;:0};participant=umlActor;" parent="1" vertex="1">
          <mxGeometry x="50" y="80" width="50" height="650" as="geometry" />
        </mxCell>
        <mxCell id="WaD_5YX3cpv_LyueJXDJ-1" value="" style="html=1;points=[[0,0,0,0,5],[0,1,0,0,-5],[1,0,0,0,5],[1,1,0,0,-5]];perimeter=orthogonalPerimeter;outlineConnect=0;targetShapes=umlLifeline;portConstraint=eastwest;newEdgeStyle={&quot;curved&quot;:0,&quot;rounded&quot;:0};strokeColor=#E07A5F;fontColor=#393C56;fillColor=#F2CC8F;" parent="-jiXrCyIPwYaALoQgyUU-3" vertex="1">
          <mxGeometry x="20" y="80" width="10" height="80" as="geometry" />
        </mxCell>
        <mxCell id="-jiXrCyIPwYaALoQgyUU-25" style="edgeStyle=orthogonalEdgeStyle;rounded=0;orthogonalLoop=1;jettySize=auto;html=1;curved=0;" parent="1" source="-jiXrCyIPwYaALoQgyUU-6" target="-jiXrCyIPwYaALoQgyUU-2" edge="1">
          <mxGeometry relative="1" as="geometry">
            <Array as="points">
              <mxPoint x="340" y="540" />
              <mxPoint x="340" y="540" />
            </Array>
          </mxGeometry>
        </mxCell>
        <mxCell id="-jiXrCyIPwYaALoQgyUU-49" value="add Details()" style="edgeLabel;html=1;align=center;verticalAlign=middle;resizable=0;points=[];" parent="-jiXrCyIPwYaALoQgyUU-25" vertex="1" connectable="0">
          <mxGeometry x="0.0212" y="2" relative="1" as="geometry">
            <mxPoint as="offset" />
          </mxGeometry>
        </mxCell>
        <mxCell id="-jiXrCyIPwYaALoQgyUU-26" style="edgeStyle=orthogonalEdgeStyle;rounded=0;orthogonalLoop=1;jettySize=auto;html=1;curved=0;" parent="1" source="-jiXrCyIPwYaALoQgyUU-6" target="-jiXrCyIPwYaALoQgyUU-2" edge="1">
          <mxGeometry relative="1" as="geometry">
            <Array as="points">
              <mxPoint x="360" y="570" />
              <mxPoint x="360" y="570" />
            </Array>
          </mxGeometry>
        </mxCell>
        <mxCell id="-jiXrCyIPwYaALoQgyUU-50" value="Payment()" style="edgeLabel;html=1;align=center;verticalAlign=middle;resizable=0;points=[];" parent="-jiXrCyIPwYaALoQgyUU-26" vertex="1" connectable="0">
          <mxGeometry x="-0.0188" y="3" relative="1" as="geometry">
            <mxPoint as="offset" />
          </mxGeometry>
        </mxCell>
        <mxCell id="-jiXrCyIPwYaALoQgyUU-27" style="edgeStyle=orthogonalEdgeStyle;rounded=0;orthogonalLoop=1;jettySize=auto;html=1;curved=0;" parent="1" source="-jiXrCyIPwYaALoQgyUU-6" target="-jiXrCyIPwYaALoQgyUU-2" edge="1">
          <mxGeometry relative="1" as="geometry">
            <Array as="points">
              <mxPoint x="340" y="670" />
              <mxPoint x="340" y="670" />
            </Array>
          </mxGeometry>
        </mxCell>
        <mxCell id="-jiXrCyIPwYaALoQgyUU-53" value="Logout()" style="edgeLabel;html=1;align=center;verticalAlign=middle;resizable=0;points=[];" parent="-jiXrCyIPwYaALoQgyUU-27" vertex="1" connectable="0">
          <mxGeometry x="0.0712" y="1" relative="1" as="geometry">
            <mxPoint as="offset" />
          </mxGeometry>
        </mxCell>
        <mxCell id="-jiXrCyIPwYaALoQgyUU-36" style="edgeStyle=orthogonalEdgeStyle;rounded=0;orthogonalLoop=1;jettySize=auto;html=1;curved=0;" parent="1" edge="1">
          <mxGeometry relative="1" as="geometry">
            <mxPoint x="439.5" y="364.5" as="sourcePoint" />
            <mxPoint x="639.5" y="364.5" as="targetPoint" />
          </mxGeometry>
        </mxCell>
        <mxCell id="-jiXrCyIPwYaALoQgyUU-37" value="Get Product Info" style="edgeLabel;html=1;align=center;verticalAlign=middle;resizable=0;points=[];" parent="-jiXrCyIPwYaALoQgyUU-36" vertex="1" connectable="0">
          <mxGeometry x="-0.0612" y="3" relative="1" as="geometry">
            <mxPoint as="offset" />
          </mxGeometry>
        </mxCell>
        <mxCell id="-jiXrCyIPwYaALoQgyUU-45" style="edgeStyle=orthogonalEdgeStyle;rounded=0;orthogonalLoop=1;jettySize=auto;html=1;curved=0;" parent="1" source="-jiXrCyIPwYaALoQgyUU-6" target="-jiXrCyIPwYaALoQgyUU-7" edge="1">
          <mxGeometry relative="1" as="geometry">
            <Array as="points">
              <mxPoint x="570" y="520" />
              <mxPoint x="570" y="520" />
            </Array>
          </mxGeometry>
        </mxCell>
        <mxCell id="-jiXrCyIPwYaALoQgyUU-46" value="Buy Product()" style="edgeLabel;html=1;align=center;verticalAlign=middle;resizable=0;points=[];" parent="-jiXrCyIPwYaALoQgyUU-45" vertex="1" connectable="0">
          <mxGeometry x="-0.0612" y="-3" relative="1" as="geometry">
            <mxPoint as="offset" />
          </mxGeometry>
        </mxCell>
        <mxCell id="-jiXrCyIPwYaALoQgyUU-6" value="Customer" style="shape=umlLifeline;perimeter=lifelinePerimeter;whiteSpace=wrap;html=1;container=1;dropTarget=0;collapsible=0;recursiveResize=0;outlineConnect=0;portConstraint=eastwest;newEdgeStyle={&quot;curved&quot;:0,&quot;rounded&quot;:0};" parent="1" vertex="1">
          <mxGeometry x="390" y="80" width="100" height="670" as="geometry" />
        </mxCell>
        <mxCell id="WaD_5YX3cpv_LyueJXDJ-4" value="" style="html=1;points=[[0,0,0,0,5],[0,1,0,0,-5],[1,0,0,0,5],[1,1,0,0,-5]];perimeter=orthogonalPerimeter;outlineConnect=0;targetShapes=umlLifeline;portConstraint=eastwest;newEdgeStyle={&quot;curved&quot;:0,&quot;rounded&quot;:0};strokeColor=#E07A5F;fontColor=#393C56;fillColor=#F2CC8F;" parent="-jiXrCyIPwYaALoQgyUU-6" vertex="1">
          <mxGeometry x="45" y="140" width="10" height="490" as="geometry" />
        </mxCell>
        <mxCell id="-jiXrCyIPwYaALoQgyUU-38" style="edgeStyle=orthogonalEdgeStyle;rounded=0;orthogonalLoop=1;jettySize=auto;html=1;curved=0;" parent="1" source="-jiXrCyIPwYaALoQgyUU-7" target="-jiXrCyIPwYaALoQgyUU-8" edge="1">
          <mxGeometry relative="1" as="geometry">
            <Array as="points">
              <mxPoint x="750" y="385" />
              <mxPoint x="750" y="385" />
            </Array>
          </mxGeometry>
        </mxCell>
        <mxCell id="-jiXrCyIPwYaALoQgyUU-39" value="Search in database" style="edgeLabel;html=1;align=center;verticalAlign=middle;resizable=0;points=[];" parent="-jiXrCyIPwYaALoQgyUU-38" vertex="1" connectable="0">
          <mxGeometry x="-0.0283" relative="1" as="geometry">
            <mxPoint as="offset" />
          </mxGeometry>
        </mxCell>
        <mxCell id="-jiXrCyIPwYaALoQgyUU-43" style="edgeStyle=orthogonalEdgeStyle;rounded=0;orthogonalLoop=1;jettySize=auto;html=1;curved=0;" parent="1" edge="1">
          <mxGeometry relative="1" as="geometry">
            <mxPoint x="639.5" y="480" as="sourcePoint" />
            <mxPoint x="439.5" y="480" as="targetPoint" />
          </mxGeometry>
        </mxCell>
        <mxCell id="-jiXrCyIPwYaALoQgyUU-44" value="Display Product Info" style="edgeLabel;html=1;align=center;verticalAlign=middle;resizable=0;points=[];" parent="-jiXrCyIPwYaALoQgyUU-43" vertex="1" connectable="0">
          <mxGeometry x="0.1312" relative="1" as="geometry">
            <mxPoint as="offset" />
          </mxGeometry>
        </mxCell>
        <mxCell id="-jiXrCyIPwYaALoQgyUU-7" value="Product" style="shape=umlLifeline;perimeter=lifelinePerimeter;whiteSpace=wrap;html=1;container=1;dropTarget=0;collapsible=0;recursiveResize=0;outlineConnect=0;portConstraint=eastwest;newEdgeStyle={&quot;curved&quot;:0,&quot;rounded&quot;:0};" parent="1" vertex="1">
          <mxGeometry x="590" y="80" width="100" height="660" as="geometry" />
        </mxCell>
        <mxCell id="WaD_5YX3cpv_LyueJXDJ-5" value="" style="html=1;points=[[0,0,0,0,5],[0,1,0,0,-5],[1,0,0,0,5],[1,1,0,0,-5]];perimeter=orthogonalPerimeter;outlineConnect=0;targetShapes=umlLifeline;portConstraint=eastwest;newEdgeStyle={&quot;curved&quot;:0,&quot;rounded&quot;:0};strokeColor=#E07A5F;fontColor=#393C56;fillColor=#F2CC8F;" parent="-jiXrCyIPwYaALoQgyUU-7" vertex="1">
          <mxGeometry x="45" y="240" width="10" height="230" as="geometry" />
        </mxCell>
        <mxCell id="-jiXrCyIPwYaALoQgyUU-8" value="Database" style="shape=umlLifeline;perimeter=lifelinePerimeter;whiteSpace=wrap;html=1;container=1;dropTarget=0;collapsible=0;recursiveResize=0;outlineConnect=0;portConstraint=eastwest;newEdgeStyle={&quot;curved&quot;:0,&quot;rounded&quot;:0};" parent="1" vertex="1">
          <mxGeometry x="750" y="80" width="100" height="660" as="geometry" />
        </mxCell>
        <mxCell id="-jiXrCyIPwYaALoQgyUU-28" value="" style="shape=partialRectangle;fillColor=none;align=left;verticalAlign=middle;strokeColor=none;spacingLeft=34;rotatable=0;points=[[0,0.5],[1,0.5]];portConstraint=eastwest;dropTarget=0;" parent="1" vertex="1">
          <mxGeometry x="410" y="450" width="90" height="30" as="geometry" />
        </mxCell>
        <mxCell id="-jiXrCyIPwYaALoQgyUU-29" value="" style="shape=partialRectangle;top=0;left=0;bottom=0;fillColor=none;stokeWidth=1;dashed=1;align=left;verticalAlign=middle;spacingLeft=4;spacingRight=4;overflow=hidden;rotatable=0;points=[];portConstraint=eastwest;part=1;" parent="-jiXrCyIPwYaALoQgyUU-28" vertex="1" connectable="0">
          <mxGeometry width="30" height="30" as="geometry" />
        </mxCell>
        <mxCell id="-jiXrCyIPwYaALoQgyUU-34" style="edgeStyle=orthogonalEdgeStyle;rounded=0;orthogonalLoop=1;jettySize=auto;html=1;curved=0;" parent="1" target="-jiXrCyIPwYaALoQgyUU-6" edge="1">
          <mxGeometry relative="1" as="geometry">
            <mxPoint x="439.5" y="270" as="sourcePoint" />
            <mxPoint x="500" y="360" as="targetPoint" />
            <Array as="points">
              <mxPoint x="580" y="270" />
              <mxPoint x="580" y="320" />
            </Array>
          </mxGeometry>
        </mxCell>
        <mxCell id="-jiXrCyIPwYaALoQgyUU-35" value="Check Account()" style="edgeLabel;html=1;align=center;verticalAlign=middle;resizable=0;points=[];" parent="-jiXrCyIPwYaALoQgyUU-34" vertex="1" connectable="0">
          <mxGeometry x="0.0461" relative="1" as="geometry">
            <mxPoint as="offset" />
          </mxGeometry>
        </mxCell>
        <mxCell id="-jiXrCyIPwYaALoQgyUU-40" style="edgeStyle=orthogonalEdgeStyle;rounded=0;orthogonalLoop=1;jettySize=auto;html=1;curved=0;" parent="1" source="-jiXrCyIPwYaALoQgyUU-8" target="-jiXrCyIPwYaALoQgyUU-7" edge="1">
          <mxGeometry relative="1" as="geometry">
            <Array as="points">
              <mxPoint x="730" y="440" />
              <mxPoint x="730" y="440" />
            </Array>
          </mxGeometry>
        </mxCell>
        <mxCell id="-jiXrCyIPwYaALoQgyUU-42" value="Provide Product Info" style="edgeLabel;html=1;align=center;verticalAlign=middle;resizable=0;points=[];" parent="-jiXrCyIPwYaALoQgyUU-40" vertex="1" connectable="0">
          <mxGeometry x="0.2416" y="-3" relative="1" as="geometry">
            <mxPoint as="offset" />
          </mxGeometry>
        </mxCell>
      </root>
    </mxGraphModel>
  </diagram>
  <diagram id="Dow-8iVdbXQK0hq4-zke" name="Page-8">
    <mxGraphModel dx="1176" dy="496" grid="1" gridSize="10" guides="1" tooltips="1" connect="1" arrows="1" fold="1" page="1" pageScale="1" pageWidth="850" pageHeight="1100" math="0" shadow="0">
      <root>
        <mxCell id="0" />
        <mxCell id="1" parent="0" />
        <mxCell id="-VMBmMZdC-g06y-LkfWb-9" value="User" style="swimlane;fontStyle=1;align=center;verticalAlign=top;childLayout=stackLayout;horizontal=1;startSize=26;horizontalStack=0;resizeParent=1;resizeParentMax=0;resizeLast=0;collapsible=1;marginBottom=0;whiteSpace=wrap;html=1;" parent="1" vertex="1">
          <mxGeometry x="300" y="80" width="170" height="150" as="geometry" />
        </mxCell>
        <mxCell id="-VMBmMZdC-g06y-LkfWb-10" value="+user_id:int&lt;br&gt;+user_Password:String&lt;br&gt;+user_email:String&lt;br&gt;+user_contact:int" style="text;strokeColor=none;fillColor=none;align=left;verticalAlign=top;spacingLeft=4;spacingRight=4;overflow=hidden;rotatable=0;points=[[0,0.5],[1,0.5]];portConstraint=eastwest;whiteSpace=wrap;html=1;" parent="-VMBmMZdC-g06y-LkfWb-9" vertex="1">
          <mxGeometry y="26" width="170" height="74" as="geometry" />
        </mxCell>
        <mxCell id="-VMBmMZdC-g06y-LkfWb-11" value="" style="line;strokeWidth=1;fillColor=none;align=left;verticalAlign=middle;spacingTop=-1;spacingLeft=3;spacingRight=3;rotatable=0;labelPosition=right;points=[];portConstraint=eastwest;strokeColor=inherit;" parent="-VMBmMZdC-g06y-LkfWb-9" vertex="1">
          <mxGeometry y="100" width="170" height="8" as="geometry" />
        </mxCell>
        <mxCell id="-VMBmMZdC-g06y-LkfWb-12" value="+verifyLogin()" style="text;strokeColor=none;fillColor=none;align=left;verticalAlign=top;spacingLeft=4;spacingRight=4;overflow=hidden;rotatable=0;points=[[0,0.5],[1,0.5]];portConstraint=eastwest;whiteSpace=wrap;html=1;" parent="-VMBmMZdC-g06y-LkfWb-9" vertex="1">
          <mxGeometry y="108" width="170" height="42" as="geometry" />
        </mxCell>
        <mxCell id="H_zMgAZm_VMr4QbAo7N0-1" value="Customer" style="swimlane;fontStyle=1;align=center;verticalAlign=top;childLayout=stackLayout;horizontal=1;startSize=26;horizontalStack=0;resizeParent=1;resizeParentMax=0;resizeLast=0;collapsible=1;marginBottom=0;whiteSpace=wrap;html=1;" parent="1" vertex="1">
          <mxGeometry x="100" y="290" width="170" height="170" as="geometry" />
        </mxCell>
        <mxCell id="H_zMgAZm_VMr4QbAo7N0-2" value="+C_id:int&lt;br&gt;+C_name:String&lt;br&gt;+C_address:String&lt;br&gt;+C_contact:int" style="text;strokeColor=none;fillColor=none;align=left;verticalAlign=top;spacingLeft=4;spacingRight=4;overflow=hidden;rotatable=0;points=[[0,0.5],[1,0.5]];portConstraint=eastwest;whiteSpace=wrap;html=1;" parent="H_zMgAZm_VMr4QbAo7N0-1" vertex="1">
          <mxGeometry y="26" width="170" height="84" as="geometry" />
        </mxCell>
        <mxCell id="H_zMgAZm_VMr4QbAo7N0-3" value="" style="line;strokeWidth=1;fillColor=none;align=left;verticalAlign=middle;spacingTop=-1;spacingLeft=3;spacingRight=3;rotatable=0;labelPosition=right;points=[];portConstraint=eastwest;strokeColor=inherit;" parent="H_zMgAZm_VMr4QbAo7N0-1" vertex="1">
          <mxGeometry y="110" width="170" height="8" as="geometry" />
        </mxCell>
        <mxCell id="H_zMgAZm_VMr4QbAo7N0-4" value="+Register()&lt;br&gt;+login()&lt;br&gt;+UpdateProfile" style="text;strokeColor=none;fillColor=none;align=left;verticalAlign=top;spacingLeft=4;spacingRight=4;overflow=hidden;rotatable=0;points=[[0,0.5],[1,0.5]];portConstraint=eastwest;whiteSpace=wrap;html=1;" parent="H_zMgAZm_VMr4QbAo7N0-1" vertex="1">
          <mxGeometry y="118" width="170" height="52" as="geometry" />
        </mxCell>
        <mxCell id="H_zMgAZm_VMr4QbAo7N0-5" value="Seller" style="swimlane;fontStyle=1;align=center;verticalAlign=top;childLayout=stackLayout;horizontal=1;startSize=26;horizontalStack=0;resizeParent=1;resizeParentMax=0;resizeLast=0;collapsible=1;marginBottom=0;whiteSpace=wrap;html=1;" parent="1" vertex="1">
          <mxGeometry x="610" y="100" width="170" height="170" as="geometry" />
        </mxCell>
        <mxCell id="H_zMgAZm_VMr4QbAo7N0-6" value="+S_id:int&lt;br&gt;+S_name:String&lt;br&gt;+S_title:String&lt;br&gt;+S_password:String&lt;br&gt;+S_address:String" style="text;strokeColor=none;fillColor=none;align=left;verticalAlign=top;spacingLeft=4;spacingRight=4;overflow=hidden;rotatable=0;points=[[0,0.5],[1,0.5]];portConstraint=eastwest;whiteSpace=wrap;html=1;" parent="H_zMgAZm_VMr4QbAo7N0-5" vertex="1">
          <mxGeometry y="26" width="170" height="84" as="geometry" />
        </mxCell>
        <mxCell id="H_zMgAZm_VMr4QbAo7N0-7" value="" style="line;strokeWidth=1;fillColor=none;align=left;verticalAlign=middle;spacingTop=-1;spacingLeft=3;spacingRight=3;rotatable=0;labelPosition=right;points=[];portConstraint=eastwest;strokeColor=inherit;" parent="H_zMgAZm_VMr4QbAo7N0-5" vertex="1">
          <mxGeometry y="110" width="170" height="8" as="geometry" />
        </mxCell>
        <mxCell id="H_zMgAZm_VMr4QbAo7N0-8" value="+Register()&lt;br style=&quot;border-color: var(--border-color);&quot;&gt;+login()&lt;br style=&quot;border-color: var(--border-color);&quot;&gt;+UpdateProfile" style="text;strokeColor=none;fillColor=none;align=left;verticalAlign=top;spacingLeft=4;spacingRight=4;overflow=hidden;rotatable=0;points=[[0,0.5],[1,0.5]];portConstraint=eastwest;whiteSpace=wrap;html=1;" parent="H_zMgAZm_VMr4QbAo7N0-5" vertex="1">
          <mxGeometry y="118" width="170" height="52" as="geometry" />
        </mxCell>
        <mxCell id="Q43pYpBe8QID9FfYm-Oc-1" value="Billing" style="swimlane;fontStyle=1;align=center;verticalAlign=top;childLayout=stackLayout;horizontal=1;startSize=26;horizontalStack=0;resizeParent=1;resizeParentMax=0;resizeLast=0;collapsible=1;marginBottom=0;whiteSpace=wrap;html=1;" parent="1" vertex="1">
          <mxGeometry x="510" y="835" width="250" height="180" as="geometry" />
        </mxCell>
        <mxCell id="Q43pYpBe8QID9FfYm-Oc-2" value="+B_id:int&lt;br&gt;+B_date:date&lt;br&gt;+B_address:String&lt;br&gt;+B_type:String&lt;br&gt;+O_id:int" style="text;strokeColor=none;fillColor=none;align=left;verticalAlign=top;spacingLeft=4;spacingRight=4;overflow=hidden;rotatable=0;points=[[0,0.5],[1,0.5]];portConstraint=eastwest;whiteSpace=wrap;html=1;" parent="Q43pYpBe8QID9FfYm-Oc-1" vertex="1">
          <mxGeometry y="26" width="250" height="84" as="geometry" />
        </mxCell>
        <mxCell id="Q43pYpBe8QID9FfYm-Oc-3" value="" style="line;strokeWidth=1;fillColor=none;align=left;verticalAlign=middle;spacingTop=-1;spacingLeft=3;spacingRight=3;rotatable=0;labelPosition=right;points=[];portConstraint=eastwest;strokeColor=inherit;" parent="Q43pYpBe8QID9FfYm-Oc-1" vertex="1">
          <mxGeometry y="110" width="250" height="8" as="geometry" />
        </mxCell>
        <mxCell id="Q43pYpBe8QID9FfYm-Oc-4" value="+conformTransaction()&lt;br&gt;+getPaymentDetails()&lt;br&gt;makeTransaction()" style="text;strokeColor=none;fillColor=none;align=left;verticalAlign=top;spacingLeft=4;spacingRight=4;overflow=hidden;rotatable=0;points=[[0,0.5],[1,0.5]];portConstraint=eastwest;whiteSpace=wrap;html=1;" parent="Q43pYpBe8QID9FfYm-Oc-1" vertex="1">
          <mxGeometry y="118" width="250" height="62" as="geometry" />
        </mxCell>
        <mxCell id="gMJ3LMWE_9QeDuU2VXUx-2" value="Product" style="swimlane;fontStyle=1;align=center;verticalAlign=top;childLayout=stackLayout;horizontal=1;startSize=26;horizontalStack=0;resizeParent=1;resizeParentMax=0;resizeLast=0;collapsible=1;marginBottom=0;whiteSpace=wrap;html=1;" parent="1" vertex="1">
          <mxGeometry x="310" y="580" width="230" height="180" as="geometry" />
        </mxCell>
        <mxCell id="gMJ3LMWE_9QeDuU2VXUx-3" value="+P_id:int&lt;br&gt;+P_name:String&lt;br&gt;+P_price:int&lt;br&gt;+P_desc:String&lt;br&gt;+P_img:String&lt;br&gt;+P_date:date&lt;br&gt;+P_quantity:int" style="text;strokeColor=none;fillColor=none;align=left;verticalAlign=top;spacingLeft=4;spacingRight=4;overflow=hidden;rotatable=0;points=[[0,0.5],[1,0.5]];portConstraint=eastwest;whiteSpace=wrap;html=1;" parent="gMJ3LMWE_9QeDuU2VXUx-2" vertex="1">
          <mxGeometry y="26" width="230" height="104" as="geometry" />
        </mxCell>
        <mxCell id="gMJ3LMWE_9QeDuU2VXUx-4" value="" style="line;strokeWidth=1;fillColor=none;align=left;verticalAlign=middle;spacingTop=-1;spacingLeft=3;spacingRight=3;rotatable=0;labelPosition=right;points=[];portConstraint=eastwest;strokeColor=inherit;" parent="gMJ3LMWE_9QeDuU2VXUx-2" vertex="1">
          <mxGeometry y="130" width="230" height="8" as="geometry" />
        </mxCell>
        <mxCell id="gMJ3LMWE_9QeDuU2VXUx-5" value="+sellProduct()&lt;br&gt;+Product_Details()" style="text;strokeColor=none;fillColor=none;align=left;verticalAlign=top;spacingLeft=4;spacingRight=4;overflow=hidden;rotatable=0;points=[[0,0.5],[1,0.5]];portConstraint=eastwest;whiteSpace=wrap;html=1;" parent="gMJ3LMWE_9QeDuU2VXUx-2" vertex="1">
          <mxGeometry y="138" width="230" height="42" as="geometry" />
        </mxCell>
        <mxCell id="t-Sl6b7_RuQeNClAx58l-1" value="Admin" style="swimlane;fontStyle=1;align=center;verticalAlign=top;childLayout=stackLayout;horizontal=1;startSize=26;horizontalStack=0;resizeParent=1;resizeParentMax=0;resizeLast=0;collapsible=1;marginBottom=0;whiteSpace=wrap;html=1;" parent="1" vertex="1">
          <mxGeometry x="670" y="590" width="180" height="134" as="geometry" />
        </mxCell>
        <mxCell id="t-Sl6b7_RuQeNClAx58l-2" value="+A_id:int&lt;br&gt;+A_name:String&lt;br&gt;+A_login:String&lt;br&gt;+A_password:String" style="text;strokeColor=none;fillColor=none;align=left;verticalAlign=top;spacingLeft=4;spacingRight=4;overflow=hidden;rotatable=0;points=[[0,0.5],[1,0.5]];portConstraint=eastwest;whiteSpace=wrap;html=1;" parent="t-Sl6b7_RuQeNClAx58l-1" vertex="1">
          <mxGeometry y="26" width="180" height="74" as="geometry" />
        </mxCell>
        <mxCell id="t-Sl6b7_RuQeNClAx58l-3" value="" style="line;strokeWidth=1;fillColor=none;align=left;verticalAlign=middle;spacingTop=-1;spacingLeft=3;spacingRight=3;rotatable=0;labelPosition=right;points=[];portConstraint=eastwest;strokeColor=inherit;" parent="t-Sl6b7_RuQeNClAx58l-1" vertex="1">
          <mxGeometry y="100" width="180" height="8" as="geometry" />
        </mxCell>
        <mxCell id="t-Sl6b7_RuQeNClAx58l-4" value="+login()" style="text;strokeColor=none;fillColor=none;align=left;verticalAlign=top;spacingLeft=4;spacingRight=4;overflow=hidden;rotatable=0;points=[[0,0.5],[1,0.5]];portConstraint=eastwest;whiteSpace=wrap;html=1;" parent="t-Sl6b7_RuQeNClAx58l-1" vertex="1">
          <mxGeometry y="108" width="180" height="26" as="geometry" />
        </mxCell>
        <mxCell id="t-Sl6b7_RuQeNClAx58l-5" value="Order" style="swimlane;fontStyle=1;align=center;verticalAlign=top;childLayout=stackLayout;horizontal=1;startSize=26;horizontalStack=0;resizeParent=1;resizeParentMax=0;resizeLast=0;collapsible=1;marginBottom=0;whiteSpace=wrap;html=1;" parent="1" vertex="1">
          <mxGeometry x="610" y="330" width="210" height="164" as="geometry" />
        </mxCell>
        <mxCell id="t-Sl6b7_RuQeNClAx58l-6" value="+O_id:int&lt;br&gt;+O_name:String&lt;br&gt;+O_date:date&lt;br&gt;+O_number:int&lt;br&gt;+C_id:int&lt;br&gt;+P_id:int&lt;br&gt;+O_details:String" style="text;strokeColor=none;fillColor=none;align=left;verticalAlign=top;spacingLeft=4;spacingRight=4;overflow=hidden;rotatable=0;points=[[0,0.5],[1,0.5]];portConstraint=eastwest;whiteSpace=wrap;html=1;" parent="t-Sl6b7_RuQeNClAx58l-5" vertex="1">
          <mxGeometry y="26" width="210" height="104" as="geometry" />
        </mxCell>
        <mxCell id="t-Sl6b7_RuQeNClAx58l-7" value="" style="line;strokeWidth=1;fillColor=none;align=left;verticalAlign=middle;spacingTop=-1;spacingLeft=3;spacingRight=3;rotatable=0;labelPosition=right;points=[];portConstraint=eastwest;strokeColor=inherit;" parent="t-Sl6b7_RuQeNClAx58l-5" vertex="1">
          <mxGeometry y="130" width="210" height="8" as="geometry" />
        </mxCell>
        <mxCell id="t-Sl6b7_RuQeNClAx58l-8" value="+PlaceOrder()" style="text;strokeColor=none;fillColor=none;align=left;verticalAlign=top;spacingLeft=4;spacingRight=4;overflow=hidden;rotatable=0;points=[[0,0.5],[1,0.5]];portConstraint=eastwest;whiteSpace=wrap;html=1;" parent="t-Sl6b7_RuQeNClAx58l-5" vertex="1">
          <mxGeometry y="138" width="210" height="26" as="geometry" />
        </mxCell>
        <mxCell id="t-Sl6b7_RuQeNClAx58l-9" value="Category" style="swimlane;fontStyle=1;align=center;verticalAlign=top;childLayout=stackLayout;horizontal=1;startSize=26;horizontalStack=0;resizeParent=1;resizeParentMax=0;resizeLast=0;collapsible=1;marginBottom=0;whiteSpace=wrap;html=1;" parent="1" vertex="1">
          <mxGeometry x="80" y="870" width="160" height="130" as="geometry" />
        </mxCell>
        <mxCell id="t-Sl6b7_RuQeNClAx58l-10" value="+Ca_id:int&lt;br&gt;+Ca_name:String&lt;br&gt;+Ca_Desc:String" style="text;strokeColor=none;fillColor=none;align=left;verticalAlign=top;spacingLeft=4;spacingRight=4;overflow=hidden;rotatable=0;points=[[0,0.5],[1,0.5]];portConstraint=eastwest;whiteSpace=wrap;html=1;" parent="t-Sl6b7_RuQeNClAx58l-9" vertex="1">
          <mxGeometry y="26" width="160" height="54" as="geometry" />
        </mxCell>
        <mxCell id="t-Sl6b7_RuQeNClAx58l-11" value="" style="line;strokeWidth=1;fillColor=none;align=left;verticalAlign=middle;spacingTop=-1;spacingLeft=3;spacingRight=3;rotatable=0;labelPosition=right;points=[];portConstraint=eastwest;strokeColor=inherit;" parent="t-Sl6b7_RuQeNClAx58l-9" vertex="1">
          <mxGeometry y="80" width="160" height="8" as="geometry" />
        </mxCell>
        <mxCell id="t-Sl6b7_RuQeNClAx58l-12" value="+Add()&lt;br&gt;+view()" style="text;strokeColor=none;fillColor=none;align=left;verticalAlign=top;spacingLeft=4;spacingRight=4;overflow=hidden;rotatable=0;points=[[0,0.5],[1,0.5]];portConstraint=eastwest;whiteSpace=wrap;html=1;" parent="t-Sl6b7_RuQeNClAx58l-9" vertex="1">
          <mxGeometry y="88" width="160" height="42" as="geometry" />
        </mxCell>
        <mxCell id="GoQ9XOJ6oYL7_iceFZaT-3" value="" style="endArrow=diamondThin;endFill=0;endSize=24;html=1;rounded=0;entryX=0.445;entryY=0.974;entryDx=0;entryDy=0;entryPerimeter=0;exitX=0.955;exitY=-0.001;exitDx=0;exitDy=0;exitPerimeter=0;" parent="1" source="H_zMgAZm_VMr4QbAo7N0-1" target="-VMBmMZdC-g06y-LkfWb-12" edge="1">
          <mxGeometry width="160" relative="1" as="geometry">
            <mxPoint x="60" y="100" as="sourcePoint" />
            <mxPoint x="220" y="100" as="targetPoint" />
          </mxGeometry>
        </mxCell>
        <mxCell id="GoQ9XOJ6oYL7_iceFZaT-5" value="" style="endArrow=diamondThin;endFill=0;endSize=24;html=1;rounded=0;entryX=1;entryY=0.5;entryDx=0;entryDy=0;exitX=0;exitY=0.5;exitDx=0;exitDy=0;" parent="1" source="H_zMgAZm_VMr4QbAo7N0-6" target="-VMBmMZdC-g06y-LkfWb-10" edge="1">
          <mxGeometry width="160" relative="1" as="geometry">
            <mxPoint x="70" y="110" as="sourcePoint" />
            <mxPoint x="230" y="110" as="targetPoint" />
          </mxGeometry>
        </mxCell>
        <mxCell id="GoQ9XOJ6oYL7_iceFZaT-6" value="Cart" style="swimlane;fontStyle=1;align=center;verticalAlign=top;childLayout=stackLayout;horizontal=1;startSize=26;horizontalStack=0;resizeParent=1;resizeParentMax=0;resizeLast=0;collapsible=1;marginBottom=0;whiteSpace=wrap;html=1;" parent="1" vertex="1">
          <mxGeometry x="40" y="570" width="170" height="160" as="geometry" />
        </mxCell>
        <mxCell id="GoQ9XOJ6oYL7_iceFZaT-7" value="+O_id:int&lt;br&gt;+TotalPrice:int&lt;br&gt;P_quentity:int&lt;br&gt;P_id:int&lt;br&gt;+P_desc:String" style="text;strokeColor=none;fillColor=none;align=left;verticalAlign=top;spacingLeft=4;spacingRight=4;overflow=hidden;rotatable=0;points=[[0,0.5],[1,0.5]];portConstraint=eastwest;whiteSpace=wrap;html=1;" parent="GoQ9XOJ6oYL7_iceFZaT-6" vertex="1">
          <mxGeometry y="26" width="170" height="84" as="geometry" />
        </mxCell>
        <mxCell id="GoQ9XOJ6oYL7_iceFZaT-8" value="" style="line;strokeWidth=1;fillColor=none;align=left;verticalAlign=middle;spacingTop=-1;spacingLeft=3;spacingRight=3;rotatable=0;labelPosition=right;points=[];portConstraint=eastwest;strokeColor=inherit;" parent="GoQ9XOJ6oYL7_iceFZaT-6" vertex="1">
          <mxGeometry y="110" width="170" height="8" as="geometry" />
        </mxCell>
        <mxCell id="GoQ9XOJ6oYL7_iceFZaT-9" value="+addcart_item()&lt;br&gt;+viewcartdetails()" style="text;strokeColor=none;fillColor=none;align=left;verticalAlign=top;spacingLeft=4;spacingRight=4;overflow=hidden;rotatable=0;points=[[0,0.5],[1,0.5]];portConstraint=eastwest;whiteSpace=wrap;html=1;" parent="GoQ9XOJ6oYL7_iceFZaT-6" vertex="1">
          <mxGeometry y="118" width="170" height="42" as="geometry" />
        </mxCell>
        <mxCell id="GoQ9XOJ6oYL7_iceFZaT-10" value="" style="endArrow=diamondThin;endFill=1;endSize=24;html=1;rounded=0;exitX=0.5;exitY=0;exitDx=0;exitDy=0;entryX=0.411;entryY=0.963;entryDx=0;entryDy=0;entryPerimeter=0;" parent="1" source="GoQ9XOJ6oYL7_iceFZaT-6" target="H_zMgAZm_VMr4QbAo7N0-4" edge="1">
          <mxGeometry width="160" relative="1" as="geometry">
            <mxPoint x="310" y="530" as="sourcePoint" />
            <mxPoint x="470" y="530" as="targetPoint" />
          </mxGeometry>
        </mxCell>
        <mxCell id="GoQ9XOJ6oYL7_iceFZaT-11" value="" style="endArrow=none;html=1;edgeStyle=orthogonalEdgeStyle;rounded=0;entryX=0.539;entryY=0.013;entryDx=0;entryDy=0;entryPerimeter=0;exitX=1;exitY=0.5;exitDx=0;exitDy=0;" parent="1" source="H_zMgAZm_VMr4QbAo7N0-2" target="gMJ3LMWE_9QeDuU2VXUx-2" edge="1">
          <mxGeometry relative="1" as="geometry">
            <mxPoint x="410" y="410" as="sourcePoint" />
            <mxPoint x="570" y="410" as="targetPoint" />
          </mxGeometry>
        </mxCell>
        <mxCell id="GoQ9XOJ6oYL7_iceFZaT-14" value="" style="endArrow=diamondThin;endFill=1;endSize=24;html=1;rounded=0;entryX=1;entryY=0;entryDx=0;entryDy=0;" parent="1" target="H_zMgAZm_VMr4QbAo7N0-1" edge="1">
          <mxGeometry width="160" relative="1" as="geometry">
            <mxPoint x="610" y="356" as="sourcePoint" />
            <mxPoint x="570" y="310" as="targetPoint" />
          </mxGeometry>
        </mxCell>
        <mxCell id="GoQ9XOJ6oYL7_iceFZaT-15" value="" style="endArrow=diamondThin;endFill=0;endSize=24;html=1;rounded=0;entryX=1;entryY=0;entryDx=0;entryDy=0;exitX=0;exitY=0;exitDx=0;exitDy=0;" parent="1" source="gMJ3LMWE_9QeDuU2VXUx-2" target="GoQ9XOJ6oYL7_iceFZaT-6" edge="1">
          <mxGeometry width="160" relative="1" as="geometry">
            <mxPoint x="230" y="510" as="sourcePoint" />
            <mxPoint x="390" y="510" as="targetPoint" />
          </mxGeometry>
        </mxCell>
        <mxCell id="GoQ9XOJ6oYL7_iceFZaT-16" value="" style="endArrow=diamondThin;endFill=1;endSize=24;html=1;rounded=0;entryX=0.75;entryY=0;entryDx=0;entryDy=0;exitX=0;exitY=0.5;exitDx=0;exitDy=0;" parent="1" source="t-Sl6b7_RuQeNClAx58l-6" target="gMJ3LMWE_9QeDuU2VXUx-2" edge="1">
          <mxGeometry width="160" relative="1" as="geometry">
            <mxPoint x="370" y="490" as="sourcePoint" />
            <mxPoint x="530" y="490" as="targetPoint" />
            <Array as="points">
              <mxPoint x="520" y="410" />
            </Array>
          </mxGeometry>
        </mxCell>
        <mxCell id="GoQ9XOJ6oYL7_iceFZaT-17" value="" style="endArrow=diamondThin;endFill=1;endSize=24;html=1;rounded=0;exitX=0.25;exitY=0;exitDx=0;exitDy=0;entryX=0;entryY=0.5;entryDx=0;entryDy=0;" parent="1" source="gMJ3LMWE_9QeDuU2VXUx-2" target="H_zMgAZm_VMr4QbAo7N0-8" edge="1">
          <mxGeometry width="160" relative="1" as="geometry">
            <mxPoint x="430" y="560" as="sourcePoint" />
            <mxPoint x="560" y="230" as="targetPoint" />
          </mxGeometry>
        </mxCell>
        <mxCell id="GoQ9XOJ6oYL7_iceFZaT-18" value="" style="endArrow=diamondThin;endFill=1;endSize=24;html=1;rounded=0;exitX=0.5;exitY=0;exitDx=0;exitDy=0;entryX=0.007;entryY=1.029;entryDx=0;entryDy=0;entryPerimeter=0;" parent="1" source="Q43pYpBe8QID9FfYm-Oc-1" target="t-Sl6b7_RuQeNClAx58l-8" edge="1">
          <mxGeometry width="160" relative="1" as="geometry">
            <mxPoint x="640" y="690" as="sourcePoint" />
            <mxPoint x="800" y="690" as="targetPoint" />
          </mxGeometry>
        </mxCell>
        <mxCell id="GoQ9XOJ6oYL7_iceFZaT-19" value="" style="endArrow=none;html=1;edgeStyle=orthogonalEdgeStyle;rounded=0;entryX=0;entryY=0.5;entryDx=0;entryDy=0;exitX=0.75;exitY=0;exitDx=0;exitDy=0;" parent="1" source="t-Sl6b7_RuQeNClAx58l-9" target="gMJ3LMWE_9QeDuU2VXUx-5" edge="1">
          <mxGeometry relative="1" as="geometry">
            <mxPoint x="200" y="840" as="sourcePoint" />
            <mxPoint x="360" y="840" as="targetPoint" />
          </mxGeometry>
        </mxCell>
      </root>
    </mxGraphModel>
  </diagram>
</mxfile>
